G04 #@! TF.FileFunction,Legend,Top*
%FSLAX46Y46*%
G04 Gerber Fmt 4.6, Leading zero omitted, Abs format (unit mm)*
G04 Created by KiCad (PCBNEW (2015-01-16 BZR 5376)-product) date 20-Jun-16 7:20:01 PM*
%MOMM*%
G01*
G04 APERTURE LIST*
%ADD10C,0.100000*%
%ADD11C,0.300000*%
%ADD12C,0.254000*%
%ADD13C,0.150000*%
%ADD14C,0.304800*%
%ADD15C,0.381000*%
%ADD16C,0.050800*%
%ADD17C,0.158750*%
%ADD18C,0.127000*%
G04 APERTURE END LIST*
D10*
X34903500Y-35419000D02*
X34903500Y-98419000D01*
X39403500Y-31919000D02*
X38403500Y-31919000D01*
X121403500Y-31919000D02*
X39403500Y-31919000D01*
X124903500Y-98419000D02*
X124903500Y-35419000D01*
X38403500Y-101919000D02*
X121403500Y-101919000D01*
X34903500Y-98419000D02*
G75*
G03X38403500Y-101919000I3500000J0D01*
G01*
X121403500Y-101919000D02*
G75*
G03X124903500Y-98419000I0J3500000D01*
G01*
X124903500Y-35419000D02*
G75*
G03X121403500Y-31919000I-3500000J0D01*
G01*
X38403500Y-31919000D02*
G75*
G03X34903500Y-35419000I0J-3500000D01*
G01*
D11*
X106796357Y-90619000D02*
X106796357Y-91761857D01*
X107224929Y-92476143D02*
X106796357Y-93619000D01*
X106367786Y-92476143D01*
X104196357Y-90619000D02*
X104196357Y-91761857D01*
X104624929Y-92476143D02*
X104196357Y-93619000D01*
X103767786Y-92476143D01*
X101796357Y-90619000D02*
X101796357Y-91761857D01*
X102224929Y-92476143D02*
X101796357Y-93619000D01*
X101367786Y-92476143D01*
X99196357Y-90619000D02*
X99196357Y-91761857D01*
X99624929Y-92476143D02*
X99196357Y-93619000D01*
X98767786Y-92476143D01*
X118494024Y-37803667D02*
X117889262Y-38227000D01*
X118494024Y-38529381D02*
X117224024Y-38529381D01*
X117224024Y-38045572D01*
X117284500Y-37924619D01*
X117344976Y-37864143D01*
X117465929Y-37803667D01*
X117647357Y-37803667D01*
X117768310Y-37864143D01*
X117828786Y-37924619D01*
X117889262Y-38045572D01*
X117889262Y-38529381D01*
X117224024Y-37380333D02*
X118494024Y-36533667D01*
X117224024Y-36533667D02*
X118494024Y-37380333D01*
X112210548Y-89601524D02*
X112633882Y-90871524D01*
X113057215Y-89601524D01*
X113480548Y-90871524D02*
X113480548Y-89601524D01*
X114085310Y-90871524D02*
X114085310Y-89601524D01*
X114811024Y-90871524D01*
X114811024Y-89601524D01*
X112633881Y-85852000D02*
X112512929Y-85791524D01*
X112331500Y-85791524D01*
X112150072Y-85852000D01*
X112029119Y-85972952D01*
X111968643Y-86093905D01*
X111908167Y-86335810D01*
X111908167Y-86517238D01*
X111968643Y-86759143D01*
X112029119Y-86880095D01*
X112150072Y-87001048D01*
X112331500Y-87061524D01*
X112452452Y-87061524D01*
X112633881Y-87001048D01*
X112694357Y-86940571D01*
X112694357Y-86517238D01*
X112452452Y-86517238D01*
X113238643Y-87061524D02*
X113238643Y-85791524D01*
X113964357Y-87061524D01*
X113964357Y-85791524D01*
X114569119Y-87061524D02*
X114569119Y-85791524D01*
X114871500Y-85791524D01*
X115052928Y-85852000D01*
X115173881Y-85972952D01*
X115234357Y-86093905D01*
X115294833Y-86335810D01*
X115294833Y-86517238D01*
X115234357Y-86759143D01*
X115173881Y-86880095D01*
X115052928Y-87001048D01*
X114871500Y-87061524D01*
X114569119Y-87061524D01*
X111968643Y-83021714D02*
X112936262Y-83021714D01*
X112452452Y-83505524D02*
X112452452Y-82537905D01*
X114145786Y-82235524D02*
X113541024Y-82235524D01*
X113480548Y-82840286D01*
X113541024Y-82779810D01*
X113661976Y-82719333D01*
X113964357Y-82719333D01*
X114085310Y-82779810D01*
X114145786Y-82840286D01*
X114206262Y-82961238D01*
X114206262Y-83263619D01*
X114145786Y-83384571D01*
X114085310Y-83445048D01*
X113964357Y-83505524D01*
X113661976Y-83505524D01*
X113541024Y-83445048D01*
X113480548Y-83384571D01*
X114569119Y-82235524D02*
X114992453Y-83505524D01*
X115415786Y-82235524D01*
X84784595Y-92589048D02*
X84966023Y-92649524D01*
X85268404Y-92649524D01*
X85389357Y-92589048D01*
X85449833Y-92528571D01*
X85510309Y-92407619D01*
X85510309Y-92286667D01*
X85449833Y-92165714D01*
X85389357Y-92105238D01*
X85268404Y-92044762D01*
X85026500Y-91984286D01*
X84905547Y-91923810D01*
X84845071Y-91863333D01*
X84784595Y-91742381D01*
X84784595Y-91621429D01*
X84845071Y-91500476D01*
X84905547Y-91440000D01*
X85026500Y-91379524D01*
X85328880Y-91379524D01*
X85510309Y-91440000D01*
X85933643Y-91379524D02*
X86236024Y-92649524D01*
X86477928Y-91742381D01*
X86719833Y-92649524D01*
X87022214Y-91379524D01*
X87445548Y-91500476D02*
X87506024Y-91440000D01*
X87626976Y-91379524D01*
X87929357Y-91379524D01*
X88050310Y-91440000D01*
X88110786Y-91500476D01*
X88171262Y-91621429D01*
X88171262Y-91742381D01*
X88110786Y-91923810D01*
X87385072Y-92649524D01*
X88171262Y-92649524D01*
X89078405Y-93133333D02*
X89017929Y-93072857D01*
X88896977Y-92891429D01*
X88836500Y-92770476D01*
X88776024Y-92589048D01*
X88715548Y-92286667D01*
X88715548Y-92044762D01*
X88776024Y-91742381D01*
X88836500Y-91560952D01*
X88896977Y-91440000D01*
X89017929Y-91258571D01*
X89078405Y-91198095D01*
X89562215Y-92649524D02*
X89562215Y-91379524D01*
X90046024Y-91379524D01*
X90166977Y-91440000D01*
X90227453Y-91500476D01*
X90287929Y-91621429D01*
X90287929Y-91802857D01*
X90227453Y-91923810D01*
X90166977Y-91984286D01*
X90046024Y-92044762D01*
X89562215Y-92044762D01*
X90711263Y-91379524D02*
X91497453Y-91379524D01*
X91074120Y-91863333D01*
X91255548Y-91863333D01*
X91376501Y-91923810D01*
X91436977Y-91984286D01*
X91497453Y-92105238D01*
X91497453Y-92407619D01*
X91436977Y-92528571D01*
X91376501Y-92589048D01*
X91255548Y-92649524D01*
X90892691Y-92649524D01*
X90771739Y-92589048D01*
X90711263Y-92528571D01*
X92041739Y-92528571D02*
X92102215Y-92589048D01*
X92041739Y-92649524D01*
X91981263Y-92589048D01*
X92041739Y-92528571D01*
X92041739Y-92649524D01*
X92525549Y-91379524D02*
X93311739Y-91379524D01*
X92888406Y-91863333D01*
X93069834Y-91863333D01*
X93190787Y-91923810D01*
X93251263Y-91984286D01*
X93311739Y-92105238D01*
X93311739Y-92407619D01*
X93251263Y-92528571D01*
X93190787Y-92589048D01*
X93069834Y-92649524D01*
X92706977Y-92649524D01*
X92586025Y-92589048D01*
X92525549Y-92528571D01*
X93735073Y-93133333D02*
X93795549Y-93072857D01*
X93916501Y-92891429D01*
X93976977Y-92770476D01*
X94037454Y-92589048D01*
X94097930Y-92286667D01*
X94097930Y-92044762D01*
X94037454Y-91742381D01*
X93976977Y-91560952D01*
X93916501Y-91440000D01*
X93795549Y-91258571D01*
X93735073Y-91198095D01*
X73608595Y-92589048D02*
X73790023Y-92649524D01*
X74092404Y-92649524D01*
X74213357Y-92589048D01*
X74273833Y-92528571D01*
X74334309Y-92407619D01*
X74334309Y-92286667D01*
X74273833Y-92165714D01*
X74213357Y-92105238D01*
X74092404Y-92044762D01*
X73850500Y-91984286D01*
X73729547Y-91923810D01*
X73669071Y-91863333D01*
X73608595Y-91742381D01*
X73608595Y-91621429D01*
X73669071Y-91500476D01*
X73729547Y-91440000D01*
X73850500Y-91379524D01*
X74152880Y-91379524D01*
X74334309Y-91440000D01*
X74757643Y-91379524D02*
X75060024Y-92649524D01*
X75301928Y-91742381D01*
X75543833Y-92649524D01*
X75846214Y-91379524D01*
X76995262Y-92649524D02*
X76269548Y-92649524D01*
X76632405Y-92649524D02*
X76632405Y-91379524D01*
X76511453Y-91560952D01*
X76390500Y-91681905D01*
X76269548Y-91742381D01*
X77902405Y-93133333D02*
X77841929Y-93072857D01*
X77720977Y-92891429D01*
X77660500Y-92770476D01*
X77600024Y-92589048D01*
X77539548Y-92286667D01*
X77539548Y-92044762D01*
X77600024Y-91742381D01*
X77660500Y-91560952D01*
X77720977Y-91440000D01*
X77841929Y-91258571D01*
X77902405Y-91198095D01*
X78386215Y-92649524D02*
X78386215Y-91379524D01*
X78870024Y-91379524D01*
X78990977Y-91440000D01*
X79051453Y-91500476D01*
X79111929Y-91621429D01*
X79111929Y-91802857D01*
X79051453Y-91923810D01*
X78990977Y-91984286D01*
X78870024Y-92044762D01*
X78386215Y-92044762D01*
X79535263Y-91379524D02*
X80321453Y-91379524D01*
X79898120Y-91863333D01*
X80079548Y-91863333D01*
X80200501Y-91923810D01*
X80260977Y-91984286D01*
X80321453Y-92105238D01*
X80321453Y-92407619D01*
X80260977Y-92528571D01*
X80200501Y-92589048D01*
X80079548Y-92649524D01*
X79716691Y-92649524D01*
X79595739Y-92589048D01*
X79535263Y-92528571D01*
X80865739Y-92528571D02*
X80926215Y-92589048D01*
X80865739Y-92649524D01*
X80805263Y-92589048D01*
X80865739Y-92528571D01*
X80865739Y-92649524D01*
X81410025Y-91500476D02*
X81470501Y-91440000D01*
X81591453Y-91379524D01*
X81893834Y-91379524D01*
X82014787Y-91440000D01*
X82075263Y-91500476D01*
X82135739Y-91621429D01*
X82135739Y-91742381D01*
X82075263Y-91923810D01*
X81349549Y-92649524D01*
X82135739Y-92649524D01*
X82559073Y-93133333D02*
X82619549Y-93072857D01*
X82740501Y-92891429D01*
X82800977Y-92770476D01*
X82861454Y-92589048D01*
X82921930Y-92286667D01*
X82921930Y-92044762D01*
X82861454Y-91742381D01*
X82800977Y-91560952D01*
X82740501Y-91440000D01*
X82619549Y-91258571D01*
X82559073Y-91198095D01*
X112518976Y-93919524D02*
X112095643Y-93314762D01*
X111793262Y-93919524D02*
X111793262Y-92649524D01*
X112277071Y-92649524D01*
X112398024Y-92710000D01*
X112458500Y-92770476D01*
X112518976Y-92891429D01*
X112518976Y-93072857D01*
X112458500Y-93193810D01*
X112398024Y-93254286D01*
X112277071Y-93314762D01*
X111793262Y-93314762D01*
X113063262Y-93254286D02*
X113486595Y-93254286D01*
X113668024Y-93919524D02*
X113063262Y-93919524D01*
X113063262Y-92649524D01*
X113668024Y-92649524D01*
X114151834Y-93859048D02*
X114333262Y-93919524D01*
X114635643Y-93919524D01*
X114756596Y-93859048D01*
X114817072Y-93798571D01*
X114877548Y-93677619D01*
X114877548Y-93556667D01*
X114817072Y-93435714D01*
X114756596Y-93375238D01*
X114635643Y-93314762D01*
X114393739Y-93254286D01*
X114272786Y-93193810D01*
X114212310Y-93133333D01*
X114151834Y-93012381D01*
X114151834Y-92891429D01*
X114212310Y-92770476D01*
X114272786Y-92710000D01*
X114393739Y-92649524D01*
X114696119Y-92649524D01*
X114877548Y-92710000D01*
X115421834Y-93254286D02*
X115845167Y-93254286D01*
X116026596Y-93919524D02*
X115421834Y-93919524D01*
X115421834Y-92649524D01*
X116026596Y-92649524D01*
X116389453Y-92649524D02*
X117115168Y-92649524D01*
X116752311Y-93919524D02*
X116752311Y-92649524D01*
X114430024Y-38686619D02*
X114430024Y-37960904D01*
X115700024Y-38323761D02*
X114430024Y-38323761D01*
X114430024Y-37658523D02*
X115700024Y-36811857D01*
X114430024Y-36811857D02*
X115700024Y-37658523D01*
X112077500Y-38686619D02*
X112017024Y-38807571D01*
X112017024Y-38989000D01*
X112077500Y-39170428D01*
X112198452Y-39291381D01*
X112319405Y-39351857D01*
X112561310Y-39412333D01*
X112742738Y-39412333D01*
X112984643Y-39351857D01*
X113105595Y-39291381D01*
X113226548Y-39170428D01*
X113287024Y-38989000D01*
X113287024Y-38868048D01*
X113226548Y-38686619D01*
X113166071Y-38626143D01*
X112742738Y-38626143D01*
X112742738Y-38868048D01*
X113287024Y-38081857D02*
X112017024Y-38081857D01*
X113287024Y-37356143D01*
X112017024Y-37356143D01*
X113287024Y-36751381D02*
X112017024Y-36751381D01*
X112017024Y-36449000D01*
X112077500Y-36267572D01*
X112198452Y-36146619D01*
X112319405Y-36086143D01*
X112561310Y-36025667D01*
X112742738Y-36025667D01*
X112984643Y-36086143D01*
X113105595Y-36146619D01*
X113226548Y-36267572D01*
X113287024Y-36449000D01*
X113287024Y-36751381D01*
X109350024Y-39412333D02*
X110620024Y-38988999D01*
X109350024Y-38565666D01*
X110499071Y-37416619D02*
X110559548Y-37477095D01*
X110620024Y-37658524D01*
X110620024Y-37779476D01*
X110559548Y-37960904D01*
X110438595Y-38081857D01*
X110317643Y-38142333D01*
X110075738Y-38202809D01*
X109894310Y-38202809D01*
X109652405Y-38142333D01*
X109531452Y-38081857D01*
X109410500Y-37960904D01*
X109350024Y-37779476D01*
X109350024Y-37658524D01*
X109410500Y-37477095D01*
X109470976Y-37416619D01*
X110499071Y-36146619D02*
X110559548Y-36207095D01*
X110620024Y-36388524D01*
X110620024Y-36509476D01*
X110559548Y-36690904D01*
X110438595Y-36811857D01*
X110317643Y-36872333D01*
X110075738Y-36932809D01*
X109894310Y-36932809D01*
X109652405Y-36872333D01*
X109531452Y-36811857D01*
X109410500Y-36690904D01*
X109350024Y-36509476D01*
X109350024Y-36388524D01*
X109410500Y-36207095D01*
X109470976Y-36146619D01*
X102238024Y-97983524D02*
X100968024Y-97983524D01*
X100968024Y-97499715D01*
X101028500Y-97378762D01*
X101088976Y-97318286D01*
X101209929Y-97257810D01*
X101391357Y-97257810D01*
X101512310Y-97318286D01*
X101572786Y-97378762D01*
X101633262Y-97499715D01*
X101633262Y-97983524D01*
X100968024Y-96834476D02*
X100968024Y-96048286D01*
X101451833Y-96471619D01*
X101451833Y-96290191D01*
X101512310Y-96169238D01*
X101572786Y-96108762D01*
X101693738Y-96048286D01*
X101996119Y-96048286D01*
X102117071Y-96108762D01*
X102177548Y-96169238D01*
X102238024Y-96290191D01*
X102238024Y-96653048D01*
X102177548Y-96774000D01*
X102117071Y-96834476D01*
X102117071Y-95504000D02*
X102177548Y-95443524D01*
X102238024Y-95504000D01*
X102177548Y-95564476D01*
X102117071Y-95504000D01*
X102238024Y-95504000D01*
X100968024Y-94294476D02*
X100968024Y-94899238D01*
X101572786Y-94959714D01*
X101512310Y-94899238D01*
X101451833Y-94778286D01*
X101451833Y-94475905D01*
X101512310Y-94354952D01*
X101572786Y-94294476D01*
X101693738Y-94234000D01*
X101996119Y-94234000D01*
X102117071Y-94294476D01*
X102177548Y-94354952D01*
X102238024Y-94475905D01*
X102238024Y-94778286D01*
X102177548Y-94899238D01*
X102117071Y-94959714D01*
X107572024Y-97983524D02*
X106302024Y-97983524D01*
X106302024Y-97499715D01*
X106362500Y-97378762D01*
X106422976Y-97318286D01*
X106543929Y-97257810D01*
X106725357Y-97257810D01*
X106846310Y-97318286D01*
X106906786Y-97378762D01*
X106967262Y-97499715D01*
X106967262Y-97983524D01*
X106302024Y-96834476D02*
X106302024Y-96048286D01*
X106785833Y-96471619D01*
X106785833Y-96290191D01*
X106846310Y-96169238D01*
X106906786Y-96108762D01*
X107027738Y-96048286D01*
X107330119Y-96048286D01*
X107451071Y-96108762D01*
X107511548Y-96169238D01*
X107572024Y-96290191D01*
X107572024Y-96653048D01*
X107511548Y-96774000D01*
X107451071Y-96834476D01*
X107451071Y-95504000D02*
X107511548Y-95443524D01*
X107572024Y-95504000D01*
X107511548Y-95564476D01*
X107451071Y-95504000D01*
X107572024Y-95504000D01*
X106302024Y-95020190D02*
X106302024Y-94173524D01*
X107572024Y-94717809D01*
X104778024Y-97983524D02*
X103508024Y-97983524D01*
X103508024Y-97499715D01*
X103568500Y-97378762D01*
X103628976Y-97318286D01*
X103749929Y-97257810D01*
X103931357Y-97257810D01*
X104052310Y-97318286D01*
X104112786Y-97378762D01*
X104173262Y-97499715D01*
X104173262Y-97983524D01*
X103508024Y-96834476D02*
X103508024Y-96048286D01*
X103991833Y-96471619D01*
X103991833Y-96290191D01*
X104052310Y-96169238D01*
X104112786Y-96108762D01*
X104233738Y-96048286D01*
X104536119Y-96048286D01*
X104657071Y-96108762D01*
X104717548Y-96169238D01*
X104778024Y-96290191D01*
X104778024Y-96653048D01*
X104717548Y-96774000D01*
X104657071Y-96834476D01*
X104657071Y-95504000D02*
X104717548Y-95443524D01*
X104778024Y-95504000D01*
X104717548Y-95564476D01*
X104657071Y-95504000D01*
X104778024Y-95504000D01*
X103508024Y-94354952D02*
X103508024Y-94596857D01*
X103568500Y-94717809D01*
X103628976Y-94778286D01*
X103810405Y-94899238D01*
X104052310Y-94959714D01*
X104536119Y-94959714D01*
X104657071Y-94899238D01*
X104717548Y-94838762D01*
X104778024Y-94717809D01*
X104778024Y-94475905D01*
X104717548Y-94354952D01*
X104657071Y-94294476D01*
X104536119Y-94234000D01*
X104233738Y-94234000D01*
X104112786Y-94294476D01*
X104052310Y-94354952D01*
X103991833Y-94475905D01*
X103991833Y-94717809D01*
X104052310Y-94838762D01*
X104112786Y-94899238D01*
X104233738Y-94959714D01*
X99698024Y-97983524D02*
X98428024Y-97983524D01*
X98428024Y-97499715D01*
X98488500Y-97378762D01*
X98548976Y-97318286D01*
X98669929Y-97257810D01*
X98851357Y-97257810D01*
X98972310Y-97318286D01*
X99032786Y-97378762D01*
X99093262Y-97499715D01*
X99093262Y-97983524D01*
X98428024Y-96834476D02*
X98428024Y-96048286D01*
X98911833Y-96471619D01*
X98911833Y-96290191D01*
X98972310Y-96169238D01*
X99032786Y-96108762D01*
X99153738Y-96048286D01*
X99456119Y-96048286D01*
X99577071Y-96108762D01*
X99637548Y-96169238D01*
X99698024Y-96290191D01*
X99698024Y-96653048D01*
X99637548Y-96774000D01*
X99577071Y-96834476D01*
X99577071Y-95504000D02*
X99637548Y-95443524D01*
X99698024Y-95504000D01*
X99637548Y-95564476D01*
X99577071Y-95504000D01*
X99698024Y-95504000D01*
X98851357Y-94354952D02*
X99698024Y-94354952D01*
X98367548Y-94657333D02*
X99274690Y-94959714D01*
X99274690Y-94173524D01*
X97412024Y-97983524D02*
X96142024Y-97983524D01*
X96142024Y-97499715D01*
X96202500Y-97378762D01*
X96262976Y-97318286D01*
X96383929Y-97257810D01*
X96565357Y-97257810D01*
X96686310Y-97318286D01*
X96746786Y-97378762D01*
X96807262Y-97499715D01*
X96807262Y-97983524D01*
X96142024Y-96834476D02*
X96142024Y-96048286D01*
X96625833Y-96471619D01*
X96625833Y-96290191D01*
X96686310Y-96169238D01*
X96746786Y-96108762D01*
X96867738Y-96048286D01*
X97170119Y-96048286D01*
X97291071Y-96108762D01*
X97351548Y-96169238D01*
X97412024Y-96290191D01*
X97412024Y-96653048D01*
X97351548Y-96774000D01*
X97291071Y-96834476D01*
X97291071Y-95504000D02*
X97351548Y-95443524D01*
X97412024Y-95504000D01*
X97351548Y-95564476D01*
X97291071Y-95504000D01*
X97412024Y-95504000D01*
X96142024Y-95020190D02*
X96142024Y-94234000D01*
X96625833Y-94657333D01*
X96625833Y-94475905D01*
X96686310Y-94354952D01*
X96746786Y-94294476D01*
X96867738Y-94234000D01*
X97170119Y-94234000D01*
X97291071Y-94294476D01*
X97351548Y-94354952D01*
X97412024Y-94475905D01*
X97412024Y-94838762D01*
X97351548Y-94959714D01*
X97291071Y-95020190D01*
X94618024Y-97983524D02*
X93348024Y-97983524D01*
X93348024Y-97499715D01*
X93408500Y-97378762D01*
X93468976Y-97318286D01*
X93589929Y-97257810D01*
X93771357Y-97257810D01*
X93892310Y-97318286D01*
X93952786Y-97378762D01*
X94013262Y-97499715D01*
X94013262Y-97983524D01*
X93348024Y-96834476D02*
X93348024Y-96048286D01*
X93831833Y-96471619D01*
X93831833Y-96290191D01*
X93892310Y-96169238D01*
X93952786Y-96108762D01*
X94073738Y-96048286D01*
X94376119Y-96048286D01*
X94497071Y-96108762D01*
X94557548Y-96169238D01*
X94618024Y-96290191D01*
X94618024Y-96653048D01*
X94557548Y-96774000D01*
X94497071Y-96834476D01*
X94497071Y-95504000D02*
X94557548Y-95443524D01*
X94618024Y-95504000D01*
X94557548Y-95564476D01*
X94497071Y-95504000D01*
X94618024Y-95504000D01*
X93468976Y-94959714D02*
X93408500Y-94899238D01*
X93348024Y-94778286D01*
X93348024Y-94475905D01*
X93408500Y-94354952D01*
X93468976Y-94294476D01*
X93589929Y-94234000D01*
X93710881Y-94234000D01*
X93892310Y-94294476D01*
X94618024Y-95020190D01*
X94618024Y-94234000D01*
X92078024Y-97983524D02*
X90808024Y-97983524D01*
X90808024Y-97499715D01*
X90868500Y-97378762D01*
X90928976Y-97318286D01*
X91049929Y-97257810D01*
X91231357Y-97257810D01*
X91352310Y-97318286D01*
X91412786Y-97378762D01*
X91473262Y-97499715D01*
X91473262Y-97983524D01*
X90808024Y-96834476D02*
X90808024Y-96048286D01*
X91291833Y-96471619D01*
X91291833Y-96290191D01*
X91352310Y-96169238D01*
X91412786Y-96108762D01*
X91533738Y-96048286D01*
X91836119Y-96048286D01*
X91957071Y-96108762D01*
X92017548Y-96169238D01*
X92078024Y-96290191D01*
X92078024Y-96653048D01*
X92017548Y-96774000D01*
X91957071Y-96834476D01*
X91957071Y-95504000D02*
X92017548Y-95443524D01*
X92078024Y-95504000D01*
X92017548Y-95564476D01*
X91957071Y-95504000D01*
X92078024Y-95504000D01*
X92078024Y-94234000D02*
X92078024Y-94959714D01*
X92078024Y-94596857D02*
X90808024Y-94596857D01*
X90989452Y-94717809D01*
X91110405Y-94838762D01*
X91170881Y-94959714D01*
X89538024Y-97983524D02*
X88268024Y-97983524D01*
X88268024Y-97499715D01*
X88328500Y-97378762D01*
X88388976Y-97318286D01*
X88509929Y-97257810D01*
X88691357Y-97257810D01*
X88812310Y-97318286D01*
X88872786Y-97378762D01*
X88933262Y-97499715D01*
X88933262Y-97983524D01*
X88268024Y-96834476D02*
X88268024Y-96048286D01*
X88751833Y-96471619D01*
X88751833Y-96290191D01*
X88812310Y-96169238D01*
X88872786Y-96108762D01*
X88993738Y-96048286D01*
X89296119Y-96048286D01*
X89417071Y-96108762D01*
X89477548Y-96169238D01*
X89538024Y-96290191D01*
X89538024Y-96653048D01*
X89477548Y-96774000D01*
X89417071Y-96834476D01*
X89417071Y-95504000D02*
X89477548Y-95443524D01*
X89538024Y-95504000D01*
X89477548Y-95564476D01*
X89417071Y-95504000D01*
X89538024Y-95504000D01*
X88268024Y-94657333D02*
X88268024Y-94536381D01*
X88328500Y-94415429D01*
X88388976Y-94354952D01*
X88509929Y-94294476D01*
X88751833Y-94234000D01*
X89054214Y-94234000D01*
X89296119Y-94294476D01*
X89417071Y-94354952D01*
X89477548Y-94415429D01*
X89538024Y-94536381D01*
X89538024Y-94657333D01*
X89477548Y-94778286D01*
X89417071Y-94838762D01*
X89296119Y-94899238D01*
X89054214Y-94959714D01*
X88751833Y-94959714D01*
X88509929Y-94899238D01*
X88388976Y-94838762D01*
X88328500Y-94778286D01*
X88268024Y-94657333D01*
X84458024Y-97983524D02*
X83188024Y-97983524D01*
X83188024Y-97499715D01*
X83248500Y-97378762D01*
X83308976Y-97318286D01*
X83429929Y-97257810D01*
X83611357Y-97257810D01*
X83732310Y-97318286D01*
X83792786Y-97378762D01*
X83853262Y-97499715D01*
X83853262Y-97983524D01*
X84458024Y-96048286D02*
X84458024Y-96774000D01*
X84458024Y-96411143D02*
X83188024Y-96411143D01*
X83369452Y-96532095D01*
X83490405Y-96653048D01*
X83550881Y-96774000D01*
X84337071Y-95504000D02*
X84397548Y-95443524D01*
X84458024Y-95504000D01*
X84397548Y-95564476D01*
X84337071Y-95504000D01*
X84458024Y-95504000D01*
X83188024Y-95020190D02*
X83188024Y-94173524D01*
X84458024Y-94717809D01*
X81918024Y-97983524D02*
X80648024Y-97983524D01*
X80648024Y-97499715D01*
X80708500Y-97378762D01*
X80768976Y-97318286D01*
X80889929Y-97257810D01*
X81071357Y-97257810D01*
X81192310Y-97318286D01*
X81252786Y-97378762D01*
X81313262Y-97499715D01*
X81313262Y-97983524D01*
X81918024Y-96048286D02*
X81918024Y-96774000D01*
X81918024Y-96411143D02*
X80648024Y-96411143D01*
X80829452Y-96532095D01*
X80950405Y-96653048D01*
X81010881Y-96774000D01*
X81797071Y-95504000D02*
X81857548Y-95443524D01*
X81918024Y-95504000D01*
X81857548Y-95564476D01*
X81797071Y-95504000D01*
X81918024Y-95504000D01*
X80648024Y-94354952D02*
X80648024Y-94596857D01*
X80708500Y-94717809D01*
X80768976Y-94778286D01*
X80950405Y-94899238D01*
X81192310Y-94959714D01*
X81676119Y-94959714D01*
X81797071Y-94899238D01*
X81857548Y-94838762D01*
X81918024Y-94717809D01*
X81918024Y-94475905D01*
X81857548Y-94354952D01*
X81797071Y-94294476D01*
X81676119Y-94234000D01*
X81373738Y-94234000D01*
X81252786Y-94294476D01*
X81192310Y-94354952D01*
X81131833Y-94475905D01*
X81131833Y-94717809D01*
X81192310Y-94838762D01*
X81252786Y-94899238D01*
X81373738Y-94959714D01*
X79378024Y-97983524D02*
X78108024Y-97983524D01*
X78108024Y-97499715D01*
X78168500Y-97378762D01*
X78228976Y-97318286D01*
X78349929Y-97257810D01*
X78531357Y-97257810D01*
X78652310Y-97318286D01*
X78712786Y-97378762D01*
X78773262Y-97499715D01*
X78773262Y-97983524D01*
X79378024Y-96048286D02*
X79378024Y-96774000D01*
X79378024Y-96411143D02*
X78108024Y-96411143D01*
X78289452Y-96532095D01*
X78410405Y-96653048D01*
X78470881Y-96774000D01*
X79257071Y-95504000D02*
X79317548Y-95443524D01*
X79378024Y-95504000D01*
X79317548Y-95564476D01*
X79257071Y-95504000D01*
X79378024Y-95504000D01*
X78108024Y-94294476D02*
X78108024Y-94899238D01*
X78712786Y-94959714D01*
X78652310Y-94899238D01*
X78591833Y-94778286D01*
X78591833Y-94475905D01*
X78652310Y-94354952D01*
X78712786Y-94294476D01*
X78833738Y-94234000D01*
X79136119Y-94234000D01*
X79257071Y-94294476D01*
X79317548Y-94354952D01*
X79378024Y-94475905D01*
X79378024Y-94778286D01*
X79317548Y-94899238D01*
X79257071Y-94959714D01*
X76838024Y-97983524D02*
X75568024Y-97983524D01*
X75568024Y-97499715D01*
X75628500Y-97378762D01*
X75688976Y-97318286D01*
X75809929Y-97257810D01*
X75991357Y-97257810D01*
X76112310Y-97318286D01*
X76172786Y-97378762D01*
X76233262Y-97499715D01*
X76233262Y-97983524D01*
X76838024Y-96048286D02*
X76838024Y-96774000D01*
X76838024Y-96411143D02*
X75568024Y-96411143D01*
X75749452Y-96532095D01*
X75870405Y-96653048D01*
X75930881Y-96774000D01*
X76717071Y-95504000D02*
X76777548Y-95443524D01*
X76838024Y-95504000D01*
X76777548Y-95564476D01*
X76717071Y-95504000D01*
X76838024Y-95504000D01*
X75991357Y-94354952D02*
X76838024Y-94354952D01*
X75507548Y-94657333D02*
X76414690Y-94959714D01*
X76414690Y-94173524D01*
X74298024Y-97983524D02*
X73028024Y-97983524D01*
X73028024Y-97499715D01*
X73088500Y-97378762D01*
X73148976Y-97318286D01*
X73269929Y-97257810D01*
X73451357Y-97257810D01*
X73572310Y-97318286D01*
X73632786Y-97378762D01*
X73693262Y-97499715D01*
X73693262Y-97983524D01*
X74298024Y-96048286D02*
X74298024Y-96774000D01*
X74298024Y-96411143D02*
X73028024Y-96411143D01*
X73209452Y-96532095D01*
X73330405Y-96653048D01*
X73390881Y-96774000D01*
X74177071Y-95504000D02*
X74237548Y-95443524D01*
X74298024Y-95504000D01*
X74237548Y-95564476D01*
X74177071Y-95504000D01*
X74298024Y-95504000D01*
X73028024Y-95020190D02*
X73028024Y-94234000D01*
X73511833Y-94657333D01*
X73511833Y-94475905D01*
X73572310Y-94354952D01*
X73632786Y-94294476D01*
X73753738Y-94234000D01*
X74056119Y-94234000D01*
X74177071Y-94294476D01*
X74237548Y-94354952D01*
X74298024Y-94475905D01*
X74298024Y-94838762D01*
X74237548Y-94959714D01*
X74177071Y-95020190D01*
X71758024Y-97983524D02*
X70488024Y-97983524D01*
X70488024Y-97499715D01*
X70548500Y-97378762D01*
X70608976Y-97318286D01*
X70729929Y-97257810D01*
X70911357Y-97257810D01*
X71032310Y-97318286D01*
X71092786Y-97378762D01*
X71153262Y-97499715D01*
X71153262Y-97983524D01*
X71758024Y-96048286D02*
X71758024Y-96774000D01*
X71758024Y-96411143D02*
X70488024Y-96411143D01*
X70669452Y-96532095D01*
X70790405Y-96653048D01*
X70850881Y-96774000D01*
X71637071Y-95504000D02*
X71697548Y-95443524D01*
X71758024Y-95504000D01*
X71697548Y-95564476D01*
X71637071Y-95504000D01*
X71758024Y-95504000D01*
X70608976Y-94959714D02*
X70548500Y-94899238D01*
X70488024Y-94778286D01*
X70488024Y-94475905D01*
X70548500Y-94354952D01*
X70608976Y-94294476D01*
X70729929Y-94234000D01*
X70850881Y-94234000D01*
X71032310Y-94294476D01*
X71758024Y-95020190D01*
X71758024Y-94234000D01*
X69218024Y-97983524D02*
X67948024Y-97983524D01*
X67948024Y-97499715D01*
X68008500Y-97378762D01*
X68068976Y-97318286D01*
X68189929Y-97257810D01*
X68371357Y-97257810D01*
X68492310Y-97318286D01*
X68552786Y-97378762D01*
X68613262Y-97499715D01*
X68613262Y-97983524D01*
X69218024Y-96048286D02*
X69218024Y-96774000D01*
X69218024Y-96411143D02*
X67948024Y-96411143D01*
X68129452Y-96532095D01*
X68250405Y-96653048D01*
X68310881Y-96774000D01*
X69097071Y-95504000D02*
X69157548Y-95443524D01*
X69218024Y-95504000D01*
X69157548Y-95564476D01*
X69097071Y-95504000D01*
X69218024Y-95504000D01*
X69218024Y-94234000D02*
X69218024Y-94959714D01*
X69218024Y-94596857D02*
X67948024Y-94596857D01*
X68129452Y-94717809D01*
X68250405Y-94838762D01*
X68310881Y-94959714D01*
X66678024Y-97983524D02*
X65408024Y-97983524D01*
X65408024Y-97499715D01*
X65468500Y-97378762D01*
X65528976Y-97318286D01*
X65649929Y-97257810D01*
X65831357Y-97257810D01*
X65952310Y-97318286D01*
X66012786Y-97378762D01*
X66073262Y-97499715D01*
X66073262Y-97983524D01*
X66678024Y-96048286D02*
X66678024Y-96774000D01*
X66678024Y-96411143D02*
X65408024Y-96411143D01*
X65589452Y-96532095D01*
X65710405Y-96653048D01*
X65770881Y-96774000D01*
X66557071Y-95504000D02*
X66617548Y-95443524D01*
X66678024Y-95504000D01*
X66617548Y-95564476D01*
X66557071Y-95504000D01*
X66678024Y-95504000D01*
X65408024Y-94657333D02*
X65408024Y-94536381D01*
X65468500Y-94415429D01*
X65528976Y-94354952D01*
X65649929Y-94294476D01*
X65891833Y-94234000D01*
X66194214Y-94234000D01*
X66436119Y-94294476D01*
X66557071Y-94354952D01*
X66617548Y-94415429D01*
X66678024Y-94536381D01*
X66678024Y-94657333D01*
X66617548Y-94778286D01*
X66557071Y-94838762D01*
X66436119Y-94899238D01*
X66194214Y-94959714D01*
X65891833Y-94959714D01*
X65649929Y-94899238D01*
X65528976Y-94838762D01*
X65468500Y-94778286D01*
X65408024Y-94657333D01*
X107572024Y-39563524D02*
X106302024Y-39563524D01*
X106302024Y-39079715D01*
X106362500Y-38958762D01*
X106422976Y-38898286D01*
X106543929Y-38837810D01*
X106725357Y-38837810D01*
X106846310Y-38898286D01*
X106906786Y-38958762D01*
X106967262Y-39079715D01*
X106967262Y-39563524D01*
X106422976Y-38354000D02*
X106362500Y-38293524D01*
X106302024Y-38172572D01*
X106302024Y-37870191D01*
X106362500Y-37749238D01*
X106422976Y-37688762D01*
X106543929Y-37628286D01*
X106664881Y-37628286D01*
X106846310Y-37688762D01*
X107572024Y-38414476D01*
X107572024Y-37628286D01*
X107451071Y-37084000D02*
X107511548Y-37023524D01*
X107572024Y-37084000D01*
X107511548Y-37144476D01*
X107451071Y-37084000D01*
X107572024Y-37084000D01*
X106302024Y-36237333D02*
X106302024Y-36116381D01*
X106362500Y-35995429D01*
X106422976Y-35934952D01*
X106543929Y-35874476D01*
X106785833Y-35814000D01*
X107088214Y-35814000D01*
X107330119Y-35874476D01*
X107451071Y-35934952D01*
X107511548Y-35995429D01*
X107572024Y-36116381D01*
X107572024Y-36237333D01*
X107511548Y-36358286D01*
X107451071Y-36418762D01*
X107330119Y-36479238D01*
X107088214Y-36539714D01*
X106785833Y-36539714D01*
X106543929Y-36479238D01*
X106422976Y-36418762D01*
X106362500Y-36358286D01*
X106302024Y-36237333D01*
X104778024Y-39563524D02*
X103508024Y-39563524D01*
X103508024Y-39079715D01*
X103568500Y-38958762D01*
X103628976Y-38898286D01*
X103749929Y-38837810D01*
X103931357Y-38837810D01*
X104052310Y-38898286D01*
X104112786Y-38958762D01*
X104173262Y-39079715D01*
X104173262Y-39563524D01*
X103628976Y-38354000D02*
X103568500Y-38293524D01*
X103508024Y-38172572D01*
X103508024Y-37870191D01*
X103568500Y-37749238D01*
X103628976Y-37688762D01*
X103749929Y-37628286D01*
X103870881Y-37628286D01*
X104052310Y-37688762D01*
X104778024Y-38414476D01*
X104778024Y-37628286D01*
X104657071Y-37084000D02*
X104717548Y-37023524D01*
X104778024Y-37084000D01*
X104717548Y-37144476D01*
X104657071Y-37084000D01*
X104778024Y-37084000D01*
X104778024Y-35814000D02*
X104778024Y-36539714D01*
X104778024Y-36176857D02*
X103508024Y-36176857D01*
X103689452Y-36297809D01*
X103810405Y-36418762D01*
X103870881Y-36539714D01*
X102238024Y-39563524D02*
X100968024Y-39563524D01*
X100968024Y-39079715D01*
X101028500Y-38958762D01*
X101088976Y-38898286D01*
X101209929Y-38837810D01*
X101391357Y-38837810D01*
X101512310Y-38898286D01*
X101572786Y-38958762D01*
X101633262Y-39079715D01*
X101633262Y-39563524D01*
X101088976Y-38354000D02*
X101028500Y-38293524D01*
X100968024Y-38172572D01*
X100968024Y-37870191D01*
X101028500Y-37749238D01*
X101088976Y-37688762D01*
X101209929Y-37628286D01*
X101330881Y-37628286D01*
X101512310Y-37688762D01*
X102238024Y-38414476D01*
X102238024Y-37628286D01*
X102117071Y-37084000D02*
X102177548Y-37023524D01*
X102238024Y-37084000D01*
X102177548Y-37144476D01*
X102117071Y-37084000D01*
X102238024Y-37084000D01*
X101088976Y-36539714D02*
X101028500Y-36479238D01*
X100968024Y-36358286D01*
X100968024Y-36055905D01*
X101028500Y-35934952D01*
X101088976Y-35874476D01*
X101209929Y-35814000D01*
X101330881Y-35814000D01*
X101512310Y-35874476D01*
X102238024Y-36600190D01*
X102238024Y-35814000D01*
X99698024Y-39563524D02*
X98428024Y-39563524D01*
X98428024Y-39079715D01*
X98488500Y-38958762D01*
X98548976Y-38898286D01*
X98669929Y-38837810D01*
X98851357Y-38837810D01*
X98972310Y-38898286D01*
X99032786Y-38958762D01*
X99093262Y-39079715D01*
X99093262Y-39563524D01*
X98548976Y-38354000D02*
X98488500Y-38293524D01*
X98428024Y-38172572D01*
X98428024Y-37870191D01*
X98488500Y-37749238D01*
X98548976Y-37688762D01*
X98669929Y-37628286D01*
X98790881Y-37628286D01*
X98972310Y-37688762D01*
X99698024Y-38414476D01*
X99698024Y-37628286D01*
X99577071Y-37084000D02*
X99637548Y-37023524D01*
X99698024Y-37084000D01*
X99637548Y-37144476D01*
X99577071Y-37084000D01*
X99698024Y-37084000D01*
X98428024Y-36600190D02*
X98428024Y-35814000D01*
X98911833Y-36237333D01*
X98911833Y-36055905D01*
X98972310Y-35934952D01*
X99032786Y-35874476D01*
X99153738Y-35814000D01*
X99456119Y-35814000D01*
X99577071Y-35874476D01*
X99637548Y-35934952D01*
X99698024Y-36055905D01*
X99698024Y-36418762D01*
X99637548Y-36539714D01*
X99577071Y-36600190D01*
X97158024Y-39563524D02*
X95888024Y-39563524D01*
X95888024Y-39079715D01*
X95948500Y-38958762D01*
X96008976Y-38898286D01*
X96129929Y-38837810D01*
X96311357Y-38837810D01*
X96432310Y-38898286D01*
X96492786Y-38958762D01*
X96553262Y-39079715D01*
X96553262Y-39563524D01*
X96008976Y-38354000D02*
X95948500Y-38293524D01*
X95888024Y-38172572D01*
X95888024Y-37870191D01*
X95948500Y-37749238D01*
X96008976Y-37688762D01*
X96129929Y-37628286D01*
X96250881Y-37628286D01*
X96432310Y-37688762D01*
X97158024Y-38414476D01*
X97158024Y-37628286D01*
X97037071Y-37084000D02*
X97097548Y-37023524D01*
X97158024Y-37084000D01*
X97097548Y-37144476D01*
X97037071Y-37084000D01*
X97158024Y-37084000D01*
X96311357Y-35934952D02*
X97158024Y-35934952D01*
X95827548Y-36237333D02*
X96734690Y-36539714D01*
X96734690Y-35753524D01*
X94618024Y-39563524D02*
X93348024Y-39563524D01*
X93348024Y-39079715D01*
X93408500Y-38958762D01*
X93468976Y-38898286D01*
X93589929Y-38837810D01*
X93771357Y-38837810D01*
X93892310Y-38898286D01*
X93952786Y-38958762D01*
X94013262Y-39079715D01*
X94013262Y-39563524D01*
X93468976Y-38354000D02*
X93408500Y-38293524D01*
X93348024Y-38172572D01*
X93348024Y-37870191D01*
X93408500Y-37749238D01*
X93468976Y-37688762D01*
X93589929Y-37628286D01*
X93710881Y-37628286D01*
X93892310Y-37688762D01*
X94618024Y-38414476D01*
X94618024Y-37628286D01*
X94497071Y-37084000D02*
X94557548Y-37023524D01*
X94618024Y-37084000D01*
X94557548Y-37144476D01*
X94497071Y-37084000D01*
X94618024Y-37084000D01*
X93348024Y-35874476D02*
X93348024Y-36479238D01*
X93952786Y-36539714D01*
X93892310Y-36479238D01*
X93831833Y-36358286D01*
X93831833Y-36055905D01*
X93892310Y-35934952D01*
X93952786Y-35874476D01*
X94073738Y-35814000D01*
X94376119Y-35814000D01*
X94497071Y-35874476D01*
X94557548Y-35934952D01*
X94618024Y-36055905D01*
X94618024Y-36358286D01*
X94557548Y-36479238D01*
X94497071Y-36539714D01*
X89538024Y-39563524D02*
X88268024Y-39563524D01*
X88268024Y-39079715D01*
X88328500Y-38958762D01*
X88388976Y-38898286D01*
X88509929Y-38837810D01*
X88691357Y-38837810D01*
X88812310Y-38898286D01*
X88872786Y-38958762D01*
X88933262Y-39079715D01*
X88933262Y-39563524D01*
X88388976Y-38354000D02*
X88328500Y-38293524D01*
X88268024Y-38172572D01*
X88268024Y-37870191D01*
X88328500Y-37749238D01*
X88388976Y-37688762D01*
X88509929Y-37628286D01*
X88630881Y-37628286D01*
X88812310Y-37688762D01*
X89538024Y-38414476D01*
X89538024Y-37628286D01*
X89417071Y-37084000D02*
X89477548Y-37023524D01*
X89538024Y-37084000D01*
X89477548Y-37144476D01*
X89417071Y-37084000D01*
X89538024Y-37084000D01*
X88268024Y-36600190D02*
X88268024Y-35753524D01*
X89538024Y-36297809D01*
X92078024Y-39563524D02*
X90808024Y-39563524D01*
X90808024Y-39079715D01*
X90868500Y-38958762D01*
X90928976Y-38898286D01*
X91049929Y-38837810D01*
X91231357Y-38837810D01*
X91352310Y-38898286D01*
X91412786Y-38958762D01*
X91473262Y-39079715D01*
X91473262Y-39563524D01*
X90928976Y-38354000D02*
X90868500Y-38293524D01*
X90808024Y-38172572D01*
X90808024Y-37870191D01*
X90868500Y-37749238D01*
X90928976Y-37688762D01*
X91049929Y-37628286D01*
X91170881Y-37628286D01*
X91352310Y-37688762D01*
X92078024Y-38414476D01*
X92078024Y-37628286D01*
X91957071Y-37084000D02*
X92017548Y-37023524D01*
X92078024Y-37084000D01*
X92017548Y-37144476D01*
X91957071Y-37084000D01*
X92078024Y-37084000D01*
X90808024Y-35934952D02*
X90808024Y-36176857D01*
X90868500Y-36297809D01*
X90928976Y-36358286D01*
X91110405Y-36479238D01*
X91352310Y-36539714D01*
X91836119Y-36539714D01*
X91957071Y-36479238D01*
X92017548Y-36418762D01*
X92078024Y-36297809D01*
X92078024Y-36055905D01*
X92017548Y-35934952D01*
X91957071Y-35874476D01*
X91836119Y-35814000D01*
X91533738Y-35814000D01*
X91412786Y-35874476D01*
X91352310Y-35934952D01*
X91291833Y-36055905D01*
X91291833Y-36297809D01*
X91352310Y-36418762D01*
X91412786Y-36479238D01*
X91533738Y-36539714D01*
D12*
X84712024Y-39563524D02*
X83442024Y-39563524D01*
X83442024Y-39079715D01*
X83502500Y-38958762D01*
X83562976Y-38898286D01*
X83683929Y-38837810D01*
X83865357Y-38837810D01*
X83986310Y-38898286D01*
X84046786Y-38958762D01*
X84107262Y-39079715D01*
X84107262Y-39563524D01*
X83442024Y-38051619D02*
X83442024Y-37930667D01*
X83502500Y-37809715D01*
X83562976Y-37749238D01*
X83683929Y-37688762D01*
X83925833Y-37628286D01*
X84228214Y-37628286D01*
X84470119Y-37688762D01*
X84591071Y-37749238D01*
X84651548Y-37809715D01*
X84712024Y-37930667D01*
X84712024Y-38051619D01*
X84651548Y-38172572D01*
X84591071Y-38233048D01*
X84470119Y-38293524D01*
X84228214Y-38354000D01*
X83925833Y-38354000D01*
X83683929Y-38293524D01*
X83562976Y-38233048D01*
X83502500Y-38172572D01*
X83442024Y-38051619D01*
X84591071Y-37084000D02*
X84651548Y-37023524D01*
X84712024Y-37084000D01*
X84651548Y-37144476D01*
X84591071Y-37084000D01*
X84712024Y-37084000D01*
X83442024Y-36600190D02*
X83442024Y-35753524D01*
X84712024Y-36297809D01*
X81918024Y-39563524D02*
X80648024Y-39563524D01*
X80648024Y-39079715D01*
X80708500Y-38958762D01*
X80768976Y-38898286D01*
X80889929Y-38837810D01*
X81071357Y-38837810D01*
X81192310Y-38898286D01*
X81252786Y-38958762D01*
X81313262Y-39079715D01*
X81313262Y-39563524D01*
X80648024Y-38051619D02*
X80648024Y-37930667D01*
X80708500Y-37809715D01*
X80768976Y-37749238D01*
X80889929Y-37688762D01*
X81131833Y-37628286D01*
X81434214Y-37628286D01*
X81676119Y-37688762D01*
X81797071Y-37749238D01*
X81857548Y-37809715D01*
X81918024Y-37930667D01*
X81918024Y-38051619D01*
X81857548Y-38172572D01*
X81797071Y-38233048D01*
X81676119Y-38293524D01*
X81434214Y-38354000D01*
X81131833Y-38354000D01*
X80889929Y-38293524D01*
X80768976Y-38233048D01*
X80708500Y-38172572D01*
X80648024Y-38051619D01*
X81797071Y-37084000D02*
X81857548Y-37023524D01*
X81918024Y-37084000D01*
X81857548Y-37144476D01*
X81797071Y-37084000D01*
X81918024Y-37084000D01*
X80648024Y-35934952D02*
X80648024Y-36176857D01*
X80708500Y-36297809D01*
X80768976Y-36358286D01*
X80950405Y-36479238D01*
X81192310Y-36539714D01*
X81676119Y-36539714D01*
X81797071Y-36479238D01*
X81857548Y-36418762D01*
X81918024Y-36297809D01*
X81918024Y-36055905D01*
X81857548Y-35934952D01*
X81797071Y-35874476D01*
X81676119Y-35814000D01*
X81373738Y-35814000D01*
X81252786Y-35874476D01*
X81192310Y-35934952D01*
X81131833Y-36055905D01*
X81131833Y-36297809D01*
X81192310Y-36418762D01*
X81252786Y-36479238D01*
X81373738Y-36539714D01*
X79378024Y-39563524D02*
X78108024Y-39563524D01*
X78108024Y-39079715D01*
X78168500Y-38958762D01*
X78228976Y-38898286D01*
X78349929Y-38837810D01*
X78531357Y-38837810D01*
X78652310Y-38898286D01*
X78712786Y-38958762D01*
X78773262Y-39079715D01*
X78773262Y-39563524D01*
X78108024Y-38051619D02*
X78108024Y-37930667D01*
X78168500Y-37809715D01*
X78228976Y-37749238D01*
X78349929Y-37688762D01*
X78591833Y-37628286D01*
X78894214Y-37628286D01*
X79136119Y-37688762D01*
X79257071Y-37749238D01*
X79317548Y-37809715D01*
X79378024Y-37930667D01*
X79378024Y-38051619D01*
X79317548Y-38172572D01*
X79257071Y-38233048D01*
X79136119Y-38293524D01*
X78894214Y-38354000D01*
X78591833Y-38354000D01*
X78349929Y-38293524D01*
X78228976Y-38233048D01*
X78168500Y-38172572D01*
X78108024Y-38051619D01*
X79257071Y-37084000D02*
X79317548Y-37023524D01*
X79378024Y-37084000D01*
X79317548Y-37144476D01*
X79257071Y-37084000D01*
X79378024Y-37084000D01*
X78108024Y-35874476D02*
X78108024Y-36479238D01*
X78712786Y-36539714D01*
X78652310Y-36479238D01*
X78591833Y-36358286D01*
X78591833Y-36055905D01*
X78652310Y-35934952D01*
X78712786Y-35874476D01*
X78833738Y-35814000D01*
X79136119Y-35814000D01*
X79257071Y-35874476D01*
X79317548Y-35934952D01*
X79378024Y-36055905D01*
X79378024Y-36358286D01*
X79317548Y-36479238D01*
X79257071Y-36539714D01*
X76838024Y-39563524D02*
X75568024Y-39563524D01*
X75568024Y-39079715D01*
X75628500Y-38958762D01*
X75688976Y-38898286D01*
X75809929Y-38837810D01*
X75991357Y-38837810D01*
X76112310Y-38898286D01*
X76172786Y-38958762D01*
X76233262Y-39079715D01*
X76233262Y-39563524D01*
X75568024Y-38051619D02*
X75568024Y-37930667D01*
X75628500Y-37809715D01*
X75688976Y-37749238D01*
X75809929Y-37688762D01*
X76051833Y-37628286D01*
X76354214Y-37628286D01*
X76596119Y-37688762D01*
X76717071Y-37749238D01*
X76777548Y-37809715D01*
X76838024Y-37930667D01*
X76838024Y-38051619D01*
X76777548Y-38172572D01*
X76717071Y-38233048D01*
X76596119Y-38293524D01*
X76354214Y-38354000D01*
X76051833Y-38354000D01*
X75809929Y-38293524D01*
X75688976Y-38233048D01*
X75628500Y-38172572D01*
X75568024Y-38051619D01*
X76717071Y-37084000D02*
X76777548Y-37023524D01*
X76838024Y-37084000D01*
X76777548Y-37144476D01*
X76717071Y-37084000D01*
X76838024Y-37084000D01*
X75991357Y-35934952D02*
X76838024Y-35934952D01*
X75507548Y-36237333D02*
X76414690Y-36539714D01*
X76414690Y-35753524D01*
X74298024Y-39563524D02*
X73028024Y-39563524D01*
X73028024Y-39079715D01*
X73088500Y-38958762D01*
X73148976Y-38898286D01*
X73269929Y-38837810D01*
X73451357Y-38837810D01*
X73572310Y-38898286D01*
X73632786Y-38958762D01*
X73693262Y-39079715D01*
X73693262Y-39563524D01*
X73028024Y-38051619D02*
X73028024Y-37930667D01*
X73088500Y-37809715D01*
X73148976Y-37749238D01*
X73269929Y-37688762D01*
X73511833Y-37628286D01*
X73814214Y-37628286D01*
X74056119Y-37688762D01*
X74177071Y-37749238D01*
X74237548Y-37809715D01*
X74298024Y-37930667D01*
X74298024Y-38051619D01*
X74237548Y-38172572D01*
X74177071Y-38233048D01*
X74056119Y-38293524D01*
X73814214Y-38354000D01*
X73511833Y-38354000D01*
X73269929Y-38293524D01*
X73148976Y-38233048D01*
X73088500Y-38172572D01*
X73028024Y-38051619D01*
X74177071Y-37084000D02*
X74237548Y-37023524D01*
X74298024Y-37084000D01*
X74237548Y-37144476D01*
X74177071Y-37084000D01*
X74298024Y-37084000D01*
X73028024Y-36600190D02*
X73028024Y-35814000D01*
X73511833Y-36237333D01*
X73511833Y-36055905D01*
X73572310Y-35934952D01*
X73632786Y-35874476D01*
X73753738Y-35814000D01*
X74056119Y-35814000D01*
X74177071Y-35874476D01*
X74237548Y-35934952D01*
X74298024Y-36055905D01*
X74298024Y-36418762D01*
X74237548Y-36539714D01*
X74177071Y-36600190D01*
X71504024Y-39563524D02*
X70234024Y-39563524D01*
X70234024Y-39079715D01*
X70294500Y-38958762D01*
X70354976Y-38898286D01*
X70475929Y-38837810D01*
X70657357Y-38837810D01*
X70778310Y-38898286D01*
X70838786Y-38958762D01*
X70899262Y-39079715D01*
X70899262Y-39563524D01*
X70234024Y-38051619D02*
X70234024Y-37930667D01*
X70294500Y-37809715D01*
X70354976Y-37749238D01*
X70475929Y-37688762D01*
X70717833Y-37628286D01*
X71020214Y-37628286D01*
X71262119Y-37688762D01*
X71383071Y-37749238D01*
X71443548Y-37809715D01*
X71504024Y-37930667D01*
X71504024Y-38051619D01*
X71443548Y-38172572D01*
X71383071Y-38233048D01*
X71262119Y-38293524D01*
X71020214Y-38354000D01*
X70717833Y-38354000D01*
X70475929Y-38293524D01*
X70354976Y-38233048D01*
X70294500Y-38172572D01*
X70234024Y-38051619D01*
X71383071Y-37084000D02*
X71443548Y-37023524D01*
X71504024Y-37084000D01*
X71443548Y-37144476D01*
X71383071Y-37084000D01*
X71504024Y-37084000D01*
X70354976Y-36539714D02*
X70294500Y-36479238D01*
X70234024Y-36358286D01*
X70234024Y-36055905D01*
X70294500Y-35934952D01*
X70354976Y-35874476D01*
X70475929Y-35814000D01*
X70596881Y-35814000D01*
X70778310Y-35874476D01*
X71504024Y-36600190D01*
X71504024Y-35814000D01*
X69218024Y-39563524D02*
X67948024Y-39563524D01*
X67948024Y-39079715D01*
X68008500Y-38958762D01*
X68068976Y-38898286D01*
X68189929Y-38837810D01*
X68371357Y-38837810D01*
X68492310Y-38898286D01*
X68552786Y-38958762D01*
X68613262Y-39079715D01*
X68613262Y-39563524D01*
X67948024Y-38051619D02*
X67948024Y-37930667D01*
X68008500Y-37809715D01*
X68068976Y-37749238D01*
X68189929Y-37688762D01*
X68431833Y-37628286D01*
X68734214Y-37628286D01*
X68976119Y-37688762D01*
X69097071Y-37749238D01*
X69157548Y-37809715D01*
X69218024Y-37930667D01*
X69218024Y-38051619D01*
X69157548Y-38172572D01*
X69097071Y-38233048D01*
X68976119Y-38293524D01*
X68734214Y-38354000D01*
X68431833Y-38354000D01*
X68189929Y-38293524D01*
X68068976Y-38233048D01*
X68008500Y-38172572D01*
X67948024Y-38051619D01*
X69097071Y-37084000D02*
X69157548Y-37023524D01*
X69218024Y-37084000D01*
X69157548Y-37144476D01*
X69097071Y-37084000D01*
X69218024Y-37084000D01*
X69218024Y-35814000D02*
X69218024Y-36539714D01*
X69218024Y-36176857D02*
X67948024Y-36176857D01*
X68129452Y-36297809D01*
X68250405Y-36418762D01*
X68310881Y-36539714D01*
X66424024Y-39563524D02*
X65154024Y-39563524D01*
X65154024Y-39079715D01*
X65214500Y-38958762D01*
X65274976Y-38898286D01*
X65395929Y-38837810D01*
X65577357Y-38837810D01*
X65698310Y-38898286D01*
X65758786Y-38958762D01*
X65819262Y-39079715D01*
X65819262Y-39563524D01*
X65154024Y-38051619D02*
X65154024Y-37930667D01*
X65214500Y-37809715D01*
X65274976Y-37749238D01*
X65395929Y-37688762D01*
X65637833Y-37628286D01*
X65940214Y-37628286D01*
X66182119Y-37688762D01*
X66303071Y-37749238D01*
X66363548Y-37809715D01*
X66424024Y-37930667D01*
X66424024Y-38051619D01*
X66363548Y-38172572D01*
X66303071Y-38233048D01*
X66182119Y-38293524D01*
X65940214Y-38354000D01*
X65637833Y-38354000D01*
X65395929Y-38293524D01*
X65274976Y-38233048D01*
X65214500Y-38172572D01*
X65154024Y-38051619D01*
X66303071Y-37084000D02*
X66363548Y-37023524D01*
X66424024Y-37084000D01*
X66363548Y-37144476D01*
X66303071Y-37084000D01*
X66424024Y-37084000D01*
X65154024Y-36237333D02*
X65154024Y-36116381D01*
X65214500Y-35995429D01*
X65274976Y-35934952D01*
X65395929Y-35874476D01*
X65637833Y-35814000D01*
X65940214Y-35814000D01*
X66182119Y-35874476D01*
X66303071Y-35934952D01*
X66363548Y-35995429D01*
X66424024Y-36116381D01*
X66424024Y-36237333D01*
X66363548Y-36358286D01*
X66303071Y-36418762D01*
X66182119Y-36479238D01*
X65940214Y-36539714D01*
X65637833Y-36539714D01*
X65395929Y-36479238D01*
X65274976Y-36418762D01*
X65214500Y-36358286D01*
X65154024Y-36237333D01*
D11*
X40843859Y-33801857D02*
X41343859Y-33801857D01*
X41558145Y-34587571D02*
X40843859Y-34587571D01*
X40843859Y-33087571D01*
X41558145Y-33087571D01*
X42058145Y-34587571D02*
X42843859Y-33587571D01*
X42058145Y-33587571D02*
X42843859Y-34587571D01*
X43415288Y-33587571D02*
X43415288Y-35087571D01*
X43415288Y-33659000D02*
X43558145Y-33587571D01*
X43843859Y-33587571D01*
X43986716Y-33659000D01*
X44058145Y-33730429D01*
X44129574Y-33873286D01*
X44129574Y-34301857D01*
X44058145Y-34444714D01*
X43986716Y-34516143D01*
X43843859Y-34587571D01*
X43558145Y-34587571D01*
X43415288Y-34516143D01*
X44986717Y-34587571D02*
X44843859Y-34516143D01*
X44772431Y-34373286D01*
X44772431Y-33087571D01*
X45772431Y-34587571D02*
X45629573Y-34516143D01*
X45558145Y-34444714D01*
X45486716Y-34301857D01*
X45486716Y-33873286D01*
X45558145Y-33730429D01*
X45629573Y-33659000D01*
X45772431Y-33587571D01*
X45986716Y-33587571D01*
X46129573Y-33659000D01*
X46201002Y-33730429D01*
X46272431Y-33873286D01*
X46272431Y-34301857D01*
X46201002Y-34444714D01*
X46129573Y-34516143D01*
X45986716Y-34587571D01*
X45772431Y-34587571D01*
X46915288Y-34587571D02*
X46915288Y-33587571D01*
X46915288Y-33873286D02*
X46986716Y-33730429D01*
X47058145Y-33659000D01*
X47201002Y-33587571D01*
X47343859Y-33587571D01*
X48415287Y-34516143D02*
X48272430Y-34587571D01*
X47986716Y-34587571D01*
X47843859Y-34516143D01*
X47772430Y-34373286D01*
X47772430Y-33801857D01*
X47843859Y-33659000D01*
X47986716Y-33587571D01*
X48272430Y-33587571D01*
X48415287Y-33659000D01*
X48486716Y-33801857D01*
X48486716Y-33944714D01*
X47772430Y-34087571D01*
X50201001Y-34516143D02*
X50415287Y-34587571D01*
X50772430Y-34587571D01*
X50915287Y-34516143D01*
X50986716Y-34444714D01*
X51058144Y-34301857D01*
X51058144Y-34159000D01*
X50986716Y-34016143D01*
X50915287Y-33944714D01*
X50772430Y-33873286D01*
X50486716Y-33801857D01*
X50343858Y-33730429D01*
X50272430Y-33659000D01*
X50201001Y-33516143D01*
X50201001Y-33373286D01*
X50272430Y-33230429D01*
X50343858Y-33159000D01*
X50486716Y-33087571D01*
X50843858Y-33087571D01*
X51058144Y-33159000D01*
X51486715Y-33587571D02*
X52058144Y-33587571D01*
X51701001Y-33087571D02*
X51701001Y-34373286D01*
X51772429Y-34516143D01*
X51915287Y-34587571D01*
X52058144Y-34587571D01*
X53201001Y-34587571D02*
X53201001Y-33801857D01*
X53129572Y-33659000D01*
X52986715Y-33587571D01*
X52701001Y-33587571D01*
X52558144Y-33659000D01*
X53201001Y-34516143D02*
X53058144Y-34587571D01*
X52701001Y-34587571D01*
X52558144Y-34516143D01*
X52486715Y-34373286D01*
X52486715Y-34230429D01*
X52558144Y-34087571D01*
X52701001Y-34016143D01*
X53058144Y-34016143D01*
X53201001Y-33944714D01*
X53915287Y-34587571D02*
X53915287Y-33587571D01*
X53915287Y-33873286D02*
X53986715Y-33730429D01*
X54058144Y-33659000D01*
X54201001Y-33587571D01*
X54343858Y-33587571D01*
X54629572Y-33587571D02*
X55201001Y-33587571D01*
X54843858Y-33087571D02*
X54843858Y-34373286D01*
X54915286Y-34516143D01*
X55058144Y-34587571D01*
X55201001Y-34587571D01*
X56272429Y-34516143D02*
X56129572Y-34587571D01*
X55843858Y-34587571D01*
X55701001Y-34516143D01*
X55629572Y-34373286D01*
X55629572Y-33801857D01*
X55701001Y-33659000D01*
X55843858Y-33587571D01*
X56129572Y-33587571D01*
X56272429Y-33659000D01*
X56343858Y-33801857D01*
X56343858Y-33944714D01*
X55629572Y-34087571D01*
X56986715Y-34587571D02*
X56986715Y-33587571D01*
X56986715Y-33873286D02*
X57058143Y-33730429D01*
X57129572Y-33659000D01*
X57272429Y-33587571D01*
X57415286Y-33587571D01*
X59272429Y-33730429D02*
X59129571Y-33659000D01*
X59058143Y-33587571D01*
X58986714Y-33444714D01*
X58986714Y-33373286D01*
X59058143Y-33230429D01*
X59129571Y-33159000D01*
X59272429Y-33087571D01*
X59558143Y-33087571D01*
X59701000Y-33159000D01*
X59772429Y-33230429D01*
X59843857Y-33373286D01*
X59843857Y-33444714D01*
X59772429Y-33587571D01*
X59701000Y-33659000D01*
X59558143Y-33730429D01*
X59272429Y-33730429D01*
X59129571Y-33801857D01*
X59058143Y-33873286D01*
X58986714Y-34016143D01*
X58986714Y-34301857D01*
X59058143Y-34444714D01*
X59129571Y-34516143D01*
X59272429Y-34587571D01*
X59558143Y-34587571D01*
X59701000Y-34516143D01*
X59772429Y-34444714D01*
X59843857Y-34301857D01*
X59843857Y-34016143D01*
X59772429Y-33873286D01*
X59701000Y-33801857D01*
X59558143Y-33730429D01*
X60772428Y-33087571D02*
X60915285Y-33087571D01*
X61058142Y-33159000D01*
X61129571Y-33230429D01*
X61201000Y-33373286D01*
X61272428Y-33659000D01*
X61272428Y-34016143D01*
X61201000Y-34301857D01*
X61129571Y-34444714D01*
X61058142Y-34516143D01*
X60915285Y-34587571D01*
X60772428Y-34587571D01*
X60629571Y-34516143D01*
X60558142Y-34444714D01*
X60486714Y-34301857D01*
X60415285Y-34016143D01*
X60415285Y-33659000D01*
X60486714Y-33373286D01*
X60558142Y-33230429D01*
X60629571Y-33159000D01*
X60772428Y-33087571D01*
X62629571Y-33087571D02*
X61915285Y-33087571D01*
X61843856Y-33801857D01*
X61915285Y-33730429D01*
X62058142Y-33659000D01*
X62415285Y-33659000D01*
X62558142Y-33730429D01*
X62629571Y-33801857D01*
X62700999Y-33944714D01*
X62700999Y-34301857D01*
X62629571Y-34444714D01*
X62558142Y-34516143D01*
X62415285Y-34587571D01*
X62058142Y-34587571D01*
X61915285Y-34516143D01*
X61843856Y-34444714D01*
X64129570Y-34587571D02*
X63272427Y-34587571D01*
X63700999Y-34587571D02*
X63700999Y-33087571D01*
X63558142Y-33301857D01*
X63415284Y-33444714D01*
X63272427Y-33516143D01*
D13*
X39593500Y-79194000D02*
X38958500Y-79829000D01*
X47213500Y-79194000D02*
X47848500Y-79829000D01*
X47213500Y-60144000D02*
X47848500Y-59509000D01*
X39593500Y-60144000D02*
X38958500Y-59509000D01*
X47848500Y-67764000D02*
X47213500Y-67764000D01*
X47213500Y-67764000D02*
X47213500Y-60144000D01*
X47213500Y-60144000D02*
X39593500Y-60144000D01*
X39593500Y-60144000D02*
X39593500Y-79194000D01*
X39593500Y-79194000D02*
X47213500Y-79194000D01*
X47213500Y-79194000D02*
X47213500Y-71574000D01*
X47213500Y-71574000D02*
X47848500Y-71574000D01*
X47848500Y-79829000D02*
X47848500Y-59509000D01*
X38958500Y-59509000D02*
X38958500Y-79829000D01*
X38958500Y-79829000D02*
X47848500Y-79829000D01*
X38958500Y-59509000D02*
X47848500Y-59509000D01*
X45372000Y-77167080D02*
X46441340Y-76468580D01*
X46441340Y-76468580D02*
X45372000Y-75767540D01*
X45372000Y-75767540D02*
X45372000Y-77167080D01*
X35176500Y-54495000D02*
X35176500Y-42303000D01*
X43685500Y-42303000D02*
X38605500Y-42303000D01*
X43685500Y-54495000D02*
X38605500Y-54495000D01*
X43685500Y-42303000D02*
X43685500Y-54495000D01*
X43741500Y-82351000D02*
X43741500Y-84256000D01*
X43741500Y-90987000D02*
X43741500Y-89082000D01*
X43741500Y-90987000D02*
X42725500Y-90987000D01*
X35232500Y-90987000D02*
X38026500Y-90987000D01*
X43741500Y-82351000D02*
X35232500Y-82351000D01*
X35232500Y-82351000D02*
X35232500Y-90987000D01*
X52588160Y-52832000D02*
X116088160Y-52832000D01*
X52087780Y-67330320D02*
X52087780Y-53329840D01*
X116088160Y-67830700D02*
X52588160Y-67830700D01*
X116588540Y-53329840D02*
X116588540Y-67330320D01*
X116586000Y-53329840D02*
G75*
G03X116088160Y-52832000I-497840J0D01*
G01*
X116088160Y-67830700D02*
G75*
G03X116588540Y-67330320I0J500380D01*
G01*
X52087780Y-67330320D02*
G75*
G03X52588160Y-67830700I500380J0D01*
G01*
X52588160Y-52829460D02*
G75*
G03X52087780Y-53329840I0J-500380D01*
G01*
X47787560Y-47731680D02*
X120987820Y-47731680D01*
X120987820Y-47731680D02*
X120987820Y-73131680D01*
X120987820Y-73131680D02*
X47787560Y-73131680D01*
X47787560Y-73131680D02*
X47787560Y-47731680D01*
X44386500Y-42331640D02*
X124386340Y-42331640D01*
X124386340Y-42331640D02*
X124386340Y-78331060D01*
X124386340Y-78331060D02*
X44386500Y-78331060D01*
X44386500Y-78331060D02*
X44386500Y-42331640D01*
X60769500Y-83439000D02*
X58737500Y-83439000D01*
X58356500Y-83566000D02*
X61150500Y-83566000D01*
X61404500Y-83693000D02*
X58102500Y-83693000D01*
X57848500Y-83820000D02*
X61658500Y-83820000D01*
X57721500Y-83947000D02*
X61785500Y-83947000D01*
X62039500Y-84074000D02*
X57467500Y-84074000D01*
X63944500Y-83058000D02*
X55562500Y-83058000D01*
X55562500Y-83058000D02*
X55562500Y-90678000D01*
X55562500Y-90678000D02*
X56324500Y-91440000D01*
X56324500Y-91440000D02*
X63182500Y-91440000D01*
X63182500Y-91440000D02*
X63944500Y-90678000D01*
X63944500Y-90678000D02*
X63944500Y-83058000D01*
X59753500Y-90932000D02*
X59753500Y-90170000D01*
X60134500Y-90551000D02*
X59372500Y-90551000D01*
X63690500Y-87249000D02*
G75*
G03X63690500Y-87249000I-3937000J0D01*
G01*
X44983500Y-97279000D02*
G75*
G03X44983500Y-97279000I-100000J0D01*
G01*
X45882560Y-98579940D02*
X45882560Y-98778060D01*
X45882560Y-98778060D02*
X45684440Y-98778060D01*
X45684440Y-98579940D02*
X45684440Y-98778060D01*
X45882560Y-98579940D02*
X45684440Y-98579940D01*
X46482000Y-99128580D02*
X46482000Y-99476560D01*
X46482000Y-99476560D02*
X46233080Y-99476560D01*
X46233080Y-99128580D02*
X46233080Y-99476560D01*
X46482000Y-99128580D02*
X46233080Y-99128580D01*
X46482000Y-99476560D02*
X46482000Y-99578160D01*
X46482000Y-99578160D02*
X45285660Y-99578160D01*
X45285660Y-99476560D02*
X45285660Y-99578160D01*
X46482000Y-99476560D02*
X45285660Y-99476560D01*
X45234860Y-99476560D02*
X45234860Y-99578160D01*
X45234860Y-99578160D02*
X45085000Y-99578160D01*
X45085000Y-99476560D02*
X45085000Y-99578160D01*
X45234860Y-99476560D02*
X45085000Y-99476560D01*
X46482000Y-97779840D02*
X46482000Y-97881440D01*
X46482000Y-97881440D02*
X45285660Y-97881440D01*
X45285660Y-97779840D02*
X45285660Y-97881440D01*
X46482000Y-97779840D02*
X45285660Y-97779840D01*
X45234860Y-97779840D02*
X45234860Y-97881440D01*
X45234860Y-97881440D02*
X45085000Y-97881440D01*
X45085000Y-97779840D02*
X45085000Y-97881440D01*
X45234860Y-97779840D02*
X45085000Y-97779840D01*
X46482000Y-99128580D02*
X46482000Y-99278440D01*
X46482000Y-99278440D02*
X46233080Y-99278440D01*
X46233080Y-99128580D02*
X46233080Y-99278440D01*
X46482000Y-99128580D02*
X46233080Y-99128580D01*
X46532800Y-100228400D02*
X46532800Y-97129600D01*
X46532800Y-97129600D02*
X45034200Y-97129600D01*
X45034200Y-97129600D02*
X45034200Y-100228400D01*
X45034200Y-100228400D02*
X46532800Y-100228400D01*
X46282854Y-98131738D02*
G75*
G02X46281340Y-99227640I-499354J-547262D01*
G01*
X45285102Y-98130867D02*
G75*
G02X46281340Y-98130360I498398J-548133D01*
G01*
X45284146Y-99226262D02*
G75*
G02X45285660Y-98130360I499354J547262D01*
G01*
X46281898Y-99227133D02*
G75*
G02X45285660Y-99227640I-498398J548133D01*
G01*
X98323500Y-86357000D02*
G75*
G03X98323500Y-86357000I-100000J0D01*
G01*
X99222560Y-87657940D02*
X99222560Y-87856060D01*
X99222560Y-87856060D02*
X99024440Y-87856060D01*
X99024440Y-87657940D02*
X99024440Y-87856060D01*
X99222560Y-87657940D02*
X99024440Y-87657940D01*
X99822000Y-88206580D02*
X99822000Y-88554560D01*
X99822000Y-88554560D02*
X99573080Y-88554560D01*
X99573080Y-88206580D02*
X99573080Y-88554560D01*
X99822000Y-88206580D02*
X99573080Y-88206580D01*
X99822000Y-88554560D02*
X99822000Y-88656160D01*
X99822000Y-88656160D02*
X98625660Y-88656160D01*
X98625660Y-88554560D02*
X98625660Y-88656160D01*
X99822000Y-88554560D02*
X98625660Y-88554560D01*
X98574860Y-88554560D02*
X98574860Y-88656160D01*
X98574860Y-88656160D02*
X98425000Y-88656160D01*
X98425000Y-88554560D02*
X98425000Y-88656160D01*
X98574860Y-88554560D02*
X98425000Y-88554560D01*
X99822000Y-86857840D02*
X99822000Y-86959440D01*
X99822000Y-86959440D02*
X98625660Y-86959440D01*
X98625660Y-86857840D02*
X98625660Y-86959440D01*
X99822000Y-86857840D02*
X98625660Y-86857840D01*
X98574860Y-86857840D02*
X98574860Y-86959440D01*
X98574860Y-86959440D02*
X98425000Y-86959440D01*
X98425000Y-86857840D02*
X98425000Y-86959440D01*
X98574860Y-86857840D02*
X98425000Y-86857840D01*
X99822000Y-88206580D02*
X99822000Y-88356440D01*
X99822000Y-88356440D02*
X99573080Y-88356440D01*
X99573080Y-88206580D02*
X99573080Y-88356440D01*
X99822000Y-88206580D02*
X99573080Y-88206580D01*
X99872800Y-89306400D02*
X99872800Y-86207600D01*
X99872800Y-86207600D02*
X98374200Y-86207600D01*
X98374200Y-86207600D02*
X98374200Y-89306400D01*
X98374200Y-89306400D02*
X99872800Y-89306400D01*
X99622854Y-87209738D02*
G75*
G02X99621340Y-88305640I-499354J-547262D01*
G01*
X98625102Y-87208867D02*
G75*
G02X99621340Y-87208360I498398J-548133D01*
G01*
X98624146Y-88304262D02*
G75*
G02X98625660Y-87208360I499354J547262D01*
G01*
X99621898Y-88305133D02*
G75*
G02X98625660Y-88305640I-498398J548133D01*
G01*
X100863500Y-86357000D02*
G75*
G03X100863500Y-86357000I-100000J0D01*
G01*
X101762560Y-87657940D02*
X101762560Y-87856060D01*
X101762560Y-87856060D02*
X101564440Y-87856060D01*
X101564440Y-87657940D02*
X101564440Y-87856060D01*
X101762560Y-87657940D02*
X101564440Y-87657940D01*
X102362000Y-88206580D02*
X102362000Y-88554560D01*
X102362000Y-88554560D02*
X102113080Y-88554560D01*
X102113080Y-88206580D02*
X102113080Y-88554560D01*
X102362000Y-88206580D02*
X102113080Y-88206580D01*
X102362000Y-88554560D02*
X102362000Y-88656160D01*
X102362000Y-88656160D02*
X101165660Y-88656160D01*
X101165660Y-88554560D02*
X101165660Y-88656160D01*
X102362000Y-88554560D02*
X101165660Y-88554560D01*
X101114860Y-88554560D02*
X101114860Y-88656160D01*
X101114860Y-88656160D02*
X100965000Y-88656160D01*
X100965000Y-88554560D02*
X100965000Y-88656160D01*
X101114860Y-88554560D02*
X100965000Y-88554560D01*
X102362000Y-86857840D02*
X102362000Y-86959440D01*
X102362000Y-86959440D02*
X101165660Y-86959440D01*
X101165660Y-86857840D02*
X101165660Y-86959440D01*
X102362000Y-86857840D02*
X101165660Y-86857840D01*
X101114860Y-86857840D02*
X101114860Y-86959440D01*
X101114860Y-86959440D02*
X100965000Y-86959440D01*
X100965000Y-86857840D02*
X100965000Y-86959440D01*
X101114860Y-86857840D02*
X100965000Y-86857840D01*
X102362000Y-88206580D02*
X102362000Y-88356440D01*
X102362000Y-88356440D02*
X102113080Y-88356440D01*
X102113080Y-88206580D02*
X102113080Y-88356440D01*
X102362000Y-88206580D02*
X102113080Y-88206580D01*
X102412800Y-89306400D02*
X102412800Y-86207600D01*
X102412800Y-86207600D02*
X100914200Y-86207600D01*
X100914200Y-86207600D02*
X100914200Y-89306400D01*
X100914200Y-89306400D02*
X102412800Y-89306400D01*
X102162854Y-87209738D02*
G75*
G02X102161340Y-88305640I-499354J-547262D01*
G01*
X101165102Y-87208867D02*
G75*
G02X102161340Y-87208360I498398J-548133D01*
G01*
X101164146Y-88304262D02*
G75*
G02X101165660Y-87208360I499354J547262D01*
G01*
X102161898Y-88305133D02*
G75*
G02X101165660Y-88305640I-498398J548133D01*
G01*
X103403500Y-86357000D02*
G75*
G03X103403500Y-86357000I-100000J0D01*
G01*
X104302560Y-87657940D02*
X104302560Y-87856060D01*
X104302560Y-87856060D02*
X104104440Y-87856060D01*
X104104440Y-87657940D02*
X104104440Y-87856060D01*
X104302560Y-87657940D02*
X104104440Y-87657940D01*
X104902000Y-88206580D02*
X104902000Y-88554560D01*
X104902000Y-88554560D02*
X104653080Y-88554560D01*
X104653080Y-88206580D02*
X104653080Y-88554560D01*
X104902000Y-88206580D02*
X104653080Y-88206580D01*
X104902000Y-88554560D02*
X104902000Y-88656160D01*
X104902000Y-88656160D02*
X103705660Y-88656160D01*
X103705660Y-88554560D02*
X103705660Y-88656160D01*
X104902000Y-88554560D02*
X103705660Y-88554560D01*
X103654860Y-88554560D02*
X103654860Y-88656160D01*
X103654860Y-88656160D02*
X103505000Y-88656160D01*
X103505000Y-88554560D02*
X103505000Y-88656160D01*
X103654860Y-88554560D02*
X103505000Y-88554560D01*
X104902000Y-86857840D02*
X104902000Y-86959440D01*
X104902000Y-86959440D02*
X103705660Y-86959440D01*
X103705660Y-86857840D02*
X103705660Y-86959440D01*
X104902000Y-86857840D02*
X103705660Y-86857840D01*
X103654860Y-86857840D02*
X103654860Y-86959440D01*
X103654860Y-86959440D02*
X103505000Y-86959440D01*
X103505000Y-86857840D02*
X103505000Y-86959440D01*
X103654860Y-86857840D02*
X103505000Y-86857840D01*
X104902000Y-88206580D02*
X104902000Y-88356440D01*
X104902000Y-88356440D02*
X104653080Y-88356440D01*
X104653080Y-88206580D02*
X104653080Y-88356440D01*
X104902000Y-88206580D02*
X104653080Y-88206580D01*
X104952800Y-89306400D02*
X104952800Y-86207600D01*
X104952800Y-86207600D02*
X103454200Y-86207600D01*
X103454200Y-86207600D02*
X103454200Y-89306400D01*
X103454200Y-89306400D02*
X104952800Y-89306400D01*
X104702854Y-87209738D02*
G75*
G02X104701340Y-88305640I-499354J-547262D01*
G01*
X103705102Y-87208867D02*
G75*
G02X104701340Y-87208360I498398J-548133D01*
G01*
X103704146Y-88304262D02*
G75*
G02X103705660Y-87208360I499354J547262D01*
G01*
X104701898Y-88305133D02*
G75*
G02X103705660Y-88305640I-498398J548133D01*
G01*
X105943500Y-86357000D02*
G75*
G03X105943500Y-86357000I-100000J0D01*
G01*
X106842560Y-87657940D02*
X106842560Y-87856060D01*
X106842560Y-87856060D02*
X106644440Y-87856060D01*
X106644440Y-87657940D02*
X106644440Y-87856060D01*
X106842560Y-87657940D02*
X106644440Y-87657940D01*
X107442000Y-88206580D02*
X107442000Y-88554560D01*
X107442000Y-88554560D02*
X107193080Y-88554560D01*
X107193080Y-88206580D02*
X107193080Y-88554560D01*
X107442000Y-88206580D02*
X107193080Y-88206580D01*
X107442000Y-88554560D02*
X107442000Y-88656160D01*
X107442000Y-88656160D02*
X106245660Y-88656160D01*
X106245660Y-88554560D02*
X106245660Y-88656160D01*
X107442000Y-88554560D02*
X106245660Y-88554560D01*
X106194860Y-88554560D02*
X106194860Y-88656160D01*
X106194860Y-88656160D02*
X106045000Y-88656160D01*
X106045000Y-88554560D02*
X106045000Y-88656160D01*
X106194860Y-88554560D02*
X106045000Y-88554560D01*
X107442000Y-86857840D02*
X107442000Y-86959440D01*
X107442000Y-86959440D02*
X106245660Y-86959440D01*
X106245660Y-86857840D02*
X106245660Y-86959440D01*
X107442000Y-86857840D02*
X106245660Y-86857840D01*
X106194860Y-86857840D02*
X106194860Y-86959440D01*
X106194860Y-86959440D02*
X106045000Y-86959440D01*
X106045000Y-86857840D02*
X106045000Y-86959440D01*
X106194860Y-86857840D02*
X106045000Y-86857840D01*
X107442000Y-88206580D02*
X107442000Y-88356440D01*
X107442000Y-88356440D02*
X107193080Y-88356440D01*
X107193080Y-88206580D02*
X107193080Y-88356440D01*
X107442000Y-88206580D02*
X107193080Y-88206580D01*
X107492800Y-89306400D02*
X107492800Y-86207600D01*
X107492800Y-86207600D02*
X105994200Y-86207600D01*
X105994200Y-86207600D02*
X105994200Y-89306400D01*
X105994200Y-89306400D02*
X107492800Y-89306400D01*
X107242854Y-87209738D02*
G75*
G02X107241340Y-88305640I-499354J-547262D01*
G01*
X106245102Y-87208867D02*
G75*
G02X107241340Y-87208360I498398J-548133D01*
G01*
X106244146Y-88304262D02*
G75*
G02X106245660Y-87208360I499354J547262D01*
G01*
X107241898Y-88305133D02*
G75*
G02X106245660Y-88305640I-498398J548133D01*
G01*
X47942500Y-88392000D02*
X47942500Y-91440000D01*
X47942500Y-91440000D02*
X55054500Y-91440000D01*
X55054500Y-91440000D02*
X55054500Y-88392000D01*
X47942500Y-85344000D02*
X47942500Y-84582000D01*
X47942500Y-84582000D02*
X49466500Y-82296000D01*
X49466500Y-82296000D02*
X53530500Y-82296000D01*
X53530500Y-82296000D02*
X55054500Y-84582000D01*
X55054500Y-84582000D02*
X55054500Y-85344000D01*
X118681500Y-91313000D02*
X123761500Y-91313000D01*
X123761500Y-91313000D02*
X123761500Y-88773000D01*
X123761500Y-88773000D02*
X118681500Y-88773000D01*
X115861500Y-88493000D02*
X117411500Y-88493000D01*
X118681500Y-88773000D02*
X118681500Y-91313000D01*
X117411500Y-91593000D02*
X115861500Y-91593000D01*
X115861500Y-91593000D02*
X115861500Y-88493000D01*
X118681500Y-87757000D02*
X123761500Y-87757000D01*
X123761500Y-87757000D02*
X123761500Y-85217000D01*
X123761500Y-85217000D02*
X118681500Y-85217000D01*
X115861500Y-84937000D02*
X117411500Y-84937000D01*
X118681500Y-85217000D02*
X118681500Y-87757000D01*
X117411500Y-88037000D02*
X115861500Y-88037000D01*
X115861500Y-88037000D02*
X115861500Y-84937000D01*
X118681500Y-84201000D02*
X123761500Y-84201000D01*
X123761500Y-84201000D02*
X123761500Y-81661000D01*
X123761500Y-81661000D02*
X118681500Y-81661000D01*
X115861500Y-81381000D02*
X117411500Y-81381000D01*
X118681500Y-81661000D02*
X118681500Y-84201000D01*
X117411500Y-84481000D02*
X115861500Y-84481000D01*
X115861500Y-84481000D02*
X115861500Y-81381000D01*
X67373500Y-98679000D02*
X85153500Y-98679000D01*
X85153500Y-98679000D02*
X85153500Y-101219000D01*
X85153500Y-101219000D02*
X67373500Y-101219000D01*
X64553500Y-98399000D02*
X66103500Y-98399000D01*
X67373500Y-98679000D02*
X67373500Y-101219000D01*
X66103500Y-101499000D02*
X64553500Y-101499000D01*
X64553500Y-101499000D02*
X64553500Y-98399000D01*
X90233500Y-98679000D02*
X108013500Y-98679000D01*
X108013500Y-98679000D02*
X108013500Y-101219000D01*
X108013500Y-101219000D02*
X90233500Y-101219000D01*
X87413500Y-98399000D02*
X88963500Y-98399000D01*
X90233500Y-98679000D02*
X90233500Y-101219000D01*
X88963500Y-101499000D02*
X87413500Y-101499000D01*
X87413500Y-101499000D02*
X87413500Y-98399000D01*
X90233500Y-32639000D02*
X108013500Y-32639000D01*
X108013500Y-32639000D02*
X108013500Y-35179000D01*
X108013500Y-35179000D02*
X90233500Y-35179000D01*
X87413500Y-32359000D02*
X88963500Y-32359000D01*
X90233500Y-32639000D02*
X90233500Y-35179000D01*
X88963500Y-35459000D02*
X87413500Y-35459000D01*
X87413500Y-35459000D02*
X87413500Y-32359000D01*
X67373500Y-32639000D02*
X85153500Y-32639000D01*
X85153500Y-32639000D02*
X85153500Y-35179000D01*
X85153500Y-35179000D02*
X67373500Y-35179000D01*
X64553500Y-32359000D02*
X66103500Y-32359000D01*
X67373500Y-32639000D02*
X67373500Y-35179000D01*
X66103500Y-35459000D02*
X64553500Y-35459000D01*
X64553500Y-35459000D02*
X64553500Y-32359000D01*
D14*
X53503423Y-72653026D02*
X58891577Y-72653026D01*
X58891577Y-72653026D02*
X59789602Y-71755000D01*
X59789602Y-71755000D02*
X59789602Y-69958949D01*
X59789602Y-69958949D02*
X57993551Y-68162898D01*
X57993551Y-68162898D02*
X54401449Y-68162898D01*
X54401449Y-68162898D02*
X52605398Y-69958949D01*
X52605398Y-69958949D02*
X52605398Y-71755000D01*
X52605398Y-71755000D02*
X53503423Y-72653026D01*
D13*
X86931500Y-53467000D02*
X86931500Y-56007000D01*
X86931500Y-56007000D02*
X64071500Y-56007000D01*
X64071500Y-56007000D02*
X64071500Y-53467000D01*
X86931500Y-53467000D02*
X64071500Y-53467000D01*
X66611500Y-53467000D02*
X66611500Y-56007000D01*
X67840860Y-85638640D02*
X67840860Y-84876640D01*
X68348860Y-85638640D02*
X68348860Y-84876640D01*
X67840860Y-87670640D02*
G75*
G03X69745860Y-86273640I254000J1651000D01*
G01*
X66443860Y-86146640D02*
G75*
G03X68221860Y-87670640I1651000J127000D01*
G01*
X69491860Y-86908640D02*
G75*
G03X68983860Y-84622640I-1397000J889000D01*
G01*
X67205860Y-84622640D02*
G75*
G03X66697860Y-86908640I889000J-1397000D01*
G01*
X64792860Y-89829640D02*
X64792860Y-89702640D01*
X64792860Y-86019640D02*
X64792860Y-87416640D01*
X71396860Y-89829640D02*
X71396860Y-89702640D01*
X71396860Y-86019640D02*
X71396860Y-87416640D01*
X66951860Y-88940640D02*
X67332860Y-89067640D01*
X67332860Y-89067640D02*
X68094860Y-89194640D01*
X68094860Y-89194640D02*
X68856860Y-89067640D01*
X68856860Y-89067640D02*
X69237860Y-88940640D01*
X66824860Y-88051640D02*
X69364860Y-88051640D01*
X71015860Y-87289640D02*
G75*
G03X69364860Y-83098640I-2921000J1270000D01*
G01*
X66824860Y-83098640D02*
G75*
G03X65173860Y-87289640I1270000J-2921000D01*
G01*
X70126860Y-82717640D02*
X69237860Y-82717640D01*
X66951860Y-82717640D02*
X66062860Y-82717640D01*
X69745860Y-85638640D02*
X70253860Y-85638640D01*
X70253860Y-85638640D02*
X70253860Y-86400640D01*
X70253860Y-86400640D02*
X69745860Y-86400640D01*
X66443860Y-85638640D02*
X65935860Y-85638640D01*
X65935860Y-85638640D02*
X65935860Y-86400640D01*
X65935860Y-86400640D02*
X66443860Y-86400640D01*
X68602860Y-86273640D02*
X69745860Y-86273640D01*
X68602860Y-85765640D02*
X69745860Y-85765640D01*
X67586860Y-86273640D02*
X66443860Y-86273640D01*
X67586860Y-85765640D02*
X66443860Y-85765640D01*
X68348860Y-86400640D02*
X68348860Y-87670640D01*
X67840860Y-86400640D02*
X67840860Y-87670640D01*
X67586860Y-85638640D02*
X67586860Y-86400640D01*
X67586860Y-86400640D02*
X68602860Y-86400640D01*
X68602860Y-86400640D02*
X68602860Y-85638640D01*
X68602860Y-85638640D02*
X67586860Y-85638640D01*
X66062860Y-82717640D02*
X64792860Y-84114640D01*
X64792860Y-84114640D02*
X64792860Y-86019640D01*
X70126860Y-82717640D02*
X71396860Y-84114640D01*
X71396860Y-84114640D02*
X71396860Y-86019640D01*
X71142860Y-89829640D02*
X71142860Y-90083640D01*
X71142860Y-90083640D02*
X69999860Y-90083640D01*
X69999860Y-90083640D02*
X69999860Y-89829640D01*
X65046860Y-89829640D02*
X65046860Y-90083640D01*
X65046860Y-90083640D02*
X66189860Y-90083640D01*
X66189860Y-90083640D02*
X66189860Y-89829640D01*
X64792860Y-89829640D02*
X71396860Y-89829640D01*
D15*
X61935360Y-97663000D02*
X61935360Y-94663260D01*
X61935360Y-94663260D02*
X48935640Y-94663260D01*
X48935640Y-94663260D02*
X48935640Y-101163120D01*
X48935640Y-101163120D02*
X61935360Y-101163120D01*
X61935360Y-101163120D02*
X61935360Y-97663000D01*
X81597500Y-86995000D02*
X81597500Y-90805000D01*
X81597500Y-90805000D02*
X74612500Y-90805000D01*
X74612500Y-90805000D02*
X74612500Y-83185000D01*
X74612500Y-83185000D02*
X81597500Y-83185000D01*
X81597500Y-83185000D02*
X81597500Y-86995000D01*
X79057500Y-86995000D02*
G75*
G03X79057500Y-86995000I-1270000J0D01*
G01*
X92773500Y-86995000D02*
X92773500Y-90805000D01*
X92773500Y-90805000D02*
X85788500Y-90805000D01*
X85788500Y-90805000D02*
X85788500Y-83185000D01*
X85788500Y-83185000D02*
X92773500Y-83185000D01*
X92773500Y-83185000D02*
X92773500Y-86995000D01*
X90233500Y-86995000D02*
G75*
G03X90233500Y-86995000I-1270000J0D01*
G01*
X114363500Y-101473000D02*
X110553500Y-101473000D01*
X110553500Y-101473000D02*
X110553500Y-94488000D01*
X110553500Y-94488000D02*
X118173500Y-94488000D01*
X118173500Y-94488000D02*
X118173500Y-101473000D01*
X118173500Y-101473000D02*
X114363500Y-101473000D01*
X115633500Y-97663000D02*
G75*
G03X115633500Y-97663000I-1270000J0D01*
G01*
D16*
X54206140Y-50446940D02*
X54206140Y-49697640D01*
X54206140Y-49697640D02*
X54955440Y-49697640D01*
X58455560Y-49697640D02*
X59204860Y-49697640D01*
X59204860Y-49697640D02*
X59204860Y-50446940D01*
X54955440Y-54696360D02*
X54206140Y-54696360D01*
X54206140Y-54696360D02*
X54206140Y-53947060D01*
X58455560Y-54696360D02*
X59204860Y-54696360D01*
X59204860Y-54696360D02*
X59204860Y-53947060D01*
D13*
X62801500Y-64897000D02*
X64071500Y-64897000D01*
X64071500Y-64897000D02*
X64071500Y-67437000D01*
X64071500Y-67437000D02*
X62801500Y-67437000D01*
X62801500Y-59817000D02*
X116141500Y-59817000D01*
X116141500Y-59817000D02*
X116141500Y-72517000D01*
X116141500Y-72517000D02*
X62801500Y-72517000D01*
X62801500Y-72517000D02*
X62801500Y-59817000D01*
X109664500Y-65420240D02*
X109865160Y-65821560D01*
X109865160Y-65821560D02*
X109966760Y-66421000D01*
X109966760Y-66421000D02*
X109865160Y-66921380D01*
X109865160Y-66921380D02*
X109466380Y-67619880D01*
X109466380Y-67619880D02*
X108864400Y-68021200D01*
X108864400Y-68021200D02*
X108264960Y-68221860D01*
X108264960Y-68221860D02*
X101666040Y-68221860D01*
X101666040Y-68221860D02*
X100965000Y-68021200D01*
X100965000Y-68021200D02*
X100566220Y-67721480D01*
X100566220Y-67721480D02*
X100164900Y-67221100D01*
X100164900Y-67221100D02*
X99964240Y-66621660D01*
X99964240Y-66621660D02*
X99964240Y-66121280D01*
X99964240Y-66121280D02*
X100164900Y-65620900D01*
X100164900Y-65620900D02*
X100665280Y-65021460D01*
X100665280Y-65021460D02*
X101165660Y-64721740D01*
X101165660Y-64721740D02*
X101666040Y-64620140D01*
X101765100Y-64620140D02*
X108366560Y-64620140D01*
X108366560Y-64620140D02*
X108765340Y-64721740D01*
X108765340Y-64721740D02*
X109265720Y-65021460D01*
X109265720Y-65021460D02*
X109766100Y-65521840D01*
X101775260Y-64091820D02*
X101315520Y-64140080D01*
X101315520Y-64140080D02*
X100916740Y-64251840D01*
X100916740Y-64251840D02*
X100484940Y-64470280D01*
X100484940Y-64470280D02*
X100195380Y-64701420D01*
X100195380Y-64701420D02*
X99865180Y-65051940D01*
X99865180Y-65051940D02*
X99575620Y-65590420D01*
X99575620Y-65590420D02*
X99446080Y-66189860D01*
X99446080Y-66189860D02*
X99446080Y-66700400D01*
X99446080Y-66700400D02*
X99616260Y-67401440D01*
X99616260Y-67401440D02*
X100015040Y-67990720D01*
X100015040Y-67990720D02*
X100474780Y-68361560D01*
X100474780Y-68361560D02*
X100896420Y-68569840D01*
X100896420Y-68569840D02*
X101346000Y-68729860D01*
X101346000Y-68729860D02*
X101785420Y-68760340D01*
X109126020Y-68541900D02*
X109504480Y-68320920D01*
X109504480Y-68320920D02*
X109824520Y-68041520D01*
X109824520Y-68041520D02*
X110075980Y-67711320D01*
X110075980Y-67711320D02*
X110375700Y-67160140D01*
X110375700Y-67160140D02*
X110484920Y-66690240D01*
X110484920Y-66690240D02*
X110505240Y-66230500D01*
X110505240Y-66230500D02*
X110416340Y-65770760D01*
X110416340Y-65770760D02*
X110225840Y-65321180D01*
X110225840Y-65321180D02*
X109865160Y-64851280D01*
X109865160Y-64851280D02*
X109514640Y-64531240D01*
X109514640Y-64531240D02*
X109126020Y-64300100D01*
X109126020Y-64300100D02*
X108696760Y-64160400D01*
X108696760Y-64160400D02*
X108254800Y-64091820D01*
X101765100Y-68750180D02*
X108216700Y-68750180D01*
X108216700Y-68750180D02*
X108635800Y-68712080D01*
X108635800Y-68712080D02*
X109126020Y-68541900D01*
X101765100Y-64091820D02*
X108216700Y-64091820D01*
X40689500Y-98419000D02*
G75*
G03X40689500Y-98419000I-2286000J0D01*
G01*
X123689500Y-98419000D02*
G75*
G03X123689500Y-98419000I-2286000J0D01*
G01*
X40689500Y-35419000D02*
G75*
G03X40689500Y-35419000I-2286000J0D01*
G01*
X123689500Y-35419000D02*
G75*
G03X123689500Y-35419000I-2286000J0D01*
G01*
X54515500Y-59147000D02*
X53815500Y-59147000D01*
X53815500Y-57947000D02*
X54515500Y-57947000D01*
X66007500Y-51343000D02*
X66707500Y-51343000D01*
X66707500Y-52543000D02*
X66007500Y-52543000D01*
X98707500Y-66071000D02*
X98707500Y-66771000D01*
X97507500Y-66771000D02*
X97507500Y-66071000D01*
X112423500Y-66071000D02*
X112423500Y-66771000D01*
X111223500Y-66771000D02*
X111223500Y-66071000D01*
X55951500Y-62952000D02*
X56951500Y-62952000D01*
X56951500Y-64302000D02*
X55951500Y-64302000D01*
X60682500Y-64397000D02*
X60682500Y-65397000D01*
X59332500Y-65397000D02*
X59332500Y-64397000D01*
X56951500Y-66842000D02*
X55951500Y-66842000D01*
X55951500Y-65492000D02*
X56951500Y-65492000D01*
X56443500Y-76367000D02*
X55443500Y-76367000D01*
X55443500Y-75017000D02*
X56443500Y-75017000D01*
X43410500Y-98179000D02*
X43410500Y-99179000D01*
X42060500Y-99179000D02*
X42060500Y-98179000D01*
X82954500Y-87749000D02*
X82954500Y-86749000D01*
X84304500Y-86749000D02*
X84304500Y-87749000D01*
X93622500Y-87749000D02*
X93622500Y-86749000D01*
X94972500Y-86749000D02*
X94972500Y-87749000D01*
X92860500Y-53459000D02*
X92860500Y-52459000D01*
X94210500Y-52459000D02*
X94210500Y-53459000D01*
X121903500Y-94594000D02*
X120903500Y-94594000D01*
X120903500Y-93244000D02*
X121903500Y-93244000D01*
X98448500Y-81907000D02*
X98448500Y-80907000D01*
X99798500Y-80907000D02*
X99798500Y-81907000D01*
X100988500Y-81907000D02*
X100988500Y-80907000D01*
X102338500Y-80907000D02*
X102338500Y-81907000D01*
X103528500Y-81907000D02*
X103528500Y-80907000D01*
X104878500Y-80907000D02*
X104878500Y-81907000D01*
X106068500Y-81907000D02*
X106068500Y-80907000D01*
X107418500Y-80907000D02*
X107418500Y-81907000D01*
X116522500Y-32639000D02*
X108902500Y-32639000D01*
X116522500Y-35179000D02*
X108902500Y-35179000D01*
X119342500Y-35459000D02*
X117792500Y-35459000D01*
X108902500Y-32639000D02*
X108902500Y-35179000D01*
X116522500Y-35179000D02*
X116522500Y-32639000D01*
X117792500Y-32359000D02*
X119342500Y-32359000D01*
X119342500Y-32359000D02*
X119342500Y-35459000D01*
X46490809Y-80878262D02*
X46490809Y-80243262D01*
X46732714Y-80243262D01*
X46793190Y-80273500D01*
X46823429Y-80303738D01*
X46853667Y-80364214D01*
X46853667Y-80454929D01*
X46823429Y-80515405D01*
X46793190Y-80545643D01*
X46732714Y-80575881D01*
X46490809Y-80575881D01*
X47216524Y-80515405D02*
X47156048Y-80485167D01*
X47125809Y-80454929D01*
X47095571Y-80394452D01*
X47095571Y-80364214D01*
X47125809Y-80303738D01*
X47156048Y-80273500D01*
X47216524Y-80243262D01*
X47337476Y-80243262D01*
X47397952Y-80273500D01*
X47428190Y-80303738D01*
X47458429Y-80364214D01*
X47458429Y-80394452D01*
X47428190Y-80454929D01*
X47397952Y-80485167D01*
X47337476Y-80515405D01*
X47216524Y-80515405D01*
X47156048Y-80545643D01*
X47125809Y-80575881D01*
X47095571Y-80636357D01*
X47095571Y-80757310D01*
X47125809Y-80817786D01*
X47156048Y-80848024D01*
X47216524Y-80878262D01*
X47337476Y-80878262D01*
X47397952Y-80848024D01*
X47428190Y-80817786D01*
X47458429Y-80757310D01*
X47458429Y-80636357D01*
X47428190Y-80575881D01*
X47397952Y-80545643D01*
X47337476Y-80515405D01*
X55178643Y-87615666D02*
X55226262Y-87663285D01*
X55273881Y-87806142D01*
X55273881Y-87901380D01*
X55226262Y-88044238D01*
X55131024Y-88139476D01*
X55035786Y-88187095D01*
X54845310Y-88234714D01*
X54702452Y-88234714D01*
X54511976Y-88187095D01*
X54416738Y-88139476D01*
X54321500Y-88044238D01*
X54273881Y-87901380D01*
X54273881Y-87806142D01*
X54321500Y-87663285D01*
X54369119Y-87615666D01*
X54369119Y-87234714D02*
X54321500Y-87187095D01*
X54273881Y-87091857D01*
X54273881Y-86853761D01*
X54321500Y-86758523D01*
X54369119Y-86710904D01*
X54464357Y-86663285D01*
X54559595Y-86663285D01*
X54702452Y-86710904D01*
X55273881Y-87282333D01*
X55273881Y-86663285D01*
X45314809Y-96172262D02*
X45314809Y-95537262D01*
X45466000Y-95537262D01*
X45556714Y-95567500D01*
X45617190Y-95627976D01*
X45647429Y-95688452D01*
X45677667Y-95809405D01*
X45677667Y-95900119D01*
X45647429Y-96021071D01*
X45617190Y-96081548D01*
X45556714Y-96142024D01*
X45466000Y-96172262D01*
X45314809Y-96172262D01*
X46282429Y-96172262D02*
X45919571Y-96172262D01*
X46101000Y-96172262D02*
X46101000Y-95537262D01*
X46040524Y-95627976D01*
X45980048Y-95688452D01*
X45919571Y-95718690D01*
X98654809Y-84996262D02*
X98654809Y-84361262D01*
X98806000Y-84361262D01*
X98896714Y-84391500D01*
X98957190Y-84451976D01*
X98987429Y-84512452D01*
X99017667Y-84633405D01*
X99017667Y-84724119D01*
X98987429Y-84845071D01*
X98957190Y-84905548D01*
X98896714Y-84966024D01*
X98806000Y-84996262D01*
X98654809Y-84996262D01*
X99259571Y-84421738D02*
X99289809Y-84391500D01*
X99350286Y-84361262D01*
X99501476Y-84361262D01*
X99561952Y-84391500D01*
X99592190Y-84421738D01*
X99622429Y-84482214D01*
X99622429Y-84542690D01*
X99592190Y-84633405D01*
X99229333Y-84996262D01*
X99622429Y-84996262D01*
X101194809Y-84996262D02*
X101194809Y-84361262D01*
X101346000Y-84361262D01*
X101436714Y-84391500D01*
X101497190Y-84451976D01*
X101527429Y-84512452D01*
X101557667Y-84633405D01*
X101557667Y-84724119D01*
X101527429Y-84845071D01*
X101497190Y-84905548D01*
X101436714Y-84966024D01*
X101346000Y-84996262D01*
X101194809Y-84996262D01*
X101769333Y-84361262D02*
X102162429Y-84361262D01*
X101950762Y-84603167D01*
X102041476Y-84603167D01*
X102101952Y-84633405D01*
X102132190Y-84663643D01*
X102162429Y-84724119D01*
X102162429Y-84875310D01*
X102132190Y-84935786D01*
X102101952Y-84966024D01*
X102041476Y-84996262D01*
X101860048Y-84996262D01*
X101799571Y-84966024D01*
X101769333Y-84935786D01*
X103734809Y-84996262D02*
X103734809Y-84361262D01*
X103886000Y-84361262D01*
X103976714Y-84391500D01*
X104037190Y-84451976D01*
X104067429Y-84512452D01*
X104097667Y-84633405D01*
X104097667Y-84724119D01*
X104067429Y-84845071D01*
X104037190Y-84905548D01*
X103976714Y-84966024D01*
X103886000Y-84996262D01*
X103734809Y-84996262D01*
X104641952Y-84572929D02*
X104641952Y-84996262D01*
X104490762Y-84331024D02*
X104339571Y-84784595D01*
X104732667Y-84784595D01*
X106260937Y-84996262D02*
X106260937Y-84361262D01*
X106416602Y-84361262D01*
X106510002Y-84391500D01*
X106572268Y-84451976D01*
X106603401Y-84512452D01*
X106634534Y-84633405D01*
X106634534Y-84724119D01*
X106603401Y-84845071D01*
X106572268Y-84905548D01*
X106510002Y-84966024D01*
X106416602Y-84996262D01*
X106260937Y-84996262D01*
X107226064Y-84361262D02*
X106914733Y-84361262D01*
X106883600Y-84663643D01*
X106914733Y-84633405D01*
X106976999Y-84603167D01*
X107132665Y-84603167D01*
X107194931Y-84633405D01*
X107226064Y-84663643D01*
X107257197Y-84724119D01*
X107257197Y-84875310D01*
X107226064Y-84935786D01*
X107194931Y-84966024D01*
X107132665Y-84996262D01*
X106976999Y-84996262D01*
X106914733Y-84966024D01*
X106883600Y-84935786D01*
X53960786Y-92473429D02*
X53960786Y-91873429D01*
X54589357Y-92416286D02*
X54560786Y-92444857D01*
X54475072Y-92473429D01*
X54417929Y-92473429D01*
X54332214Y-92444857D01*
X54275072Y-92387714D01*
X54246500Y-92330571D01*
X54217929Y-92216286D01*
X54217929Y-92130571D01*
X54246500Y-92016286D01*
X54275072Y-91959143D01*
X54332214Y-91902000D01*
X54417929Y-91873429D01*
X54475072Y-91873429D01*
X54560786Y-91902000D01*
X54589357Y-91930571D01*
X55160786Y-92473429D02*
X54817929Y-92473429D01*
X54989357Y-92473429D02*
X54989357Y-91873429D01*
X54932214Y-91959143D01*
X54875072Y-92016286D01*
X54817929Y-92044857D01*
X63094809Y-100236262D02*
X63094809Y-99601262D01*
X63336714Y-99601262D01*
X63397190Y-99631500D01*
X63427429Y-99661738D01*
X63457667Y-99722214D01*
X63457667Y-99812929D01*
X63427429Y-99873405D01*
X63397190Y-99903643D01*
X63336714Y-99933881D01*
X63094809Y-99933881D01*
X64001952Y-99812929D02*
X64001952Y-100236262D01*
X63850762Y-99571024D02*
X63699571Y-100024595D01*
X64092667Y-100024595D01*
D17*
X52352849Y-73228125D02*
X52331468Y-73163980D01*
X52331467Y-73078454D01*
X52331467Y-72950165D01*
X52310086Y-72886020D01*
X52267323Y-72843257D01*
X52181796Y-72971546D02*
X52160415Y-72907402D01*
X52160414Y-72821875D01*
X52224559Y-72714967D01*
X52374230Y-72565296D01*
X52481138Y-72501151D01*
X52566665Y-72501152D01*
X52630809Y-72522533D01*
X52716335Y-72608059D01*
X52737717Y-72672204D01*
X52737717Y-72757731D01*
X52673572Y-72864639D01*
X52523902Y-73014309D01*
X52416994Y-73078454D01*
X52331467Y-73078454D01*
X52267322Y-73057072D01*
X52181796Y-72971546D01*
X52801862Y-73591612D02*
X52545283Y-73335032D01*
X52673572Y-73463322D02*
X53122585Y-73014309D01*
X53015678Y-73035691D01*
X52930152Y-73035691D01*
X52866006Y-73014309D01*
D13*
X87524167Y-55024262D02*
X87312500Y-54721881D01*
X87161309Y-55024262D02*
X87161309Y-54389262D01*
X87403214Y-54389262D01*
X87463690Y-54419500D01*
X87493929Y-54449738D01*
X87524167Y-54510214D01*
X87524167Y-54600929D01*
X87493929Y-54661405D01*
X87463690Y-54691643D01*
X87403214Y-54721881D01*
X87161309Y-54721881D01*
X88159167Y-55024262D02*
X87947500Y-54721881D01*
X87796309Y-55024262D02*
X87796309Y-54389262D01*
X88038214Y-54389262D01*
X88098690Y-54419500D01*
X88128929Y-54449738D01*
X88159167Y-54510214D01*
X88159167Y-54600929D01*
X88128929Y-54661405D01*
X88098690Y-54691643D01*
X88038214Y-54721881D01*
X87796309Y-54721881D01*
X88763929Y-55024262D02*
X88401071Y-55024262D01*
X88582500Y-55024262D02*
X88582500Y-54389262D01*
X88522024Y-54479976D01*
X88461548Y-54540452D01*
X88401071Y-54570690D01*
X68011524Y-81694262D02*
X67799857Y-81391881D01*
X67648666Y-81694262D02*
X67648666Y-81059262D01*
X67890571Y-81059262D01*
X67951047Y-81089500D01*
X67981286Y-81119738D01*
X68011524Y-81180214D01*
X68011524Y-81270929D01*
X67981286Y-81331405D01*
X67951047Y-81361643D01*
X67890571Y-81391881D01*
X67648666Y-81391881D01*
X68192952Y-81059262D02*
X68404619Y-81694262D01*
X68616286Y-81059262D01*
X69160572Y-81694262D02*
X68797714Y-81694262D01*
X68979143Y-81694262D02*
X68979143Y-81059262D01*
X68918667Y-81149976D01*
X68858191Y-81210452D01*
X68797714Y-81240690D01*
D12*
X112963114Y-100477078D02*
X113108257Y-100525459D01*
X113350161Y-100525459D01*
X113446923Y-100477078D01*
X113495304Y-100428697D01*
X113543685Y-100331935D01*
X113543685Y-100235173D01*
X113495304Y-100138411D01*
X113446923Y-100090030D01*
X113350161Y-100041650D01*
X113156638Y-99993269D01*
X113059876Y-99944888D01*
X113011495Y-99896507D01*
X112963114Y-99799745D01*
X112963114Y-99702983D01*
X113011495Y-99606221D01*
X113059876Y-99557840D01*
X113156638Y-99509459D01*
X113398542Y-99509459D01*
X113543685Y-99557840D01*
X113882352Y-99509459D02*
X114124257Y-100525459D01*
X114317780Y-99799745D01*
X114511304Y-100525459D01*
X114753209Y-99509459D01*
X115575685Y-99848126D02*
X115575685Y-100525459D01*
X115333781Y-99461078D02*
X115091876Y-100186792D01*
X115720828Y-100186792D01*
D13*
X63309595Y-60539381D02*
X63309595Y-61348905D01*
X63357214Y-61444143D01*
X63404833Y-61491762D01*
X63500071Y-61539381D01*
X63690548Y-61539381D01*
X63785786Y-61491762D01*
X63833405Y-61444143D01*
X63881024Y-61348905D01*
X63881024Y-60539381D01*
X64309595Y-60634619D02*
X64357214Y-60587000D01*
X64452452Y-60539381D01*
X64690548Y-60539381D01*
X64785786Y-60587000D01*
X64833405Y-60634619D01*
X64881024Y-60729857D01*
X64881024Y-60825095D01*
X64833405Y-60967952D01*
X64261976Y-61539381D01*
X64881024Y-61539381D01*
X104451452Y-63025262D02*
X104874786Y-63660262D01*
X104874786Y-63025262D02*
X104451452Y-63660262D01*
X105449310Y-63660262D02*
X105086452Y-63660262D01*
X105267881Y-63660262D02*
X105267881Y-63025262D01*
X105207405Y-63115976D01*
X105146929Y-63176452D01*
X105086452Y-63206690D01*
X54059667Y-60673786D02*
X54029429Y-60704024D01*
X53938714Y-60734262D01*
X53878238Y-60734262D01*
X53787524Y-60704024D01*
X53727048Y-60643548D01*
X53696809Y-60583071D01*
X53666571Y-60462119D01*
X53666571Y-60371405D01*
X53696809Y-60250452D01*
X53727048Y-60189976D01*
X53787524Y-60129500D01*
X53878238Y-60099262D01*
X53938714Y-60099262D01*
X54029429Y-60129500D01*
X54059667Y-60159738D01*
X54664429Y-60734262D02*
X54301571Y-60734262D01*
X54483000Y-60734262D02*
X54483000Y-60099262D01*
X54422524Y-60189976D01*
X54362048Y-60250452D01*
X54301571Y-60280690D01*
D18*
X63711667Y-52169786D02*
X63681429Y-52200024D01*
X63590714Y-52230262D01*
X63530238Y-52230262D01*
X63439524Y-52200024D01*
X63379048Y-52139548D01*
X63348809Y-52079071D01*
X63318571Y-51958119D01*
X63318571Y-51867405D01*
X63348809Y-51746452D01*
X63379048Y-51685976D01*
X63439524Y-51625500D01*
X63530238Y-51595262D01*
X63590714Y-51595262D01*
X63681429Y-51625500D01*
X63711667Y-51655738D01*
X63923333Y-51595262D02*
X64316429Y-51595262D01*
X64104762Y-51837167D01*
X64195476Y-51837167D01*
X64255952Y-51867405D01*
X64286190Y-51897643D01*
X64316429Y-51958119D01*
X64316429Y-52109310D01*
X64286190Y-52169786D01*
X64255952Y-52200024D01*
X64195476Y-52230262D01*
X64014048Y-52230262D01*
X63953571Y-52200024D01*
X63923333Y-52169786D01*
D13*
X98001667Y-64361786D02*
X97971429Y-64392024D01*
X97880714Y-64422262D01*
X97820238Y-64422262D01*
X97729524Y-64392024D01*
X97669048Y-64331548D01*
X97638809Y-64271071D01*
X97608571Y-64150119D01*
X97608571Y-64059405D01*
X97638809Y-63938452D01*
X97669048Y-63877976D01*
X97729524Y-63817500D01*
X97820238Y-63787262D01*
X97880714Y-63787262D01*
X97971429Y-63817500D01*
X98001667Y-63847738D01*
X98545952Y-63998929D02*
X98545952Y-64422262D01*
X98394762Y-63757024D02*
X98243571Y-64210595D01*
X98636667Y-64210595D01*
X111717667Y-64361786D02*
X111687429Y-64392024D01*
X111596714Y-64422262D01*
X111536238Y-64422262D01*
X111445524Y-64392024D01*
X111385048Y-64331548D01*
X111354809Y-64271071D01*
X111324571Y-64150119D01*
X111324571Y-64059405D01*
X111354809Y-63938452D01*
X111385048Y-63877976D01*
X111445524Y-63817500D01*
X111536238Y-63787262D01*
X111596714Y-63787262D01*
X111687429Y-63817500D01*
X111717667Y-63847738D01*
X112292190Y-63787262D02*
X111989809Y-63787262D01*
X111959571Y-64089643D01*
X111989809Y-64059405D01*
X112050286Y-64029167D01*
X112201476Y-64029167D01*
X112261952Y-64059405D01*
X112292190Y-64089643D01*
X112322429Y-64150119D01*
X112322429Y-64301310D01*
X112292190Y-64361786D01*
X112261952Y-64392024D01*
X112201476Y-64422262D01*
X112050286Y-64422262D01*
X111989809Y-64392024D01*
X111959571Y-64361786D01*
X53551667Y-63914262D02*
X53340000Y-63611881D01*
X53188809Y-63914262D02*
X53188809Y-63279262D01*
X53430714Y-63279262D01*
X53491190Y-63309500D01*
X53521429Y-63339738D01*
X53551667Y-63400214D01*
X53551667Y-63490929D01*
X53521429Y-63551405D01*
X53491190Y-63581643D01*
X53430714Y-63611881D01*
X53188809Y-63611881D01*
X54156429Y-63914262D02*
X53793571Y-63914262D01*
X53975000Y-63914262D02*
X53975000Y-63279262D01*
X53914524Y-63369976D01*
X53854048Y-63430452D01*
X53793571Y-63460690D01*
X59901667Y-62644262D02*
X59690000Y-62341881D01*
X59538809Y-62644262D02*
X59538809Y-62009262D01*
X59780714Y-62009262D01*
X59841190Y-62039500D01*
X59871429Y-62069738D01*
X59901667Y-62130214D01*
X59901667Y-62220929D01*
X59871429Y-62281405D01*
X59841190Y-62311643D01*
X59780714Y-62341881D01*
X59538809Y-62341881D01*
X60143571Y-62069738D02*
X60173809Y-62039500D01*
X60234286Y-62009262D01*
X60385476Y-62009262D01*
X60445952Y-62039500D01*
X60476190Y-62069738D01*
X60506429Y-62130214D01*
X60506429Y-62190690D01*
X60476190Y-62281405D01*
X60113333Y-62644262D01*
X60506429Y-62644262D01*
X53551667Y-66454262D02*
X53340000Y-66151881D01*
X53188809Y-66454262D02*
X53188809Y-65819262D01*
X53430714Y-65819262D01*
X53491190Y-65849500D01*
X53521429Y-65879738D01*
X53551667Y-65940214D01*
X53551667Y-66030929D01*
X53521429Y-66091405D01*
X53491190Y-66121643D01*
X53430714Y-66151881D01*
X53188809Y-66151881D01*
X53763333Y-65819262D02*
X54156429Y-65819262D01*
X53944762Y-66061167D01*
X54035476Y-66061167D01*
X54095952Y-66091405D01*
X54126190Y-66121643D01*
X54156429Y-66182119D01*
X54156429Y-66333310D01*
X54126190Y-66393786D01*
X54095952Y-66424024D01*
X54035476Y-66454262D01*
X53854048Y-66454262D01*
X53793571Y-66424024D01*
X53763333Y-66393786D01*
X53043667Y-75979262D02*
X52832000Y-75676881D01*
X52680809Y-75979262D02*
X52680809Y-75344262D01*
X52922714Y-75344262D01*
X52983190Y-75374500D01*
X53013429Y-75404738D01*
X53043667Y-75465214D01*
X53043667Y-75555929D01*
X53013429Y-75616405D01*
X52983190Y-75646643D01*
X52922714Y-75676881D01*
X52680809Y-75676881D01*
X53587952Y-75555929D02*
X53587952Y-75979262D01*
X53436762Y-75314024D02*
X53285571Y-75767595D01*
X53678667Y-75767595D01*
X42629667Y-96426262D02*
X42418000Y-96123881D01*
X42266809Y-96426262D02*
X42266809Y-95791262D01*
X42508714Y-95791262D01*
X42569190Y-95821500D01*
X42599429Y-95851738D01*
X42629667Y-95912214D01*
X42629667Y-96002929D01*
X42599429Y-96063405D01*
X42569190Y-96093643D01*
X42508714Y-96123881D01*
X42266809Y-96123881D01*
X43204190Y-95791262D02*
X42901809Y-95791262D01*
X42871571Y-96093643D01*
X42901809Y-96063405D01*
X42962286Y-96033167D01*
X43113476Y-96033167D01*
X43173952Y-96063405D01*
X43204190Y-96093643D01*
X43234429Y-96154119D01*
X43234429Y-96305310D01*
X43204190Y-96365786D01*
X43173952Y-96396024D01*
X43113476Y-96426262D01*
X42962286Y-96426262D01*
X42901809Y-96396024D01*
X42871571Y-96365786D01*
X83523667Y-84996262D02*
X83312000Y-84693881D01*
X83160809Y-84996262D02*
X83160809Y-84361262D01*
X83402714Y-84361262D01*
X83463190Y-84391500D01*
X83493429Y-84421738D01*
X83523667Y-84482214D01*
X83523667Y-84572929D01*
X83493429Y-84633405D01*
X83463190Y-84663643D01*
X83402714Y-84693881D01*
X83160809Y-84693881D01*
X84067952Y-84361262D02*
X83947000Y-84361262D01*
X83886524Y-84391500D01*
X83856286Y-84421738D01*
X83795809Y-84512452D01*
X83765571Y-84633405D01*
X83765571Y-84875310D01*
X83795809Y-84935786D01*
X83826048Y-84966024D01*
X83886524Y-84996262D01*
X84007476Y-84996262D01*
X84067952Y-84966024D01*
X84098190Y-84935786D01*
X84128429Y-84875310D01*
X84128429Y-84724119D01*
X84098190Y-84663643D01*
X84067952Y-84633405D01*
X84007476Y-84603167D01*
X83886524Y-84603167D01*
X83826048Y-84633405D01*
X83795809Y-84663643D01*
X83765571Y-84724119D01*
X94191667Y-84996262D02*
X93980000Y-84693881D01*
X93828809Y-84996262D02*
X93828809Y-84361262D01*
X94070714Y-84361262D01*
X94131190Y-84391500D01*
X94161429Y-84421738D01*
X94191667Y-84482214D01*
X94191667Y-84572929D01*
X94161429Y-84633405D01*
X94131190Y-84663643D01*
X94070714Y-84693881D01*
X93828809Y-84693881D01*
X94403333Y-84361262D02*
X94826667Y-84361262D01*
X94554524Y-84996262D01*
X95346762Y-53064833D02*
X95044381Y-53276500D01*
X95346762Y-53427691D02*
X94711762Y-53427691D01*
X94711762Y-53185786D01*
X94742000Y-53125310D01*
X94772238Y-53095071D01*
X94832714Y-53064833D01*
X94923429Y-53064833D01*
X94983905Y-53095071D01*
X95014143Y-53125310D01*
X95044381Y-53185786D01*
X95044381Y-53427691D01*
X94983905Y-52701976D02*
X94953667Y-52762452D01*
X94923429Y-52792691D01*
X94862952Y-52822929D01*
X94832714Y-52822929D01*
X94772238Y-52792691D01*
X94742000Y-52762452D01*
X94711762Y-52701976D01*
X94711762Y-52581024D01*
X94742000Y-52520548D01*
X94772238Y-52490310D01*
X94832714Y-52460071D01*
X94862952Y-52460071D01*
X94923429Y-52490310D01*
X94953667Y-52520548D01*
X94983905Y-52581024D01*
X94983905Y-52701976D01*
X95014143Y-52762452D01*
X95044381Y-52792691D01*
X95104857Y-52822929D01*
X95225810Y-52822929D01*
X95286286Y-52792691D01*
X95316524Y-52762452D01*
X95346762Y-52701976D01*
X95346762Y-52581024D01*
X95316524Y-52520548D01*
X95286286Y-52490310D01*
X95225810Y-52460071D01*
X95104857Y-52460071D01*
X95044381Y-52490310D01*
X95014143Y-52520548D01*
X94983905Y-52581024D01*
X121297667Y-92306262D02*
X121086000Y-92003881D01*
X120934809Y-92306262D02*
X120934809Y-91671262D01*
X121176714Y-91671262D01*
X121237190Y-91701500D01*
X121267429Y-91731738D01*
X121297667Y-91792214D01*
X121297667Y-91882929D01*
X121267429Y-91943405D01*
X121237190Y-91973643D01*
X121176714Y-92003881D01*
X120934809Y-92003881D01*
X121600048Y-92306262D02*
X121721000Y-92306262D01*
X121781476Y-92276024D01*
X121811714Y-92245786D01*
X121872190Y-92155071D01*
X121902429Y-92034119D01*
X121902429Y-91792214D01*
X121872190Y-91731738D01*
X121841952Y-91701500D01*
X121781476Y-91671262D01*
X121660524Y-91671262D01*
X121600048Y-91701500D01*
X121569809Y-91731738D01*
X121539571Y-91792214D01*
X121539571Y-91943405D01*
X121569809Y-92003881D01*
X121600048Y-92034119D01*
X121660524Y-92064357D01*
X121781476Y-92064357D01*
X121841952Y-92034119D01*
X121872190Y-92003881D01*
X121902429Y-91943405D01*
X98715286Y-79154262D02*
X98503619Y-78851881D01*
X98352428Y-79154262D02*
X98352428Y-78519262D01*
X98594333Y-78519262D01*
X98654809Y-78549500D01*
X98685048Y-78579738D01*
X98715286Y-78640214D01*
X98715286Y-78730929D01*
X98685048Y-78791405D01*
X98654809Y-78821643D01*
X98594333Y-78851881D01*
X98352428Y-78851881D01*
X99320048Y-79154262D02*
X98957190Y-79154262D01*
X99138619Y-79154262D02*
X99138619Y-78519262D01*
X99078143Y-78609976D01*
X99017667Y-78670452D01*
X98957190Y-78700690D01*
X99713143Y-78519262D02*
X99773619Y-78519262D01*
X99834095Y-78549500D01*
X99864333Y-78579738D01*
X99894571Y-78640214D01*
X99924810Y-78761167D01*
X99924810Y-78912357D01*
X99894571Y-79033310D01*
X99864333Y-79093786D01*
X99834095Y-79124024D01*
X99773619Y-79154262D01*
X99713143Y-79154262D01*
X99652667Y-79124024D01*
X99622429Y-79093786D01*
X99592190Y-79033310D01*
X99561952Y-78912357D01*
X99561952Y-78761167D01*
X99592190Y-78640214D01*
X99622429Y-78579738D01*
X99652667Y-78549500D01*
X99713143Y-78519262D01*
X101255286Y-79154262D02*
X101043619Y-78851881D01*
X100892428Y-79154262D02*
X100892428Y-78519262D01*
X101134333Y-78519262D01*
X101194809Y-78549500D01*
X101225048Y-78579738D01*
X101255286Y-78640214D01*
X101255286Y-78730929D01*
X101225048Y-78791405D01*
X101194809Y-78821643D01*
X101134333Y-78851881D01*
X100892428Y-78851881D01*
X101860048Y-79154262D02*
X101497190Y-79154262D01*
X101678619Y-79154262D02*
X101678619Y-78519262D01*
X101618143Y-78609976D01*
X101557667Y-78670452D01*
X101497190Y-78700690D01*
X102464810Y-79154262D02*
X102101952Y-79154262D01*
X102283381Y-79154262D02*
X102283381Y-78519262D01*
X102222905Y-78609976D01*
X102162429Y-78670452D01*
X102101952Y-78700690D01*
X103795286Y-79154262D02*
X103583619Y-78851881D01*
X103432428Y-79154262D02*
X103432428Y-78519262D01*
X103674333Y-78519262D01*
X103734809Y-78549500D01*
X103765048Y-78579738D01*
X103795286Y-78640214D01*
X103795286Y-78730929D01*
X103765048Y-78791405D01*
X103734809Y-78821643D01*
X103674333Y-78851881D01*
X103432428Y-78851881D01*
X104400048Y-79154262D02*
X104037190Y-79154262D01*
X104218619Y-79154262D02*
X104218619Y-78519262D01*
X104158143Y-78609976D01*
X104097667Y-78670452D01*
X104037190Y-78700690D01*
X104641952Y-78579738D02*
X104672190Y-78549500D01*
X104732667Y-78519262D01*
X104883857Y-78519262D01*
X104944333Y-78549500D01*
X104974571Y-78579738D01*
X105004810Y-78640214D01*
X105004810Y-78700690D01*
X104974571Y-78791405D01*
X104611714Y-79154262D01*
X105004810Y-79154262D01*
X106335286Y-79154262D02*
X106123619Y-78851881D01*
X105972428Y-79154262D02*
X105972428Y-78519262D01*
X106214333Y-78519262D01*
X106274809Y-78549500D01*
X106305048Y-78579738D01*
X106335286Y-78640214D01*
X106335286Y-78730929D01*
X106305048Y-78791405D01*
X106274809Y-78821643D01*
X106214333Y-78851881D01*
X105972428Y-78851881D01*
X106940048Y-79154262D02*
X106577190Y-79154262D01*
X106758619Y-79154262D02*
X106758619Y-78519262D01*
X106698143Y-78609976D01*
X106637667Y-78670452D01*
X106577190Y-78700690D01*
X107151714Y-78519262D02*
X107544810Y-78519262D01*
X107333143Y-78761167D01*
X107423857Y-78761167D01*
X107484333Y-78791405D01*
X107514571Y-78821643D01*
X107544810Y-78882119D01*
X107544810Y-79033310D01*
X107514571Y-79093786D01*
X107484333Y-79124024D01*
X107423857Y-79154262D01*
X107242429Y-79154262D01*
X107181952Y-79124024D01*
X107151714Y-79093786D01*
M02*
