<?xml version="1.0" standalone="no"?>
 <!DOCTYPE svg PUBLIC "-//W3C//DTD SVG 1.1//EN" 
 "http://www.w3.org/Graphics/SVG/1.1/DTD/svg11.dtd"> 
<svg xmlns="http://www.w3.org/2000/svg" version="1.1" 
    width="29.7002cm" height="21.0007cm" viewBox="0 0 116930 82680 ">
<title>SVG Picture created as Starter_x51_USB-F_SilkS.svg date 2016/06/20 19:20:50 </title>
  <desc>Picture generated by PCBNEW </desc>
<g style="fill:#000000; fill-opacity:1;stroke:#000000; stroke-opacity:1;
stroke-linecap:round; stroke-linejoin:round; "
 transform="translate(0 0) scale(1 1)">
</g>
<g style="fill:#000000; fill-opacity:0.0; 
stroke:#000000; stroke-width:39.3701; stroke-opacity:1; 
stroke-linecap:round; stroke-linejoin:round;">
<path d="M13741 13944
L13741 38747
" />
<path d="M15513 12566
L15119 12566
" />
<path d="M47796 12566
L15513 12566
" />
<path d="M49174 38747
L49174 13944
" />
<path d="M15119 40125
L47796 40125
" />
<path d="M13741.5 38747.6 A1377.95 1377.95 0.0 0 0 15119.5 40125.6 " />
<path d="M47796.7 40125.6 A1377.95 1377.95 0.0 0 0 49174.6 38747.6 " />
<path d="M49174.6 13944.5 A1377.95 1377.95 0.0 0 0 47796.7 12566.5 " />
<path d="M15119.5 12566.5 A1377.95 1377.95 0.0 0 0 13741.5 13944.5 " />
</g>
<g style="fill:#000000; fill-opacity:0.0; 
stroke:#000000; stroke-width:118.11; stroke-opacity:1; 
stroke-linecap:round; stroke-linejoin:round;">
<path d="M42045 35676
L42045 36126
" />
<path d="M42214 36407
L42045 36857
L41877 36407
" />
<path d="M41022 35676
L41022 36126
" />
<path d="M41190 36407
L41022 36857
L40853 36407
" />
<path d="M40077 35676
L40077 36126
" />
<path d="M40246 36407
L40077 36857
L39908 36407
" />
<path d="M39053 35676
L39053 36126
" />
<path d="M39222 36407
L39053 36857
L38884 36407
" />
<path d="M46651 14883
L46413 15050
" />
<path d="M46651 15169
L46151 15169
L46151 14978
L46175 14930
L46198 14907
L46246 14883
L46317 14883
L46365 14907
L46389 14930
L46413 14978
L46413 15169
" />
<path d="M46151 14716
L46651 14383
" />
<path d="M46151 14383
L46651 14716
" />
<path d="M44177 35276
L44344 35776
L44510 35276
" />
<path d="M44677 35776
L44677 35276
" />
<path d="M44915 35776
L44915 35276
L45201 35776
L45201 35276
" />
<path d="M44344 33800
L44296 33776
L44225 33776
L44153 33800
L44105 33847
L44082 33895
L44058 33990
L44058 34061
L44082 34157
L44105 34204
L44153 34252
L44225 34276
L44272 34276
L44344 34252
L44367 34228
L44367 34061
L44272 34061
" />
<path d="M44582 34276
L44582 33776
L44867 34276
L44867 33776
" />
<path d="M45105 34276
L45105 33776
L45225 33776
L45296 33800
L45344 33847
L45367 33895
L45391 33990
L45391 34061
L45367 34157
L45344 34204
L45296 34252
L45225 34276
L45105 34276
" />
<path d="M44082 32685
L44463 32685
" />
<path d="M44272 32876
L44272 32495
" />
<path d="M44939 32376
L44701 32376
L44677 32614
L44701 32590
L44748 32566
L44867 32566
L44915 32590
L44939 32614
L44963 32661
L44963 32780
L44939 32828
L44915 32852
L44867 32876
L44748 32876
L44701 32852
L44677 32828
" />
<path d="M45105 32376
L45272 32876
L45439 32376
" />
<path d="M33379 36452
L33451 36476
L33570 36476
L33617 36452
L33641 36428
L33665 36380
L33665 36333
L33641 36285
L33617 36261
L33570 36238
L33475 36214
L33427 36190
L33403 36166
L33379 36119
L33379 36071
L33403 36023
L33427 36000
L33475 35976
L33594 35976
L33665 36000
" />
<path d="M33832 35976
L33951 36476
L34046 36119
L34141 36476
L34260 35976
" />
<path d="M34427 36023
L34451 36000
L34498 35976
L34617 35976
L34665 36000
L34689 36023
L34713 36071
L34713 36119
L34689 36190
L34403 36476
L34713 36476
" />
<path d="M35070 36666
L35046 36642
L34998 36571
L34975 36523
L34951 36452
L34927 36333
L34927 36238
L34951 36119
L34975 36047
L34998 36000
L35046 35928
L35070 35904
" />
<path d="M35260 36476
L35260 35976
L35451 35976
L35498 36000
L35522 36023
L35546 36071
L35546 36142
L35522 36190
L35498 36214
L35451 36238
L35260 36238
" />
<path d="M35713 35976
L36022 35976
L35855 36166
L35927 36166
L35975 36190
L35998 36214
L36022 36261
L36022 36380
L35998 36428
L35975 36452
L35927 36476
L35784 36476
L35736 36452
L35713 36428
" />
<path d="M36236 36428
L36260 36452
L36236 36476
L36213 36452
L36236 36428
L36236 36476
" />
<path d="M36427 35976
L36736 35976
L36570 36166
L36641 36166
L36689 36190
L36713 36214
L36736 36261
L36736 36380
L36713 36428
L36689 36452
L36641 36476
L36498 36476
L36451 36452
L36427 36428
" />
<path d="M36903 36666
L36927 36642
L36975 36571
L36998 36523
L37022 36452
L37046 36333
L37046 36238
L37022 36119
L36998 36047
L36975 36000
L36927 35928
L36903 35904
" />
<path d="M28979 36452
L29051 36476
L29170 36476
L29217 36452
L29241 36428
L29265 36380
L29265 36333
L29241 36285
L29217 36261
L29170 36238
L29075 36214
L29027 36190
L29003 36166
L28979 36119
L28979 36071
L29003 36023
L29027 36000
L29075 35976
L29194 35976
L29265 36000
" />
<path d="M29432 35976
L29551 36476
L29646 36119
L29741 36476
L29860 35976
" />
<path d="M30313 36476
L30027 36476
" />
<path d="M30170 36476
L30170 35976
L30122 36047
L30075 36095
L30027 36119
" />
<path d="M30670 36666
L30646 36642
L30598 36571
L30575 36523
L30551 36452
L30527 36333
L30527 36238
L30551 36119
L30575 36047
L30598 36000
L30646 35928
L30670 35904
" />
<path d="M30860 36476
L30860 35976
L31051 35976
L31098 36000
L31122 36023
L31146 36071
L31146 36142
L31122 36190
L31098 36214
L31051 36238
L30860 36238
" />
<path d="M31313 35976
L31622 35976
L31455 36166
L31527 36166
L31575 36190
L31598 36214
L31622 36261
L31622 36380
L31598 36428
L31575 36452
L31527 36476
L31384 36476
L31336 36452
L31313 36428
" />
<path d="M31836 36428
L31860 36452
L31836 36476
L31813 36452
L31836 36428
L31836 36476
" />
<path d="M32051 36023
L32075 36000
L32122 35976
L32241 35976
L32289 36000
L32313 36023
L32336 36071
L32336 36119
L32313 36190
L32027 36476
L32336 36476
" />
<path d="M32503 36666
L32527 36642
L32575 36571
L32598 36523
L32622 36452
L32646 36333
L32646 36238
L32622 36119
L32598 36047
L32575 36000
L32527 35928
L32503 35904
" />
<path d="M44298 36976
L44132 36738
" />
<path d="M44013 36976
L44013 36476
L44203 36476
L44251 36500
L44275 36523
L44298 36571
L44298 36642
L44275 36690
L44251 36714
L44203 36738
L44013 36738
" />
<path d="M44513 36714
L44679 36714
" />
<path d="M44751 36976
L44513 36976
L44513 36476
L44751 36476
" />
<path d="M44941 36952
L45013 36976
L45132 36976
L45179 36952
L45203 36928
L45227 36880
L45227 36833
L45203 36785
L45179 36761
L45132 36738
L45036 36714
L44989 36690
L44965 36666
L44941 36619
L44941 36571
L44965 36523
L44989 36500
L45036 36476
L45155 36476
L45227 36500
" />
<path d="M45441 36714
L45608 36714
" />
<path d="M45679 36976
L45441 36976
L45441 36476
L45679 36476
" />
<path d="M45822 36476
L46108 36476
" />
<path d="M45965 36976
L45965 36476
" />
<path d="M45051 15230
L45051 14945
" />
<path d="M45551 15088
L45051 15088
" />
<path d="M45051 14826
L45551 14492
" />
<path d="M45051 14492
L45551 14826
" />
<path d="M44125 15230
L44101 15278
L44101 15350
L44125 15421
L44172 15469
L44220 15492
L44315 15516
L44386 15516
L44482 15492
L44529 15469
L44577 15421
L44601 15350
L44601 15302
L44577 15230
L44553 15207
L44386 15207
L44386 15302
" />
<path d="M44601 14992
L44101 14992
L44601 14707
L44101 14707
" />
<path d="M44601 14469
L44101 14469
L44101 14350
L44125 14278
L44172 14230
L44220 14207
L44315 14183
L44386 14183
L44482 14207
L44529 14230
L44577 14278
L44601 14350
L44601 14469
" />
<path d="M43051 15516
L43551 15349
L43051 15183
" />
<path d="M43503 14730
L43527 14754
L43551 14826
L43551 14873
L43527 14945
L43479 14992
L43432 15016
L43336 15040
L43265 15040
L43170 15016
L43122 14992
L43075 14945
L43051 14873
L43051 14826
L43075 14754
L43098 14730
" />
<path d="M43503 14230
L43527 14254
L43551 14326
L43551 14373
L43527 14445
L43479 14492
L43432 14516
L43336 14540
L43265 14540
L43170 14516
L43122 14492
L43075 14445
L43051 14373
L43051 14326
L43075 14254
L43098 14230
" />
<path d="M40251 38576
L39751 38576
L39751 38385
L39775 38338
L39798 38314
L39846 38290
L39917 38290
L39965 38314
L39989 38338
L40013 38385
L40013 38576
" />
<path d="M39751 38123
L39751 37814
L39941 37980
L39941 37909
L39965 37861
L39989 37838
L40036 37814
L40155 37814
L40203 37838
L40227 37861
L40251 37909
L40251 38052
L40227 38100
L40203 38123
" />
<path d="M40203 37600
L40227 37576
L40251 37600
L40227 37623
L40203 37600
L40251 37600
" />
<path d="M39751 37123
L39751 37361
L39989 37385
L39965 37361
L39941 37314
L39941 37195
L39965 37147
L39989 37123
L40036 37100
L40155 37100
L40203 37123
L40227 37147
L40251 37195
L40251 37314
L40227 37361
L40203 37385
" />
<path d="M42351 38576
L41851 38576
L41851 38385
L41875 38338
L41898 38314
L41946 38290
L42017 38290
L42065 38314
L42089 38338
L42113 38385
L42113 38576
" />
<path d="M41851 38123
L41851 37814
L42041 37980
L42041 37909
L42065 37861
L42089 37838
L42136 37814
L42255 37814
L42303 37838
L42327 37861
L42351 37909
L42351 38052
L42327 38100
L42303 38123
" />
<path d="M42303 37600
L42327 37576
L42351 37600
L42327 37623
L42303 37600
L42351 37600
" />
<path d="M41851 37409
L41851 37076
L42351 37290
" />
<path d="M41251 38576
L40751 38576
L40751 38385
L40775 38338
L40798 38314
L40846 38290
L40917 38290
L40965 38314
L40989 38338
L41013 38385
L41013 38576
" />
<path d="M40751 38123
L40751 37814
L40941 37980
L40941 37909
L40965 37861
L40989 37838
L41036 37814
L41155 37814
L41203 37838
L41227 37861
L41251 37909
L41251 38052
L41227 38100
L41203 38123
" />
<path d="M41203 37600
L41227 37576
L41251 37600
L41227 37623
L41203 37600
L41251 37600
" />
<path d="M40751 37147
L40751 37242
L40775 37290
L40798 37314
L40870 37361
L40965 37385
L41155 37385
L41203 37361
L41227 37338
L41251 37290
L41251 37195
L41227 37147
L41203 37123
L41155 37100
L41036 37100
L40989 37123
L40965 37147
L40941 37195
L40941 37290
L40965 37338
L40989 37361
L41036 37385
" />
<path d="M39251 38576
L38751 38576
L38751 38385
L38775 38338
L38798 38314
L38846 38290
L38917 38290
L38965 38314
L38989 38338
L39013 38385
L39013 38576
" />
<path d="M38751 38123
L38751 37814
L38941 37980
L38941 37909
L38965 37861
L38989 37838
L39036 37814
L39155 37814
L39203 37838
L39227 37861
L39251 37909
L39251 38052
L39227 38100
L39203 38123
" />
<path d="M39203 37600
L39227 37576
L39251 37600
L39227 37623
L39203 37600
L39251 37600
" />
<path d="M38917 37147
L39251 37147
" />
<path d="M38727 37266
L39084 37385
L39084 37076
" />
<path d="M38351 38576
L37851 38576
L37851 38385
L37875 38338
L37898 38314
L37946 38290
L38017 38290
L38065 38314
L38089 38338
L38113 38385
L38113 38576
" />
<path d="M37851 38123
L37851 37814
L38041 37980
L38041 37909
L38065 37861
L38089 37838
L38136 37814
L38255 37814
L38303 37838
L38327 37861
L38351 37909
L38351 38052
L38327 38100
L38303 38123
" />
<path d="M38303 37600
L38327 37576
L38351 37600
L38327 37623
L38303 37600
L38351 37600
" />
<path d="M37851 37409
L37851 37100
L38041 37266
L38041 37195
L38065 37147
L38089 37123
L38136 37100
L38255 37100
L38303 37123
L38327 37147
L38351 37195
L38351 37338
L38327 37385
L38303 37409
" />
<path d="M37251 38576
L36751 38576
L36751 38385
L36775 38338
L36798 38314
L36846 38290
L36917 38290
L36965 38314
L36989 38338
L37013 38385
L37013 38576
" />
<path d="M36751 38123
L36751 37814
L36941 37980
L36941 37909
L36965 37861
L36989 37838
L37036 37814
L37155 37814
L37203 37838
L37227 37861
L37251 37909
L37251 38052
L37227 38100
L37203 38123
" />
<path d="M37203 37600
L37227 37576
L37251 37600
L37227 37623
L37203 37600
L37251 37600
" />
<path d="M36798 37385
L36775 37361
L36751 37314
L36751 37195
L36775 37147
L36798 37123
L36846 37100
L36894 37100
L36965 37123
L37251 37409
L37251 37100
" />
<path d="M36251 38576
L35751 38576
L35751 38385
L35775 38338
L35798 38314
L35846 38290
L35917 38290
L35965 38314
L35989 38338
L36013 38385
L36013 38576
" />
<path d="M35751 38123
L35751 37814
L35941 37980
L35941 37909
L35965 37861
L35989 37838
L36036 37814
L36155 37814
L36203 37838
L36227 37861
L36251 37909
L36251 38052
L36227 38100
L36203 38123
" />
<path d="M36203 37600
L36227 37576
L36251 37600
L36227 37623
L36203 37600
L36251 37600
" />
<path d="M36251 37100
L36251 37385
" />
<path d="M36251 37242
L35751 37242
L35822 37290
L35870 37338
L35894 37385
" />
<path d="M35251 38576
L34751 38576
L34751 38385
L34775 38338
L34798 38314
L34846 38290
L34917 38290
L34965 38314
L34989 38338
L35013 38385
L35013 38576
" />
<path d="M34751 38123
L34751 37814
L34941 37980
L34941 37909
L34965 37861
L34989 37838
L35036 37814
L35155 37814
L35203 37838
L35227 37861
L35251 37909
L35251 38052
L35227 38100
L35203 38123
" />
<path d="M35203 37600
L35227 37576
L35251 37600
L35227 37623
L35203 37600
L35251 37600
" />
<path d="M34751 37266
L34751 37219
L34775 37171
L34798 37147
L34846 37123
L34941 37100
L35060 37100
L35155 37123
L35203 37147
L35227 37171
L35251 37219
L35251 37266
L35227 37314
L35203 37338
L35155 37361
L35060 37385
L34941 37385
L34846 37361
L34798 37338
L34775 37314
L34751 37266
" />
<path d="M33251 38576
L32751 38576
L32751 38385
L32775 38338
L32798 38314
L32846 38290
L32917 38290
L32965 38314
L32989 38338
L33013 38385
L33013 38576
" />
<path d="M33251 37814
L33251 38100
" />
<path d="M33251 37957
L32751 37957
L32822 38004
L32870 38052
L32894 38100
" />
<path d="M33203 37600
L33227 37576
L33251 37600
L33227 37623
L33203 37600
L33251 37600
" />
<path d="M32751 37409
L32751 37076
L33251 37290
" />
<path d="M32251 38576
L31751 38576
L31751 38385
L31775 38338
L31798 38314
L31846 38290
L31917 38290
L31965 38314
L31989 38338
L32013 38385
L32013 38576
" />
<path d="M32251 37814
L32251 38100
" />
<path d="M32251 37957
L31751 37957
L31822 38004
L31870 38052
L31894 38100
" />
<path d="M32203 37600
L32227 37576
L32251 37600
L32227 37623
L32203 37600
L32251 37600
" />
<path d="M31751 37147
L31751 37242
L31775 37290
L31798 37314
L31870 37361
L31965 37385
L32155 37385
L32203 37361
L32227 37338
L32251 37290
L32251 37195
L32227 37147
L32203 37123
L32155 37100
L32036 37100
L31989 37123
L31965 37147
L31941 37195
L31941 37290
L31965 37338
L31989 37361
L32036 37385
" />
<path d="M31251 38576
L30751 38576
L30751 38385
L30775 38338
L30798 38314
L30846 38290
L30917 38290
L30965 38314
L30989 38338
L31013 38385
L31013 38576
" />
<path d="M31251 37814
L31251 38100
" />
<path d="M31251 37957
L30751 37957
L30822 38004
L30870 38052
L30894 38100
" />
<path d="M31203 37600
L31227 37576
L31251 37600
L31227 37623
L31203 37600
L31251 37600
" />
<path d="M30751 37123
L30751 37361
L30989 37385
L30965 37361
L30941 37314
L30941 37195
L30965 37147
L30989 37123
L31036 37100
L31155 37100
L31203 37123
L31227 37147
L31251 37195
L31251 37314
L31227 37361
L31203 37385
" />
<path d="M30251 38576
L29751 38576
L29751 38385
L29775 38338
L29798 38314
L29846 38290
L29917 38290
L29965 38314
L29989 38338
L30013 38385
L30013 38576
" />
<path d="M30251 37814
L30251 38100
" />
<path d="M30251 37957
L29751 37957
L29822 38004
L29870 38052
L29894 38100
" />
<path d="M30203 37600
L30227 37576
L30251 37600
L30227 37623
L30203 37600
L30251 37600
" />
<path d="M29917 37147
L30251 37147
" />
<path d="M29727 37266
L30084 37385
L30084 37076
" />
<path d="M29251 38576
L28751 38576
L28751 38385
L28775 38338
L28798 38314
L28846 38290
L28917 38290
L28965 38314
L28989 38338
L29013 38385
L29013 38576
" />
<path d="M29251 37814
L29251 38100
" />
<path d="M29251 37957
L28751 37957
L28822 38004
L28870 38052
L28894 38100
" />
<path d="M29203 37600
L29227 37576
L29251 37600
L29227 37623
L29203 37600
L29251 37600
" />
<path d="M28751 37409
L28751 37100
L28941 37266
L28941 37195
L28965 37147
L28989 37123
L29036 37100
L29155 37100
L29203 37123
L29227 37147
L29251 37195
L29251 37338
L29227 37385
L29203 37409
" />
<path d="M28251 38576
L27751 38576
L27751 38385
L27775 38338
L27798 38314
L27846 38290
L27917 38290
L27965 38314
L27989 38338
L28013 38385
L28013 38576
" />
<path d="M28251 37814
L28251 38100
" />
<path d="M28251 37957
L27751 37957
L27822 38004
L27870 38052
L27894 38100
" />
<path d="M28203 37600
L28227 37576
L28251 37600
L28227 37623
L28203 37600
L28251 37600
" />
<path d="M27798 37385
L27775 37361
L27751 37314
L27751 37195
L27775 37147
L27798 37123
L27846 37100
L27894 37100
L27965 37123
L28251 37409
L28251 37100
" />
<path d="M27251 38576
L26751 38576
L26751 38385
L26775 38338
L26798 38314
L26846 38290
L26917 38290
L26965 38314
L26989 38338
L27013 38385
L27013 38576
" />
<path d="M27251 37814
L27251 38100
" />
<path d="M27251 37957
L26751 37957
L26822 38004
L26870 38052
L26894 38100
" />
<path d="M27203 37600
L27227 37576
L27251 37600
L27227 37623
L27203 37600
L27251 37600
" />
<path d="M27251 37100
L27251 37385
" />
<path d="M27251 37242
L26751 37242
L26822 37290
L26870 37338
L26894 37385
" />
<path d="M26251 38576
L25751 38576
L25751 38385
L25775 38338
L25798 38314
L25846 38290
L25917 38290
L25965 38314
L25989 38338
L26013 38385
L26013 38576
" />
<path d="M26251 37814
L26251 38100
" />
<path d="M26251 37957
L25751 37957
L25822 38004
L25870 38052
L25894 38100
" />
<path d="M26203 37600
L26227 37576
L26251 37600
L26227 37623
L26203 37600
L26251 37600
" />
<path d="M25751 37266
L25751 37219
L25775 37171
L25798 37147
L25846 37123
L25941 37100
L26060 37100
L26155 37123
L26203 37147
L26227 37171
L26251 37219
L26251 37266
L26227 37314
L26203 37338
L26155 37361
L26060 37385
L25941 37385
L25846 37361
L25798 37338
L25775 37314
L25751 37266
" />
<path d="M42351 15576
L41851 15576
L41851 15385
L41875 15338
L41898 15314
L41946 15290
L42017 15290
L42065 15314
L42089 15338
L42113 15385
L42113 15576
" />
<path d="M41898 15100
L41875 15076
L41851 15028
L41851 14909
L41875 14861
L41898 14838
L41946 14814
L41994 14814
L42065 14838
L42351 15123
L42351 14814
" />
<path d="M42303 14600
L42327 14576
L42351 14600
L42327 14623
L42303 14600
L42351 14600
" />
<path d="M41851 14266
L41851 14219
L41875 14171
L41898 14147
L41946 14123
L42041 14100
L42160 14100
L42255 14123
L42303 14147
L42327 14171
L42351 14219
L42351 14266
L42327 14314
L42303 14338
L42255 14361
L42160 14385
L42041 14385
L41946 14361
L41898 14338
L41875 14314
L41851 14266
" />
<path d="M41251 15576
L40751 15576
L40751 15385
L40775 15338
L40798 15314
L40846 15290
L40917 15290
L40965 15314
L40989 15338
L41013 15385
L41013 15576
" />
<path d="M40798 15100
L40775 15076
L40751 15028
L40751 14909
L40775 14861
L40798 14838
L40846 14814
L40894 14814
L40965 14838
L41251 15123
L41251 14814
" />
<path d="M41203 14600
L41227 14576
L41251 14600
L41227 14623
L41203 14600
L41251 14600
" />
<path d="M41251 14100
L41251 14385
" />
<path d="M41251 14242
L40751 14242
L40822 14290
L40870 14338
L40894 14385
" />
<path d="M40251 15576
L39751 15576
L39751 15385
L39775 15338
L39798 15314
L39846 15290
L39917 15290
L39965 15314
L39989 15338
L40013 15385
L40013 15576
" />
<path d="M39798 15100
L39775 15076
L39751 15028
L39751 14909
L39775 14861
L39798 14838
L39846 14814
L39894 14814
L39965 14838
L40251 15123
L40251 14814
" />
<path d="M40203 14600
L40227 14576
L40251 14600
L40227 14623
L40203 14600
L40251 14600
" />
<path d="M39798 14385
L39775 14361
L39751 14314
L39751 14195
L39775 14147
L39798 14123
L39846 14100
L39894 14100
L39965 14123
L40251 14409
L40251 14100
" />
<path d="M39251 15576
L38751 15576
L38751 15385
L38775 15338
L38798 15314
L38846 15290
L38917 15290
L38965 15314
L38989 15338
L39013 15385
L39013 15576
" />
<path d="M38798 15100
L38775 15076
L38751 15028
L38751 14909
L38775 14861
L38798 14838
L38846 14814
L38894 14814
L38965 14838
L39251 15123
L39251 14814
" />
<path d="M39203 14600
L39227 14576
L39251 14600
L39227 14623
L39203 14600
L39251 14600
" />
<path d="M38751 14409
L38751 14100
L38941 14266
L38941 14195
L38965 14147
L38989 14123
L39036 14100
L39155 14100
L39203 14123
L39227 14147
L39251 14195
L39251 14338
L39227 14385
L39203 14409
" />
<path d="M38251 15576
L37751 15576
L37751 15385
L37775 15338
L37798 15314
L37846 15290
L37917 15290
L37965 15314
L37989 15338
L38013 15385
L38013 15576
" />
<path d="M37798 15100
L37775 15076
L37751 15028
L37751 14909
L37775 14861
L37798 14838
L37846 14814
L37894 14814
L37965 14838
L38251 15123
L38251 14814
" />
<path d="M38203 14600
L38227 14576
L38251 14600
L38227 14623
L38203 14600
L38251 14600
" />
<path d="M37917 14147
L38251 14147
" />
<path d="M37727 14266
L38084 14385
L38084 14076
" />
<path d="M37251 15576
L36751 15576
L36751 15385
L36775 15338
L36798 15314
L36846 15290
L36917 15290
L36965 15314
L36989 15338
L37013 15385
L37013 15576
" />
<path d="M36798 15100
L36775 15076
L36751 15028
L36751 14909
L36775 14861
L36798 14838
L36846 14814
L36894 14814
L36965 14838
L37251 15123
L37251 14814
" />
<path d="M37203 14600
L37227 14576
L37251 14600
L37227 14623
L37203 14600
L37251 14600
" />
<path d="M36751 14123
L36751 14361
L36989 14385
L36965 14361
L36941 14314
L36941 14195
L36965 14147
L36989 14123
L37036 14100
L37155 14100
L37203 14123
L37227 14147
L37251 14195
L37251 14314
L37227 14361
L37203 14385
" />
<path d="M35251 15576
L34751 15576
L34751 15385
L34775 15338
L34798 15314
L34846 15290
L34917 15290
L34965 15314
L34989 15338
L35013 15385
L35013 15576
" />
<path d="M34798 15100
L34775 15076
L34751 15028
L34751 14909
L34775 14861
L34798 14838
L34846 14814
L34894 14814
L34965 14838
L35251 15123
L35251 14814
" />
<path d="M35203 14600
L35227 14576
L35251 14600
L35227 14623
L35203 14600
L35251 14600
" />
<path d="M34751 14409
L34751 14076
L35251 14290
" />
<path d="M36251 15576
L35751 15576
L35751 15385
L35775 15338
L35798 15314
L35846 15290
L35917 15290
L35965 15314
L35989 15338
L36013 15385
L36013 15576
" />
<path d="M35798 15100
L35775 15076
L35751 15028
L35751 14909
L35775 14861
L35798 14838
L35846 14814
L35894 14814
L35965 14838
L36251 15123
L36251 14814
" />
<path d="M36203 14600
L36227 14576
L36251 14600
L36227 14623
L36203 14600
L36251 14600
" />
<path d="M35751 14147
L35751 14242
L35775 14290
L35798 14314
L35870 14361
L35965 14385
L36155 14385
L36203 14361
L36227 14338
L36251 14290
L36251 14195
L36227 14147
L36203 14123
L36155 14100
L36036 14100
L35989 14123
L35965 14147
L35941 14195
L35941 14290
L35965 14338
L35989 14361
L36036 14385
" />
</g>
<g style="fill:#000000; fill-opacity:0.0; 
stroke:#000000; stroke-width:100; stroke-opacity:1; 
stroke-linecap:round; stroke-linejoin:round;">
<path d="M33351 15576
L32851 15576
L32851 15385
L32875 15338
L32898 15314
L32946 15290
L33017 15290
L33065 15314
L33089 15338
L33113 15385
L33113 15576
" />
<path d="M32851 14980
L32851 14933
L32875 14885
L32898 14861
L32946 14838
L33041 14814
L33160 14814
L33255 14838
L33303 14861
L33327 14885
L33351 14933
L33351 14980
L33327 15028
L33303 15052
L33255 15076
L33160 15100
L33041 15100
L32946 15076
L32898 15052
L32875 15028
L32851 14980
" />
<path d="M33303 14600
L33327 14576
L33351 14600
L33327 14623
L33303 14600
L33351 14600
" />
<path d="M32851 14409
L32851 14076
L33351 14290
" />
<path d="M32251 15576
L31751 15576
L31751 15385
L31775 15338
L31798 15314
L31846 15290
L31917 15290
L31965 15314
L31989 15338
L32013 15385
L32013 15576
" />
<path d="M31751 14980
L31751 14933
L31775 14885
L31798 14861
L31846 14838
L31941 14814
L32060 14814
L32155 14838
L32203 14861
L32227 14885
L32251 14933
L32251 14980
L32227 15028
L32203 15052
L32155 15076
L32060 15100
L31941 15100
L31846 15076
L31798 15052
L31775 15028
L31751 14980
" />
<path d="M32203 14600
L32227 14576
L32251 14600
L32227 14623
L32203 14600
L32251 14600
" />
<path d="M31751 14147
L31751 14242
L31775 14290
L31798 14314
L31870 14361
L31965 14385
L32155 14385
L32203 14361
L32227 14338
L32251 14290
L32251 14195
L32227 14147
L32203 14123
L32155 14100
L32036 14100
L31989 14123
L31965 14147
L31941 14195
L31941 14290
L31965 14338
L31989 14361
L32036 14385
" />
<path d="M31251 15576
L30751 15576
L30751 15385
L30775 15338
L30798 15314
L30846 15290
L30917 15290
L30965 15314
L30989 15338
L31013 15385
L31013 15576
" />
<path d="M30751 14980
L30751 14933
L30775 14885
L30798 14861
L30846 14838
L30941 14814
L31060 14814
L31155 14838
L31203 14861
L31227 14885
L31251 14933
L31251 14980
L31227 15028
L31203 15052
L31155 15076
L31060 15100
L30941 15100
L30846 15076
L30798 15052
L30775 15028
L30751 14980
" />
<path d="M31203 14600
L31227 14576
L31251 14600
L31227 14623
L31203 14600
L31251 14600
" />
<path d="M30751 14123
L30751 14361
L30989 14385
L30965 14361
L30941 14314
L30941 14195
L30965 14147
L30989 14123
L31036 14100
L31155 14100
L31203 14123
L31227 14147
L31251 14195
L31251 14314
L31227 14361
L31203 14385
" />
<path d="M30251 15576
L29751 15576
L29751 15385
L29775 15338
L29798 15314
L29846 15290
L29917 15290
L29965 15314
L29989 15338
L30013 15385
L30013 15576
" />
<path d="M29751 14980
L29751 14933
L29775 14885
L29798 14861
L29846 14838
L29941 14814
L30060 14814
L30155 14838
L30203 14861
L30227 14885
L30251 14933
L30251 14980
L30227 15028
L30203 15052
L30155 15076
L30060 15100
L29941 15100
L29846 15076
L29798 15052
L29775 15028
L29751 14980
" />
<path d="M30203 14600
L30227 14576
L30251 14600
L30227 14623
L30203 14600
L30251 14600
" />
<path d="M29917 14147
L30251 14147
" />
<path d="M29727 14266
L30084 14385
L30084 14076
" />
<path d="M29251 15576
L28751 15576
L28751 15385
L28775 15338
L28798 15314
L28846 15290
L28917 15290
L28965 15314
L28989 15338
L29013 15385
L29013 15576
" />
<path d="M28751 14980
L28751 14933
L28775 14885
L28798 14861
L28846 14838
L28941 14814
L29060 14814
L29155 14838
L29203 14861
L29227 14885
L29251 14933
L29251 14980
L29227 15028
L29203 15052
L29155 15076
L29060 15100
L28941 15100
L28846 15076
L28798 15052
L28775 15028
L28751 14980
" />
<path d="M29203 14600
L29227 14576
L29251 14600
L29227 14623
L29203 14600
L29251 14600
" />
<path d="M28751 14409
L28751 14100
L28941 14266
L28941 14195
L28965 14147
L28989 14123
L29036 14100
L29155 14100
L29203 14123
L29227 14147
L29251 14195
L29251 14338
L29227 14385
L29203 14409
" />
<path d="M28151 15576
L27651 15576
L27651 15385
L27675 15338
L27698 15314
L27746 15290
L27817 15290
L27865 15314
L27889 15338
L27913 15385
L27913 15576
" />
<path d="M27651 14980
L27651 14933
L27675 14885
L27698 14861
L27746 14838
L27841 14814
L27960 14814
L28055 14838
L28103 14861
L28127 14885
L28151 14933
L28151 14980
L28127 15028
L28103 15052
L28055 15076
L27960 15100
L27841 15100
L27746 15076
L27698 15052
L27675 15028
L27651 14980
" />
<path d="M28103 14600
L28127 14576
L28151 14600
L28127 14623
L28103 14600
L28151 14600
" />
<path d="M27698 14385
L27675 14361
L27651 14314
L27651 14195
L27675 14147
L27698 14123
L27746 14100
L27794 14100
L27865 14123
L28151 14409
L28151 14100
" />
<path d="M27251 15576
L26751 15576
L26751 15385
L26775 15338
L26798 15314
L26846 15290
L26917 15290
L26965 15314
L26989 15338
L27013 15385
L27013 15576
" />
<path d="M26751 14980
L26751 14933
L26775 14885
L26798 14861
L26846 14838
L26941 14814
L27060 14814
L27155 14838
L27203 14861
L27227 14885
L27251 14933
L27251 14980
L27227 15028
L27203 15052
L27155 15076
L27060 15100
L26941 15100
L26846 15076
L26798 15052
L26775 15028
L26751 14980
" />
<path d="M27203 14600
L27227 14576
L27251 14600
L27227 14623
L27203 14600
L27251 14600
" />
<path d="M27251 14100
L27251 14385
" />
<path d="M27251 14242
L26751 14242
L26822 14290
L26870 14338
L26894 14385
" />
<path d="M26151 15576
L25651 15576
L25651 15385
L25675 15338
L25698 15314
L25746 15290
L25817 15290
L25865 15314
L25889 15338
L25913 15385
L25913 15576
" />
<path d="M25651 14980
L25651 14933
L25675 14885
L25698 14861
L25746 14838
L25841 14814
L25960 14814
L26055 14838
L26103 14861
L26127 14885
L26151 14933
L26151 14980
L26127 15028
L26103 15052
L26055 15076
L25960 15100
L25841 15100
L25746 15076
L25698 15052
L25675 15028
L25651 14980
" />
<path d="M26103 14600
L26127 14576
L26151 14600
L26127 14623
L26103 14600
L26151 14600
" />
<path d="M25651 14266
L25651 14219
L25675 14171
L25698 14147
L25746 14123
L25841 14100
L25960 14100
L26055 14123
L26103 14147
L26127 14171
L26151 14219
L26151 14266
L26127 14314
L26103 14338
L26055 14361
L25960 14385
L25841 14385
L25746 14361
L25698 14338
L25675 14314
L25651 14266
" />
</g>
<g style="fill:#000000; fill-opacity:0.0; 
stroke:#000000; stroke-width:118.11; stroke-opacity:1; 
stroke-linecap:round; stroke-linejoin:round;">
<path d="M16080 13307
L16277 13307
" />
<path d="M16361 13617
L16080 13617
L16080 13026
L16361 13026
" />
<path d="M16558 13617
L16867 13223
" />
<path d="M16558 13223
L16867 13617
" />
<path d="M17092 13223
L17092 13814
" />
<path d="M17092 13251
L17148 13223
L17261 13223
L17317 13251
L17345 13279
L17373 13335
L17373 13504
L17345 13560
L17317 13589
L17261 13617
L17148 13617
L17092 13589
" />
<path d="M17711 13617
L17655 13589
L17626 13532
L17626 13026
" />
<path d="M18020 13617
L17964 13589
L17936 13560
L17908 13504
L17908 13335
L17936 13279
L17964 13251
L18020 13223
L18105 13223
L18161 13251
L18189 13279
L18217 13335
L18217 13504
L18189 13560
L18161 13589
L18105 13617
L18020 13617
" />
<path d="M18470 13617
L18470 13223
" />
<path d="M18470 13335
L18498 13279
L18526 13251
L18583 13223
L18639 13223
" />
<path d="M19061 13589
L19004 13617
L18892 13617
L18836 13589
L18808 13532
L18808 13307
L18836 13251
L18892 13223
L19004 13223
L19061 13251
L19089 13307
L19089 13364
L18808 13420
" />
<path d="M19764 13589
L19848 13617
L19989 13617
L20045 13589
L20073 13560
L20101 13504
L20101 13448
L20073 13392
L20045 13364
L19989 13335
L19876 13307
L19820 13279
L19792 13251
L19764 13195
L19764 13139
L19792 13082
L19820 13054
L19876 13026
L20017 13026
L20101 13054
" />
<path d="M20270 13223
L20495 13223
" />
<path d="M20354 13026
L20354 13532
L20382 13589
L20439 13617
L20495 13617
" />
<path d="M20945 13617
L20945 13307
L20917 13251
L20860 13223
L20748 13223
L20692 13251
" />
<path d="M20945 13589
L20889 13617
L20748 13617
L20692 13589
L20664 13532
L20664 13476
L20692 13420
L20748 13392
L20889 13392
L20945 13364
" />
<path d="M21226 13617
L21226 13223
" />
<path d="M21226 13335
L21254 13279
L21282 13251
L21338 13223
L21395 13223
" />
<path d="M21507 13223
L21732 13223
" />
<path d="M21592 13026
L21592 13532
L21620 13589
L21676 13617
L21732 13617
" />
<path d="M22154 13589
L22098 13617
L21985 13617
L21929 13589
L21901 13532
L21901 13307
L21929 13251
L21985 13223
L22098 13223
L22154 13251
L22182 13307
L22182 13364
L21901 13420
" />
<path d="M22435 13617
L22435 13223
" />
<path d="M22435 13335
L22463 13279
L22491 13251
L22548 13223
L22604 13223
" />
<path d="M23335 13279
L23279 13251
L23251 13223
L23223 13167
L23223 13139
L23251 13082
L23279 13054
L23335 13026
L23448 13026
L23504 13054
L23532 13082
L23560 13139
L23560 13167
L23532 13223
L23504 13251
L23448 13279
L23335 13279
L23279 13307
L23251 13335
L23223 13392
L23223 13504
L23251 13560
L23279 13589
L23335 13617
L23448 13617
L23504 13589
L23532 13560
L23560 13504
L23560 13392
L23532 13335
L23504 13307
L23448 13279
" />
<path d="M23926 13026
L23982 13026
L24038 13054
L24066 13082
L24094 13139
L24123 13251
L24123 13392
L24094 13504
L24066 13560
L24038 13589
L23982 13617
L23926 13617
L23869 13589
L23841 13560
L23813 13504
L23785 13392
L23785 13251
L23813 13139
L23841 13082
L23869 13054
L23926 13026
" />
<path d="M24657 13026
L24376 13026
L24347 13307
L24376 13279
L24432 13251
L24572 13251
L24629 13279
L24657 13307
L24685 13364
L24685 13504
L24657 13560
L24629 13589
L24572 13617
L24432 13617
L24376 13589
L24347 13560
" />
<path d="M25247 13617
L24910 13617
" />
<path d="M25079 13617
L25079 13026
L25022 13110
L24966 13167
L24910 13195
" />
</g>
<g style="fill:#000000; fill-opacity:0.0; 
stroke:#000000; stroke-width:59.0551; stroke-opacity:1; 
stroke-linecap:round; stroke-linejoin:round;">
<path d="M15587 31178
L15337 31428
" />
<path d="M18587 31178
L18837 31428
" />
<path d="M18587 23678
L18837 23428
" />
<path d="M15587 23678
L15337 23428
" />
<path d="M18837 26678
L18587 26678
" />
<path d="M18587 26678
L18587 23678
" />
<path d="M18587 23678
L15587 23678
" />
<path d="M15587 23678
L15587 31178
" />
<path d="M15587 31178
L18587 31178
" />
<path d="M18587 31178
L18587 28178
" />
<path d="M18587 28178
L18837 28178
" />
<path d="M18837 31428
L18837 23428
" />
<path d="M15337 23428
L15337 31428
" />
<path d="M15337 31428
L18837 31428
" />
<path d="M15337 23428
L18837 23428
" />
<path d="M17862 30380
L18283 30105
" />
<path d="M18283 30105
L17862 29829
" />
<path d="M17862 29829
L17862 30380
" />
<path d="M13849 21454
L13849 16654
" />
<path d="M17199 16654
L15199 16654
" />
<path d="M17199 21454
L15199 21454
" />
<path d="M17199 16654
L17199 21454
" />
<path d="M17221 32421
L17221 33171
" />
<path d="M17221 35821
L17221 35071
" />
<path d="M17221 35821
L16821 35821
" />
<path d="M13871 35821
L14971 35821
" />
<path d="M17221 32421
L13871 32421
" />
<path d="M13871 32421
L13871 35821
" />
<path d="M20704 20800
L45704 20800
" />
<path d="M20507 26508
L20507 20996
" />
<path d="M45704 26705
L20704 26705
" />
<path d="M45901 20996
L45901 26508
" />
<path d="M45900 20996 A196 196 0.0 0 0 45704 20800 " />
<path d="M45704 26705 A197 197 0.0 0 0 45901 26508 " />
<path d="M20507 26508 A197 197 0.0 0 0 20704 26705 " />
<path d="M20704 20799 A197 197 0.0 0 0 20507 20996 " />
<path d="M18814 18792
L47633 18792
" />
<path d="M47633 18792
L47633 28792
" />
<path d="M47633 28792
L18814 28792
" />
<path d="M18814 28792
L18814 18792
" />
<path d="M17475 16666
L48971 16666
" />
<path d="M48971 16666
L48971 30839
" />
<path d="M48971 30839
L17475 30839
" />
<path d="M17475 30839
L17475 16666
" />
<path d="M23925 32850
L23125 32850
" />
<path d="M22975 32900
L24075 32900
" />
<path d="M24175 32950
L22875 32950
" />
<path d="M22775 33000
L24275 33000
" />
<path d="M22725 33050
L24325 33050
" />
<path d="M24425 33100
L22625 33100
" />
<path d="M25175 32700
L21875 32700
" />
<path d="M21875 32700
L21875 35700
" />
<path d="M21875 35700
L22175 36000
" />
<path d="M22175 36000
L24875 36000
" />
<path d="M24875 36000
L25175 35700
" />
<path d="M25175 35700
L25175 32700
" />
<path d="M23525 35800
L23525 35500
" />
<path d="M23675 35650
L23375 35650
" />
<circle cx="23525" cy="34350" r="1550" /> 
<circle cx="17670.7" cy="38298.8" r="39.3701" /> 
<path d="M18064 38811
L18064 38889
" />
<path d="M18064 38889
L17986 38889
" />
<path d="M17986 38811
L17986 38889
" />
<path d="M18064 38811
L17986 38811
" />
<path d="M18300 39027
L18300 39164
" />
<path d="M18300 39164
L18202 39164
" />
<path d="M18202 39027
L18202 39164
" />
<path d="M18300 39027
L18202 39027
" />
<path d="M18300 39164
L18300 39204
" />
<path d="M18300 39204
L17829 39204
" />
<path d="M17829 39164
L17829 39204
" />
<path d="M18300 39164
L17829 39164
" />
<path d="M17809 39164
L17809 39204
" />
<path d="M17809 39204
L17750 39204
" />
<path d="M17750 39164
L17750 39204
" />
<path d="M17809 39164
L17750 39164
" />
<path d="M18300 38496
L18300 38536
" />
<path d="M18300 38536
L17829 38536
" />
<path d="M17829 38496
L17829 38536
" />
<path d="M18300 38496
L17829 38496
" />
<path d="M17809 38496
L17809 38536
" />
<path d="M17809 38536
L17750 38536
" />
<path d="M17750 38496
L17750 38536
" />
<path d="M17809 38496
L17750 38496
" />
<path d="M18300 39027
L18300 39086
" />
<path d="M18300 39086
L18202 39086
" />
<path d="M18202 39027
L18202 39086
" />
<path d="M18300 39027
L18202 39027
" />
<path d="M18320 39460
L18320 38240
" />
<path d="M18320 38240
L17730 38240
" />
<path d="M17730 38240
L17730 39460
" />
<path d="M17730 39460
L18320 39460
" />
<path d="M18221 39066 A291.671 291.671 0.0 0 0 18221.6 38634.5 " />
<path d="M18221 38634 A291.671 291.671 0.0 0 0 17828.8 38634.2 " />
<path d="M17829 38634 A291.671 291.671 0.0 0 0 17828.4 39065.5 " />
<path d="M17829 39066 A291.671 291.671 0.0 0 0 18221.2 39065.8 " />
<circle cx="38670.7" cy="33998.8" r="39.3701" /> 
<path d="M39064 34511
L39064 34589
" />
<path d="M39064 34589
L38986 34589
" />
<path d="M38986 34511
L38986 34589
" />
<path d="M39064 34511
L38986 34511
" />
<path d="M39300 34727
L39300 34864
" />
<path d="M39300 34864
L39202 34864
" />
<path d="M39202 34727
L39202 34864
" />
<path d="M39300 34727
L39202 34727
" />
<path d="M39300 34864
L39300 34904
" />
<path d="M39300 34904
L38829 34904
" />
<path d="M38829 34864
L38829 34904
" />
<path d="M39300 34864
L38829 34864
" />
<path d="M38809 34864
L38809 34904
" />
<path d="M38809 34904
L38750 34904
" />
<path d="M38750 34864
L38750 34904
" />
<path d="M38809 34864
L38750 34864
" />
<path d="M39300 34196
L39300 34236
" />
<path d="M39300 34236
L38829 34236
" />
<path d="M38829 34196
L38829 34236
" />
<path d="M39300 34196
L38829 34196
" />
<path d="M38809 34196
L38809 34236
" />
<path d="M38809 34236
L38750 34236
" />
<path d="M38750 34196
L38750 34236
" />
<path d="M38809 34196
L38750 34196
" />
<path d="M39300 34727
L39300 34786
" />
<path d="M39300 34786
L39202 34786
" />
<path d="M39202 34727
L39202 34786
" />
<path d="M39300 34727
L39202 34727
" />
<path d="M39320 35160
L39320 33940
" />
<path d="M39320 33940
L38730 33940
" />
<path d="M38730 33940
L38730 35160
" />
<path d="M38730 35160
L39320 35160
" />
<path d="M39221 34766 A291.671 291.671 0.0 0 0 39221.6 34334.5 " />
<path d="M39221 34334 A291.671 291.671 0.0 0 0 38828.8 34334.2 " />
<path d="M38829 34334 A291.671 291.671 0.0 0 0 38828.4 34765.5 " />
<path d="M38829 34766 A291.671 291.671 0.0 0 0 39221.2 34765.8 " />
<circle cx="39670.7" cy="33998.8" r="39.3701" /> 
<path d="M40064 34511
L40064 34589
" />
<path d="M40064 34589
L39986 34589
" />
<path d="M39986 34511
L39986 34589
" />
<path d="M40064 34511
L39986 34511
" />
<path d="M40300 34727
L40300 34864
" />
<path d="M40300 34864
L40202 34864
" />
<path d="M40202 34727
L40202 34864
" />
<path d="M40300 34727
L40202 34727
" />
<path d="M40300 34864
L40300 34904
" />
<path d="M40300 34904
L39829 34904
" />
<path d="M39829 34864
L39829 34904
" />
<path d="M40300 34864
L39829 34864
" />
<path d="M39809 34864
L39809 34904
" />
<path d="M39809 34904
L39750 34904
" />
<path d="M39750 34864
L39750 34904
" />
<path d="M39809 34864
L39750 34864
" />
<path d="M40300 34196
L40300 34236
" />
<path d="M40300 34236
L39829 34236
" />
<path d="M39829 34196
L39829 34236
" />
<path d="M40300 34196
L39829 34196
" />
<path d="M39809 34196
L39809 34236
" />
<path d="M39809 34236
L39750 34236
" />
<path d="M39750 34196
L39750 34236
" />
<path d="M39809 34196
L39750 34196
" />
<path d="M40300 34727
L40300 34786
" />
<path d="M40300 34786
L40202 34786
" />
<path d="M40202 34727
L40202 34786
" />
<path d="M40300 34727
L40202 34727
" />
<path d="M40320 35160
L40320 33940
" />
<path d="M40320 33940
L39730 33940
" />
<path d="M39730 33940
L39730 35160
" />
<path d="M39730 35160
L40320 35160
" />
<path d="M40221 34766 A291.671 291.671 0.0 0 0 40221.6 34334.5 " />
<path d="M40221 34334 A291.671 291.671 0.0 0 0 39828.8 34334.2 " />
<path d="M39829 34334 A291.671 291.671 0.0 0 0 39828.4 34765.5 " />
<path d="M39829 34766 A291.671 291.671 0.0 0 0 40221.2 34765.8 " />
<circle cx="40670.7" cy="33998.8" r="39.3701" /> 
<path d="M41064 34511
L41064 34589
" />
<path d="M41064 34589
L40986 34589
" />
<path d="M40986 34511
L40986 34589
" />
<path d="M41064 34511
L40986 34511
" />
<path d="M41300 34727
L41300 34864
" />
<path d="M41300 34864
L41202 34864
" />
<path d="M41202 34727
L41202 34864
" />
<path d="M41300 34727
L41202 34727
" />
<path d="M41300 34864
L41300 34904
" />
<path d="M41300 34904
L40829 34904
" />
<path d="M40829 34864
L40829 34904
" />
<path d="M41300 34864
L40829 34864
" />
<path d="M40809 34864
L40809 34904
" />
<path d="M40809 34904
L40750 34904
" />
<path d="M40750 34864
L40750 34904
" />
<path d="M40809 34864
L40750 34864
" />
<path d="M41300 34196
L41300 34236
" />
<path d="M41300 34236
L40829 34236
" />
<path d="M40829 34196
L40829 34236
" />
<path d="M41300 34196
L40829 34196
" />
<path d="M40809 34196
L40809 34236
" />
<path d="M40809 34236
L40750 34236
" />
<path d="M40750 34196
L40750 34236
" />
<path d="M40809 34196
L40750 34196
" />
<path d="M41300 34727
L41300 34786
" />
<path d="M41300 34786
L41202 34786
" />
<path d="M41202 34727
L41202 34786
" />
<path d="M41300 34727
L41202 34727
" />
<path d="M41320 35160
L41320 33940
" />
<path d="M41320 33940
L40730 33940
" />
<path d="M40730 33940
L40730 35160
" />
<path d="M40730 35160
L41320 35160
" />
<path d="M41221 34766 A291.671 291.671 0.0 0 0 41221.6 34334.5 " />
<path d="M41221 34334 A291.671 291.671 0.0 0 0 40828.8 34334.2 " />
<path d="M40829 34334 A291.671 291.671 0.0 0 0 40828.4 34765.5 " />
<path d="M40829 34766 A291.671 291.671 0.0 0 0 41221.2 34765.8 " />
<circle cx="41670.7" cy="33998.8" r="39.3701" /> 
<path d="M42064 34511
L42064 34589
" />
<path d="M42064 34589
L41986 34589
" />
<path d="M41986 34511
L41986 34589
" />
<path d="M42064 34511
L41986 34511
" />
<path d="M42300 34727
L42300 34864
" />
<path d="M42300 34864
L42202 34864
" />
<path d="M42202 34727
L42202 34864
" />
<path d="M42300 34727
L42202 34727
" />
<path d="M42300 34864
L42300 34904
" />
<path d="M42300 34904
L41829 34904
" />
<path d="M41829 34864
L41829 34904
" />
<path d="M42300 34864
L41829 34864
" />
<path d="M41809 34864
L41809 34904
" />
<path d="M41809 34904
L41750 34904
" />
<path d="M41750 34864
L41750 34904
" />
<path d="M41809 34864
L41750 34864
" />
<path d="M42300 34196
L42300 34236
" />
<path d="M42300 34236
L41829 34236
" />
<path d="M41829 34196
L41829 34236
" />
<path d="M42300 34196
L41829 34196
" />
<path d="M41809 34196
L41809 34236
" />
<path d="M41809 34236
L41750 34236
" />
<path d="M41750 34196
L41750 34236
" />
<path d="M41809 34196
L41750 34196
" />
<path d="M42300 34727
L42300 34786
" />
<path d="M42300 34786
L42202 34786
" />
<path d="M42202 34727
L42202 34786
" />
<path d="M42300 34727
L42202 34727
" />
<path d="M42320 35160
L42320 33940
" />
<path d="M42320 33940
L41730 33940
" />
<path d="M41730 33940
L41730 35160
" />
<path d="M41730 35160
L42320 35160
" />
<path d="M42221 34766 A291.671 291.671 0.0 0 0 42221.6 34334.5 " />
<path d="M42221 34334 A291.671 291.671 0.0 0 0 41828.8 34334.2 " />
<path d="M41829 34334 A291.671 291.671 0.0 0 0 41828.4 34765.5 " />
<path d="M41829 34766 A291.671 291.671 0.0 0 0 42221.2 34765.8 " />
<path d="M18875 34800
L18875 36000
" />
<path d="M18875 36000
L21675 36000
" />
<path d="M21675 36000
L21675 34800
" />
<path d="M18875 33600
L18875 33300
" />
<path d="M18875 33300
L19475 32400
" />
<path d="M19475 32400
L21075 32400
" />
<path d="M21075 32400
L21675 33300
" />
<path d="M21675 33300
L21675 33600
" />
<path d="M46725 35950
L48725 35950
" />
<path d="M48725 35950
L48725 34950
" />
<path d="M48725 34950
L46725 34950
" />
<path d="M45614 34839
L46225 34839
" />
<path d="M46725 34950
L46725 35950
" />
<path d="M46225 36060
L45614 36060
" />
<path d="M45614 36060
L45614 34839
" />
<path d="M46725 34550
L48725 34550
" />
<path d="M48725 34550
L48725 33550
" />
<path d="M48725 33550
L46725 33550
" />
<path d="M45614 33439
L46225 33439
" />
<path d="M46725 33550
L46725 34550
" />
<path d="M46225 34660
L45614 34660
" />
<path d="M45614 34660
L45614 33439
" />
<path d="M46725 33150
L48725 33150
" />
<path d="M48725 33150
L48725 32150
" />
<path d="M48725 32150
L46725 32150
" />
<path d="M45614 32039
L46225 32039
" />
<path d="M46725 32150
L46725 33150
" />
<path d="M46225 33260
L45614 33260
" />
<path d="M45614 33260
L45614 32039
" />
<path d="M26525 38850
L33525 38850
" />
<path d="M33525 38850
L33525 39850
" />
<path d="M33525 39850
L26525 39850
" />
<path d="M25414 38739
L26025 38739
" />
<path d="M26525 38850
L26525 39850
" />
<path d="M26025 39960
L25414 39960
" />
<path d="M25414 39960
L25414 38739
" />
<path d="M35525 38850
L42525 38850
" />
<path d="M42525 38850
L42525 39850
" />
<path d="M42525 39850
L35525 39850
" />
<path d="M34414 38739
L35025 38739
" />
<path d="M35525 38850
L35525 39850
" />
<path d="M35025 39960
L34414 39960
" />
<path d="M34414 39960
L34414 38739
" />
<path d="M35525 12850
L42525 12850
" />
<path d="M42525 12850
L42525 13850
" />
<path d="M42525 13850
L35525 13850
" />
<path d="M34414 12739
L35025 12739
" />
<path d="M35525 12850
L35525 13850
" />
<path d="M35025 13960
L34414 13960
" />
<path d="M34414 13960
L34414 12739
" />
<path d="M26525 12850
L33525 12850
" />
<path d="M33525 12850
L33525 13850
" />
<path d="M33525 13850
L26525 13850
" />
<path d="M25414 12739
L26025 12739
" />
<path d="M26525 12850
L26525 13850
" />
<path d="M26025 13960
L25414 13960
" />
<path d="M25414 13960
L25414 12739
" />
</g>
<g style="fill:#000000; fill-opacity:0.0; 
stroke:#000000; stroke-width:120; stroke-opacity:1; 
stroke-linecap:round; stroke-linejoin:round;">
<path d="M21064 28603
L23185 28603
" />
<path d="M23185 28603
L23539 28250
" />
<path d="M23539 28250
L23539 27542
" />
<path d="M23539 27542
L22832 26835
" />
<path d="M22832 26835
L21417 26835
" />
<path d="M21417 26835
L20710 27542
" />
<path d="M20710 27542
L20710 28250
" />
<path d="M20710 28250
L21064 28603
" />
</g>
<g style="fill:#000000; fill-opacity:0.0; 
stroke:#000000; stroke-width:59.0551; stroke-opacity:1; 
stroke-linecap:round; stroke-linejoin:round;">
<path d="M34225 21050
L34225 22050
" />
<path d="M34225 22050
L25225 22050
" />
<path d="M25225 22050
L25225 21050
" />
<path d="M34225 21050
L25225 21050
" />
<path d="M26225 21050
L26225 22050
" />
<path d="M26709 33716
L26709 33416
" />
<path d="M26909 33716
L26909 33416
" />
<path d="M26709 34516 A657.647 657.647 0.0 0 0 27459 33966 " />
<path d="M26159 33916 A651.92 651.92 0.0 0 0 26859 34516 " />
<path d="M27359 34216 A651.92 651.92 0.0 0 0 27159 33316 " />
<path d="M26459 33316 A651.92 651.92 0.0 0 0 26259 34216 " />
<path d="M25509 35366
L25509 35316
" />
<path d="M25509 33866
L25509 34416
" />
<path d="M28109 35366
L28109 35316
" />
<path d="M28109 33866
L28109 34416
" />
<path d="M26359 35016
L26509 35066
" />
<path d="M26509 35066
L26809 35116
" />
<path d="M26809 35116
L27109 35066
" />
<path d="M27109 35066
L27259 35016
" />
<path d="M26309 34666
L27309 34666
" />
<path d="M27959 34366 A1253.99 1253.99 0.0 0 0 27309 32716 " />
<path d="M26309 32716 A1253.99 1253.99 0.0 0 0 25659 34366 " />
<path d="M27609 32566
L27259 32566
" />
<path d="M26359 32566
L26009 32566
" />
<path d="M27459 33716
L27659 33716
" />
<path d="M27659 33716
L27659 34016
" />
<path d="M27659 34016
L27459 34016
" />
<path d="M26159 33716
L25959 33716
" />
<path d="M25959 33716
L25959 34016
" />
<path d="M25959 34016
L26159 34016
" />
<path d="M27009 33966
L27459 33966
" />
<path d="M27009 33766
L27459 33766
" />
<path d="M26609 33966
L26159 33966
" />
<path d="M26609 33766
L26159 33766
" />
<path d="M26909 34016
L26909 34516
" />
<path d="M26709 34016
L26709 34516
" />
<path d="M26609 33716
L26609 34016
" />
<path d="M26609 34016
L27009 34016
" />
<path d="M27009 34016
L27009 33716
" />
<path d="M27009 33716
L26609 33716
" />
<path d="M26009 32566
L25509 33116
" />
<path d="M25509 33116
L25509 33866
" />
<path d="M27609 32566
L28109 33116
" />
<path d="M28109 33116
L28109 33866
" />
<path d="M28009 35366
L28009 35466
" />
<path d="M28009 35466
L27559 35466
" />
<path d="M27559 35466
L27559 35366
" />
<path d="M25609 35366
L25609 35466
" />
<path d="M25609 35466
L26059 35466
" />
<path d="M26059 35466
L26059 35366
" />
<path d="M25509 35366
L28109 35366
" />
</g>
<g style="fill:#000000; fill-opacity:0.0; 
stroke:#000000; stroke-width:150; stroke-opacity:1; 
stroke-linecap:round; stroke-linejoin:round;">
<path d="M24384 38450
L24384 37269
" />
<path d="M24384 37269
L19266 37269
" />
<path d="M19266 37269
L19266 39828
" />
<path d="M19266 39828
L24384 39828
" />
<path d="M24384 39828
L24384 38450
" />
<path d="M32125 34250
L32125 35750
" />
<path d="M32125 35750
L29375 35750
" />
<path d="M29375 35750
L29375 32750
" />
<path d="M29375 32750
L32125 32750
" />
<path d="M32125 32750
L32125 34250
" />
<circle cx="30625" cy="34250" r="500" /> 
<path d="M36525 34250
L36525 35750
" />
<path d="M36525 35750
L33775 35750
" />
<path d="M33775 35750
L33775 32750
" />
<path d="M33775 32750
L36525 32750
" />
<path d="M36525 32750
L36525 34250
" />
<circle cx="35025" cy="34250" r="500" /> 
<path d="M45025 39950
L43525 39950
" />
<path d="M43525 39950
L43525 37200
" />
<path d="M43525 37200
L46525 37200
" />
<path d="M46525 37200
L46525 39950
" />
<path d="M46525 39950
L45025 39950
" />
<circle cx="45025" cy="38450" r="500" /> 
</g>
<g style="fill:#000000; fill-opacity:0.0; 
stroke:#000000; stroke-width:20; stroke-opacity:1; 
stroke-linecap:round; stroke-linejoin:round;">
<path d="M21341 19861
L21341 19566
" />
<path d="M21341 19566
L21636 19566
" />
<path d="M23014 19566
L23309 19566
" />
<path d="M23309 19566
L23309 19861
" />
<path d="M21636 21534
L21341 21534
" />
<path d="M21341 21534
L21341 21239
" />
<path d="M23014 21534
L23309 21534
" />
<path d="M23309 21534
L23309 21239
" />
</g>
<g style="fill:#000000; fill-opacity:0.0; 
stroke:#000000; stroke-width:59.0551; stroke-opacity:1; 
stroke-linecap:round; stroke-linejoin:round;">
<path d="M24725 25550
L25225 25550
" />
<path d="M25225 25550
L25225 26550
" />
<path d="M25225 26550
L24725 26550
" />
<path d="M24725 23550
L45725 23550
" />
<path d="M45725 23550
L45725 28550
" />
<path d="M45725 28550
L24725 28550
" />
<path d="M24725 28550
L24725 23550
" />
<path d="M43175 25756
L43254 25914
" />
<path d="M43254 25914
L43294 26150
" />
<path d="M43294 26150
L43254 26347
" />
<path d="M43254 26347
L43097 26622
" />
<path d="M43097 26622
L42860 26780
" />
<path d="M42860 26780
L42624 26859
" />
<path d="M42624 26859
L40026 26859
" />
<path d="M40026 26859
L39750 26780
" />
<path d="M39750 26780
L39593 26662
" />
<path d="M39593 26662
L39435 26465
" />
<path d="M39435 26465
L39356 26229
" />
<path d="M39356 26229
L39356 26032
" />
<path d="M39356 26032
L39435 25835
" />
<path d="M39435 25835
L39632 25599
" />
<path d="M39632 25599
L39829 25481
" />
<path d="M39829 25481
L40026 25441
" />
<path d="M40065 25441
L42664 25441
" />
<path d="M42664 25441
L42821 25481
" />
<path d="M42821 25481
L43018 25599
" />
<path d="M43018 25599
L43215 25796
" />
<path d="M40069 25233
L39888 25252
" />
<path d="M39888 25252
L39731 25296
" />
<path d="M39731 25296
L39561 25382
" />
<path d="M39561 25382
L39447 25473
" />
<path d="M39447 25473
L39317 25611
" />
<path d="M39317 25611
L39203 25823
" />
<path d="M39203 25823
L39152 26059
" />
<path d="M39152 26059
L39152 26260
" />
<path d="M39152 26260
L39219 26536
" />
<path d="M39219 26536
L39376 26768
" />
<path d="M39376 26768
L39557 26914
" />
<path d="M39557 26914
L39723 26996
" />
<path d="M39723 26996
L39900 27059
" />
<path d="M39900 27059
L40073 27071
" />
<path d="M42963 26985
L43112 26898
" />
<path d="M43112 26898
L43238 26788
" />
<path d="M43238 26788
L43337 26658
" />
<path d="M43337 26658
L43455 26441
" />
<path d="M43455 26441
L43498 26256
" />
<path d="M43498 26256
L43506 26075
" />
<path d="M43506 26075
L43471 25894
" />
<path d="M43471 25894
L43396 25717
" />
<path d="M43396 25717
L43254 25532
" />
<path d="M43254 25532
L43116 25406
" />
<path d="M43116 25406
L42963 25315
" />
<path d="M42963 25315
L42794 25260
" />
<path d="M42794 25260
L42620 25233
" />
<path d="M40065 27067
L42605 27067
" />
<path d="M42605 27067
L42770 27052
" />
<path d="M42770 27052
L42963 26985
" />
<path d="M40065 25233
L42605 25233
" />
<circle cx="15119.5" cy="38747.6" r="900" /> 
<circle cx="47796.7" cy="38747.6" r="900" /> 
<circle cx="15119.5" cy="13944.5" r="900" /> 
<circle cx="47796.7" cy="13944.5" r="900" /> 
<path d="M21462 23286
L21187 23286
" />
<path d="M21187 22813
L21462 22813
" />
<path d="M25987 20213
L26262 20213
" />
<path d="M26262 20686
L25987 20686
" />
<path d="M38861 26012
L38861 26287
" />
<path d="M38388 26287
L38388 26012
" />
<path d="M44261 26012
L44261 26287
" />
<path d="M43788 26287
L43788 26012
" />
<path d="M22028 24784
L22421 24784
" />
<path d="M22421 25315
L22028 25315
" />
<path d="M23890 25353
L23890 25746
" />
<path d="M23359 25746
L23359 25353
" />
<path d="M22421 26315
L22028 26315
" />
<path d="M22028 25784
L22421 25784
" />
<path d="M22221 30065
L21828 30065
" />
<path d="M21828 29534
L22221 29534
" />
<path d="M17090 38653
L17090 39046
" />
<path d="M16559 39046
L16559 38653
" />
<path d="M32659 34546
L32659 34153
" />
<path d="M33190 34153
L33190 34546
" />
<path d="M36859 34546
L36859 34153
" />
<path d="M37390 34153
L37390 34546
" />
<path d="M36559 21046
L36559 20653
" />
<path d="M37090 20653
L37090 21046
" />
<path d="M47993 37241
L47599 37241
" />
<path d="M47599 36710
L47993 36710
" />
<path d="M38759 32246
L38759 31853
" />
<path d="M39290 31853
L39290 32246
" />
<path d="M39759 32246
L39759 31853
" />
<path d="M40290 31853
L40290 32246
" />
<path d="M40759 32246
L40759 31853
" />
<path d="M41290 31853
L41290 32246
" />
<path d="M41759 32246
L41759 31853
" />
<path d="M42290 31853
L42290 32246
" />
<path d="M45875 12850
L42875 12850
" />
<path d="M45875 13850
L42875 13850
" />
<path d="M46985 13960
L46375 13960
" />
<path d="M42875 12850
L42875 13850
" />
<path d="M45875 13850
L45875 12850
" />
<path d="M46375 12739
L46985 12739
" />
<path d="M46985 12739
L46985 13960
" />
<path d="M18303 31841
L18303 31591
L18398 31591
L18422 31603
L18434 31615
L18446 31639
L18446 31675
L18434 31698
L18422 31710
L18398 31722
L18303 31722
" />
<path d="M18589 31698
L18565 31687
L18553 31675
L18541 31651
L18541 31639
L18553 31615
L18565 31603
L18589 31591
L18636 31591
L18660 31603
L18672 31615
L18684 31639
L18684 31651
L18672 31675
L18660 31687
L18636 31698
L18589 31698
L18565 31710
L18553 31722
L18541 31746
L18541 31794
L18553 31818
L18565 31829
L18589 31841
L18636 31841
L18660 31829
L18672 31818
L18684 31794
L18684 31746
L18672 31722
L18660 31710
L18636 31698
" />
<path d="M21723 34494
L21742 34513
L21761 34569
L21761 34606
L21742 34663
L21705 34700
L21667 34719
L21592 34738
L21536 34738
L21461 34719
L21423 34700
L21386 34663
L21367 34606
L21367 34569
L21386 34513
L21405 34494
" />
<path d="M21405 34344
L21386 34325
L21367 34288
L21367 34194
L21386 34156
L21405 34138
L21442 34119
L21480 34119
L21536 34138
L21761 34363
L21761 34119
" />
<path d="M17840 37863
L17840 37613
L17900 37613
L17935 37625
L17959 37648
L17971 37672
L17983 37720
L17983 37755
L17971 37803
L17959 37827
L17935 37851
L17900 37863
L17840 37863
" />
<path d="M18221 37863
L18078 37863
" />
<path d="M18150 37863
L18150 37613
L18126 37648
L18102 37672
L18078 37684
" />
<path d="M38840 33463
L38840 33213
L38900 33213
L38935 33225
L38959 33248
L38971 33272
L38983 33320
L38983 33355
L38971 33403
L38959 33427
L38935 33451
L38900 33463
L38840 33463
" />
<path d="M39078 33236
L39090 33225
L39114 33213
L39173 33213
L39197 33225
L39209 33236
L39221 33260
L39221 33284
L39209 33320
L39066 33463
L39221 33463
" />
<path d="M39840 33463
L39840 33213
L39900 33213
L39935 33225
L39959 33248
L39971 33272
L39983 33320
L39983 33355
L39971 33403
L39959 33427
L39935 33451
L39900 33463
L39840 33463
" />
<path d="M40066 33213
L40221 33213
L40138 33308
L40173 33308
L40197 33320
L40209 33332
L40221 33355
L40221 33415
L40209 33439
L40197 33451
L40173 33463
L40102 33463
L40078 33451
L40066 33439
" />
<path d="M40840 33463
L40840 33213
L40900 33213
L40935 33225
L40959 33248
L40971 33272
L40983 33320
L40983 33355
L40971 33403
L40959 33427
L40935 33451
L40900 33463
L40840 33463
" />
<path d="M41197 33296
L41197 33463
" />
<path d="M41138 33201
L41078 33379
L41233 33379
" />
<path d="M41835 33463
L41835 33213
L41896 33213
L41933 33225
L41957 33248
L41969 33272
L41982 33320
L41982 33355
L41969 33403
L41957 33427
L41933 33451
L41896 33463
L41835 33463
" />
<path d="M42214 33213
L42092 33213
L42080 33332
L42092 33320
L42116 33308
L42178 33308
L42202 33320
L42214 33332
L42227 33355
L42227 33415
L42214 33439
L42202 33451
L42178 33463
L42116 33463
L42092 33451
L42080 33439
" />
<path d="M21244 36406
L21244 36170
" />
<path d="M21491 36384
L21480 36395
L21446 36406
L21424 36406
L21390 36395
L21368 36373
L21356 36350
L21345 36305
L21345 36271
L21356 36226
L21368 36204
L21390 36181
L21424 36170
L21446 36170
L21480 36181
L21491 36193
" />
<path d="M21716 36406
L21581 36406
" />
<path d="M21649 36406
L21649 36170
L21626 36204
L21604 36226
L21581 36238
" />
<path d="M24840 39463
L24840 39213
L24935 39213
L24959 39225
L24971 39236
L24983 39260
L24983 39296
L24971 39320
L24959 39332
L24935 39344
L24840 39344
" />
<path d="M25197 39296
L25197 39463
" />
<path d="M25138 39201
L25078 39379
L25233 39379
" />
</g>
<g style="fill:#000000; fill-opacity:0.0; 
stroke:#000000; stroke-width:62.5; stroke-opacity:1; 
stroke-linecap:round; stroke-linejoin:round;">
<path d="M20611 28829
L20602 28804
L20602 28771
L20602 28720
L20594 28695
L20577 28678
" />
<path d="M20544 28728
L20535 28703
L20535 28670
L20560 28627
L20619 28569
L20661 28543
L20695 28543
L20720 28552
L20754 28585
L20762 28611
L20762 28644
L20737 28686
L20678 28745
L20636 28771
L20602 28771
L20577 28762
L20544 28728
" />
<path d="M20788 28973
L20687 28872
" />
<path d="M20737 28922
L20914 28745
L20872 28754
L20838 28754
L20813 28745
" />
</g>
<g style="fill:#000000; fill-opacity:0.0; 
stroke:#000000; stroke-width:59.0551; stroke-opacity:1; 
stroke-linecap:round; stroke-linejoin:round;">
<path d="M34458 21663
L34375 21544
" />
<path d="M34315 21663
L34315 21413
L34410 21413
L34434 21425
L34446 21436
L34458 21460
L34458 21496
L34446 21520
L34434 21532
L34410 21544
L34315 21544
" />
<path d="M34708 21663
L34625 21544
" />
<path d="M34565 21663
L34565 21413
L34660 21413
L34684 21425
L34696 21436
L34708 21460
L34708 21496
L34696 21520
L34684 21532
L34660 21544
L34565 21544
" />
<path d="M34946 21663
L34803 21663
" />
<path d="M34875 21663
L34875 21413
L34851 21448
L34827 21472
L34803 21484
" />
<path d="M26776 32163
L26692 32044
" />
<path d="M26633 32163
L26633 31913
L26728 31913
L26752 31925
L26764 31936
L26776 31960
L26776 31996
L26764 32020
L26752 32032
L26728 32044
L26633 32044
" />
<path d="M26847 31913
L26930 32163
L27014 31913
" />
<path d="M27228 32163
L27085 32163
" />
<path d="M27157 32163
L27157 31913
L27133 31948
L27109 31972
L27085 31984
" />
</g>
<g style="fill:#000000; fill-opacity:0.0; 
stroke:#000000; stroke-width:100; stroke-opacity:1; 
stroke-linecap:round; stroke-linejoin:round;">
<path d="M44473 39557
L44530 39576
L44626 39576
L44664 39557
L44683 39538
L44702 39500
L44702 39462
L44683 39424
L44664 39405
L44626 39386
L44549 39367
L44511 39348
L44492 39329
L44473 39291
L44473 39253
L44492 39215
L44511 39196
L44549 39176
L44645 39176
L44702 39196
" />
<path d="M44835 39176
L44930 39576
L45007 39291
L45083 39576
L45178 39176
" />
<path d="M45502 39310
L45502 39576
" />
<path d="M45407 39157
L45311 39443
L45559 39443
" />
</g>
<g style="fill:#000000; fill-opacity:0.0; 
stroke:#000000; stroke-width:59.0551; stroke-opacity:1; 
stroke-linecap:round; stroke-linejoin:round;">
<path d="M24925 23834
L24925 24153
L24943 24190
L24962 24209
L25000 24228
L25075 24228
L25112 24209
L25131 24190
L25150 24153
L25150 23834
" />
<path d="M25318 23871
L25337 23853
L25374 23834
L25468 23834
L25506 23853
L25524 23871
L25543 23909
L25543 23946
L25524 24003
L25299 24228
L25543 24228
" />
<path d="M41122 24813
L41289 25063
" />
<path d="M41289 24813
L41122 25063
" />
<path d="M41515 25063
L41372 25063
" />
<path d="M41444 25063
L41444 24813
L41420 24848
L41396 24872
L41372 24884
" />
<path d="M21283 23887
L21271 23899
L21235 23911
L21211 23911
L21176 23899
L21152 23875
L21140 23851
L21128 23803
L21128 23768
L21140 23720
L21152 23696
L21176 23673
L21211 23661
L21235 23661
L21271 23673
L21283 23684
" />
<path d="M21521 23911
L21378 23911
" />
<path d="M21450 23911
L21450 23661
L21426 23696
L21402 23720
L21378 23732
" />
</g>
<g style="fill:#000000; fill-opacity:0.0; 
stroke:#000000; stroke-width:50; stroke-opacity:1; 
stroke-linecap:round; stroke-linejoin:round;">
<path d="M25083 20539
L25071 20551
L25035 20563
L25011 20563
L24976 20551
L24952 20527
L24940 20503
L24928 20455
L24928 20420
L24940 20372
L24952 20348
L24976 20325
L25011 20313
L25035 20313
L25071 20325
L25083 20336
" />
<path d="M25166 20313
L25321 20313
L25238 20408
L25273 20408
L25297 20420
L25309 20432
L25321 20455
L25321 20515
L25309 20539
L25297 20551
L25273 20563
L25202 20563
L25178 20551
L25166 20539
" />
</g>
<g style="fill:#000000; fill-opacity:0.0; 
stroke:#000000; stroke-width:59.0551; stroke-opacity:1; 
stroke-linecap:round; stroke-linejoin:round;">
<path d="M38583 25339
L38571 25351
L38535 25363
L38511 25363
L38476 25351
L38452 25327
L38440 25303
L38428 25255
L38428 25220
L38440 25172
L38452 25148
L38476 25125
L38511 25113
L38535 25113
L38571 25125
L38583 25136
" />
<path d="M38797 25196
L38797 25363
" />
<path d="M38738 25101
L38678 25279
L38833 25279
" />
<path d="M43983 25339
L43971 25351
L43935 25363
L43911 25363
L43876 25351
L43852 25327
L43840 25303
L43828 25255
L43828 25220
L43840 25172
L43852 25148
L43876 25125
L43911 25113
L43935 25113
L43971 25125
L43983 25136
" />
<path d="M44209 25113
L44090 25113
L44078 25232
L44090 25220
L44114 25208
L44173 25208
L44197 25220
L44209 25232
L44221 25255
L44221 25315
L44209 25339
L44197 25351
L44173 25363
L44114 25363
L44090 25351
L44078 25339
" />
<path d="M21083 25163
L21000 25044
" />
<path d="M20940 25163
L20940 24913
L21035 24913
L21059 24925
L21071 24936
L21083 24960
L21083 24996
L21071 25020
L21059 25032
L21035 25044
L20940 25044
" />
<path d="M21321 25163
L21178 25163
" />
<path d="M21250 25163
L21250 24913
L21226 24948
L21202 24972
L21178 24984
" />
<path d="M23583 24663
L23500 24544
" />
<path d="M23440 24663
L23440 24413
L23535 24413
L23559 24425
L23571 24436
L23583 24460
L23583 24496
L23571 24520
L23559 24532
L23535 24544
L23440 24544
" />
<path d="M23678 24436
L23690 24425
L23714 24413
L23773 24413
L23797 24425
L23809 24436
L23821 24460
L23821 24484
L23809 24520
L23666 24663
L23821 24663
" />
<path d="M21083 26163
L21000 26044
" />
<path d="M20940 26163
L20940 25913
L21035 25913
L21059 25925
L21071 25936
L21083 25960
L21083 25996
L21071 26020
L21059 26032
L21035 26044
L20940 26044
" />
<path d="M21166 25913
L21321 25913
L21238 26008
L21273 26008
L21297 26020
L21309 26032
L21321 26055
L21321 26115
L21309 26139
L21297 26151
L21273 26163
L21202 26163
L21178 26151
L21166 26139
" />
<path d="M20883 29913
L20800 29794
" />
<path d="M20740 29913
L20740 29663
L20835 29663
L20859 29675
L20871 29686
L20883 29710
L20883 29746
L20871 29770
L20859 29782
L20835 29794
L20740 29794
" />
<path d="M21097 29746
L21097 29913
" />
<path d="M21038 29651
L20978 29829
L21133 29829
" />
<path d="M16783 37963
L16700 37844
" />
<path d="M16640 37963
L16640 37713
L16735 37713
L16759 37725
L16771 37736
L16783 37760
L16783 37796
L16771 37820
L16759 37832
L16735 37844
L16640 37844
" />
<path d="M17009 37713
L16890 37713
L16878 37832
L16890 37820
L16914 37808
L16973 37808
L16997 37820
L17009 37832
L17021 37855
L17021 37915
L17009 37939
L16997 37951
L16973 37963
L16914 37963
L16890 37951
L16878 37939
" />
<path d="M32883 33463
L32800 33344
" />
<path d="M32740 33463
L32740 33213
L32835 33213
L32859 33225
L32871 33236
L32883 33260
L32883 33296
L32871 33320
L32859 33332
L32835 33344
L32740 33344
" />
<path d="M33097 33213
L33050 33213
L33026 33225
L33014 33236
L32990 33272
L32978 33320
L32978 33415
L32990 33439
L33002 33451
L33026 33463
L33073 33463
L33097 33451
L33109 33439
L33121 33415
L33121 33355
L33109 33332
L33097 33320
L33073 33308
L33026 33308
L33002 33320
L32990 33332
L32978 33355
" />
<path d="M37083 33463
L37000 33344
" />
<path d="M36940 33463
L36940 33213
L37035 33213
L37059 33225
L37071 33236
L37083 33260
L37083 33296
L37071 33320
L37059 33332
L37035 33344
L36940 33344
" />
<path d="M37166 33213
L37333 33213
L37226 33463
" />
<path d="M37538 20891
L37419 20975
" />
<path d="M37538 21034
L37288 21034
L37288 20939
L37300 20915
L37311 20903
L37335 20891
L37371 20891
L37395 20903
L37407 20915
L37419 20939
L37419 21034
" />
<path d="M37395 20748
L37383 20772
L37371 20784
L37347 20796
L37335 20796
L37311 20784
L37300 20772
L37288 20748
L37288 20701
L37300 20677
L37311 20665
L37335 20653
L37347 20653
L37371 20665
L37383 20677
L37395 20701
L37395 20748
L37407 20772
L37419 20784
L37442 20796
L37490 20796
L37514 20784
L37526 20772
L37538 20748
L37538 20701
L37526 20677
L37514 20665
L37490 20653
L37442 20653
L37419 20665
L37407 20677
L37395 20701
" />
<path d="M47754 36341
L47671 36222
" />
<path d="M47612 36341
L47612 36091
L47707 36091
L47731 36102
L47743 36114
L47754 36138
L47754 36174
L47743 36198
L47731 36210
L47707 36222
L47612 36222
" />
<path d="M47874 36341
L47921 36341
L47945 36329
L47957 36317
L47981 36281
L47993 36233
L47993 36138
L47981 36114
L47969 36102
L47945 36091
L47897 36091
L47874 36102
L47862 36114
L47850 36138
L47850 36198
L47862 36222
L47874 36233
L47897 36245
L47945 36245
L47969 36233
L47981 36222
L47993 36198
" />
<path d="M38864 31163
L38780 31044
" />
<path d="M38721 31163
L38721 30913
L38816 30913
L38840 30925
L38852 30936
L38864 30960
L38864 30996
L38852 31020
L38840 31032
L38816 31044
L38721 31044
" />
<path d="M39102 31163
L38959 31163
" />
<path d="M39030 31163
L39030 30913
L39007 30948
L38983 30972
L38959 30984
" />
<path d="M39257 30913
L39280 30913
L39304 30925
L39316 30936
L39328 30960
L39340 31008
L39340 31067
L39328 31115
L39316 31139
L39304 31151
L39280 31163
L39257 31163
L39233 31151
L39221 31139
L39209 31115
L39197 31067
L39197 31008
L39209 30960
L39221 30936
L39233 30925
L39257 30913
" />
<path d="M39864 31163
L39780 31044
" />
<path d="M39721 31163
L39721 30913
L39816 30913
L39840 30925
L39852 30936
L39864 30960
L39864 30996
L39852 31020
L39840 31032
L39816 31044
L39721 31044
" />
<path d="M40102 31163
L39959 31163
" />
<path d="M40030 31163
L40030 30913
L40007 30948
L39983 30972
L39959 30984
" />
<path d="M40340 31163
L40197 31163
" />
<path d="M40269 31163
L40269 30913
L40245 30948
L40221 30972
L40197 30984
" />
<path d="M40864 31163
L40780 31044
" />
<path d="M40721 31163
L40721 30913
L40816 30913
L40840 30925
L40852 30936
L40864 30960
L40864 30996
L40852 31020
L40840 31032
L40816 31044
L40721 31044
" />
<path d="M41102 31163
L40959 31163
" />
<path d="M41030 31163
L41030 30913
L41007 30948
L40983 30972
L40959 30984
" />
<path d="M41197 30936
L41209 30925
L41233 30913
L41292 30913
L41316 30925
L41328 30936
L41340 30960
L41340 30984
L41328 31020
L41185 31163
L41340 31163
" />
<path d="M41864 31163
L41780 31044
" />
<path d="M41721 31163
L41721 30913
L41816 30913
L41840 30925
L41852 30936
L41864 30960
L41864 30996
L41852 31020
L41840 31032
L41816 31044
L41721 31044
" />
<path d="M42102 31163
L41959 31163
" />
<path d="M42030 31163
L42030 30913
L42007 30948
L41983 30972
L41959 30984
" />
<path d="M42185 30913
L42340 30913
L42257 31008
L42292 31008
L42316 31020
L42328 31032
L42340 31055
L42340 31115
L42328 31139
L42316 31151
L42292 31163
L42221 31163
L42197 31151
L42185 31139
" />
</g> 
</svg>
